<?xml version="1.0" encoding="utf-8"?>
<!-- Generator: Adobe Illustrator 16.0.0, SVG Export Plug-In . SVG Version: 6.00 Build 0)  -->
<!DOCTYPE svg PUBLIC "-//W3C//DTD SVG 1.1//EN" "http://www.w3.org/Graphics/SVG/1.1/DTD/svg11.dtd">
<svg version="1.1" id="Layer_1" xmlns="http://www.w3.org/2000/svg" xmlns:xlink="http://www.w3.org/1999/xlink" x="0px" y="0px"
	 width="135.166px" height="125.644px" viewBox="442.997 633.041 135.166 125.644"
	 enable-background="new 442.997 633.041 135.166 125.644" xml:space="preserve">
<path fill="none" stroke="#000000" stroke-width="0.118" stroke-linecap="round" stroke-linejoin="round" d="M443.056,638.811
	c0-0.719,0.14-1.457,0.408-2.176c0.271-0.718,0.687-1.365,1.224-1.904c0.539-0.447,1.141-0.863,1.769-1.224
	c0.719-0.271,1.458-0.407,2.176-0.407l0,0h123.759c0.719,0,1.458,0.14,2.177,0.407c0.718,0.359,1.364,0.775,1.903,1.224
	c0.538,0.539,0.955,1.188,1.225,1.904c0.269,0.719,0.408,1.458,0.408,2.176l0,0v74.937c-0.182,3.981-0.728,7.94-1.633,11.832
	c-0.904,3.891-2.134,7.713-3.672,11.424c-1.629,3.619-3.54,7.123-5.712,10.471c-2.172,3.351-4.629,6.489-7.344,9.386l0,0
	c-0.271,0.271-0.59,0.545-0.952,0.814c-0.271,0.182-0.59,0.363-0.952,0.544c-0.362,0.092-0.726,0.183-1.088,0.271
	c-0.362,0.092-0.726,0.137-1.088,0.137l0,0h-19.992c-0.271,0-0.544,0-0.815,0c-0.271-0.09-0.545-0.182-0.816-0.271
	c-0.271-0.091-0.544-0.229-0.816-0.408c-0.181-0.183-0.362-0.363-0.544-0.545c-0.271-0.181-0.453-0.407-0.544-0.681
	c-0.181-0.181-0.315-0.407-0.408-0.68c-0.09-0.271-0.181-0.544-0.271-0.816c-0.09-0.271-0.136-0.543-0.136-0.814l0,0v-7.888
	c0-0.361,0.046-0.683,0.136-0.953c0.091-0.36,0.228-0.681,0.408-0.951c0.181-0.361,0.363-0.682,0.544-0.952
	c0.271-0.271,0.545-0.499,0.815-0.679l0,0c3.425-2.345,6.453-5.235,8.977-8.568c2.522-3.424,4.497-7.188,5.848-11.152
	c1.353-3.965,2.086-8.095,2.176-12.239c0.091-4.234-0.506-8.457-1.768-12.513c-1.261-3.965-3.143-7.728-5.576-11.151
	c-2.433-3.424-5.416-6.406-8.84-8.84c-3.424-2.522-7.188-4.496-11.152-5.849c-3.964-1.261-8.141-1.904-12.375-1.904
	c-4.145,0-8.321,0.645-12.376,1.904c-3.965,1.353-7.682,3.325-11.016,5.849c-3.424,2.434-6.407,5.416-8.84,8.84
	c-2.434,3.425-4.315,7.188-5.576,11.151c-1.261,4.056-1.858,8.277-1.768,12.513c0,4.146,0.688,8.274,2.04,12.239
	c1.352,3.966,3.324,7.729,5.848,11.152c2.522,3.333,5.598,6.225,9.112,8.568l0,0c0.271,0.18,0.499,0.408,0.68,0.679
	c0.271,0.271,0.499,0.591,0.68,0.952c0.09,0.271,0.181,0.591,0.272,0.951c0.09,0.271,0.136,0.592,0.136,0.953l0,0v7.888
	c0,0.271-0.046,0.545-0.136,0.814c0,0.272-0.046,0.546-0.137,0.816s-0.227,0.499-0.407,0.68c-0.182,0.272-0.363,0.5-0.544,0.681
	c-0.182,0.182-0.409,0.362-0.681,0.545c-0.181,0.181-0.409,0.317-0.68,0.408c-0.272,0.09-0.545,0.182-0.816,0.271
	c-0.271,0-0.545,0-0.815,0l0,0h-19.992c-0.362,0-0.726-0.045-1.088-0.137c-0.452-0.091-0.817-0.181-1.088-0.271
	c-0.362-0.181-0.727-0.362-1.088-0.544c-0.271-0.271-0.545-0.544-0.816-0.814l0,0c-2.805-2.896-5.308-6.035-7.48-9.386
	c-2.172-3.348-4.036-6.852-5.575-10.471c-1.538-3.711-2.768-7.533-3.672-11.424c-0.905-3.892-1.451-7.851-1.633-11.832l0,0V638.811"
	/>
<path d="M461.145,655.811c0.538,0,1.14-0.139,1.768-0.407c0.539-0.181,1.047-0.502,1.496-0.951c0.358-0.449,0.683-0.958,0.952-1.496
	c0.18-0.539,0.271-1.141,0.271-1.769c0-0.629-0.092-1.229-0.271-1.769c-0.27-0.539-0.594-1.047-0.952-1.496
	c-0.449-0.448-0.957-0.771-1.496-0.952c-0.629-0.27-1.229-0.408-1.768-0.408l0,0c-0.629,0-1.229,0.14-1.769,0.408
	c-0.628,0.181-1.137,0.504-1.496,0.952c-0.449,0.449-0.817,0.957-1.088,1.496c-0.179,0.539-0.272,1.14-0.272,1.769
	c0,0.628,0.094,1.229,0.272,1.769c0.269,0.538,0.639,1.047,1.088,1.496c0.359,0.449,0.867,0.771,1.496,0.951
	C459.915,655.672,460.515,655.811,461.145,655.811L461.145,655.811"/>
<path d="M510.512,646.562c-0.539,0-1.14,0.139-1.768,0.407c-0.539,0.181-1.047,0.502-1.496,0.952
	c-0.359,0.448-0.684,0.957-0.952,1.496c-0.27,0.539-0.408,1.14-0.408,1.77c0,0.627,0.139,1.229,0.408,1.768
	c0.27,0.538,0.592,1.046,0.952,1.496c0.448,0.447,0.957,0.771,1.496,0.951c0.628,0.27,1.229,0.407,1.768,0.407l0,0
	c0.628,0,1.229-0.139,1.769-0.407c0.539-0.181,1.046-0.502,1.496-0.951c0.447-0.449,0.817-0.958,1.088-1.496
	c0.179-0.539,0.271-1.141,0.271-1.768c0-0.63-0.093-1.23-0.271-1.77c-0.271-0.539-0.64-1.047-1.088-1.496
	c-0.449-0.448-0.958-0.771-1.496-0.952C511.741,646.701,511.14,646.562,510.512,646.562L510.512,646.562"/>
<path d="M560.015,646.562c-0.628,0-1.229,0.139-1.768,0.407c-0.538,0.181-1.047,0.504-1.496,0.952s-0.771,0.957-0.952,1.496
	c-0.269,0.539-0.408,1.14-0.408,1.77c0,0.627,0.14,1.229,0.408,1.768c0.18,0.538,0.503,1.047,0.952,1.496
	c0.449,0.447,0.958,0.771,1.496,0.951c0.539,0.27,1.14,0.407,1.768,0.407l0,0c0.628,0,1.23-0.139,1.769-0.407
	c0.538-0.181,1.047-0.504,1.496-0.951c0.449-0.449,0.771-0.958,0.951-1.496c0.27-0.539,0.408-1.141,0.408-1.768
	c0-0.63-0.139-1.23-0.408-1.77c-0.18-0.539-0.502-1.048-0.951-1.496s-0.958-0.771-1.496-0.952
	C561.245,646.701,560.643,646.562,560.015,646.562L560.015,646.562"/>
<path d="M560.151,705.857c-0.628,0-1.23,0.093-1.77,0.271c-0.538,0.27-1.047,0.64-1.496,1.088c-0.448,0.449-0.771,0.957-0.952,1.496
	c-0.269,0.539-0.407,1.14-0.407,1.77c0,0.627,0.139,1.229,0.407,1.768c0.181,0.538,0.504,1.047,0.952,1.496
	c0.449,0.449,0.957,0.771,1.496,0.952c0.538,0.269,1.14,0.406,1.77,0.406l0,0c0.628,0,1.229-0.139,1.768-0.406
	c0.539-0.182,1.047-0.503,1.496-0.952s0.772-0.957,0.952-1.496c0.269-0.539,0.408-1.141,0.408-1.768c0-0.63-0.14-1.23-0.408-1.77
	c-0.18-0.539-0.503-1.047-0.952-1.496c-0.449-0.448-0.957-0.818-1.496-1.088C561.381,705.95,560.779,705.857,560.151,705.857
	L560.151,705.857"/>
<path d="M461.145,705.857c-0.629,0-1.229,0.093-1.769,0.271c-0.629,0.27-1.137,0.64-1.496,1.088
	c-0.449,0.449-0.817,0.957-1.088,1.496c-0.179,0.538-0.272,1.14-0.272,1.77c0,0.627,0.094,1.229,0.272,1.768
	c0.271,0.539,0.639,1.047,1.088,1.496c0.359,0.449,0.867,0.771,1.496,0.952c0.539,0.269,1.14,0.406,1.769,0.406l0,0
	c0.538,0,1.139-0.139,1.768-0.406c0.539-0.182,1.047-0.503,1.496-0.952c0.358-0.449,0.683-0.957,0.952-1.496
	c0.18-0.539,0.271-1.141,0.271-1.768c0-0.63-0.092-1.229-0.271-1.77c-0.27-0.539-0.594-1.047-0.952-1.496
	c-0.449-0.448-0.957-0.818-1.496-1.088C462.284,705.95,461.683,705.857,461.145,705.857L461.145,705.857"/>
</svg>
