<?xml version="1.0" encoding="utf-8"?>
<!-- Generator: Adobe Illustrator 16.0.0, SVG Export Plug-In . SVG Version: 6.00 Build 0)  -->
<!DOCTYPE svg PUBLIC "-//W3C//DTD SVG 1.1//EN" "http://www.w3.org/Graphics/SVG/1.1/DTD/svg11.dtd">
<svg version="1.1" id="Layer_1" xmlns="http://www.w3.org/2000/svg" xmlns:xlink="http://www.w3.org/1999/xlink" x="0px" y="0px"
	 width="135.164px" height="117.757px" viewBox="596.268 636.029 135.164 117.757"
	 enable-background="new 596.268 636.029 135.164 117.757" xml:space="preserve">
<path fill="none" stroke="#000000" stroke-width="0.118" stroke-linecap="round" stroke-linejoin="round" d="M638.895,749.514
	c0,0.271-0.046,0.545-0.137,0.815c0,0.271-0.045,0.545-0.136,0.814c-0.181,0.183-0.317,0.41-0.408,0.682
	c-0.181,0.271-0.362,0.499-0.544,0.68c-0.181,0.181-0.409,0.363-0.68,0.544c-0.182,0.092-0.409,0.183-0.68,0.271
	c-0.271,0.182-0.546,0.271-0.816,0.271c-0.271,0.091-0.544,0.136-0.816,0.136l0,0h-22.304c-0.451,0-0.908-0.045-1.36-0.136
	c-0.451-0.18-0.861-0.361-1.224-0.544c-0.451-0.18-0.817-0.453-1.088-0.815c-0.361-0.271-0.681-0.636-0.952-1.089l0,0
	c-1.72-2.534-3.265-5.17-4.623-7.887c-1.359-2.717-2.495-5.535-3.4-8.432c-0.996-2.898-1.769-5.896-2.312-8.978
	c-0.634-2.987-0.998-6.033-1.088-9.11l0,0v-74.937c0-0.718,0.138-1.457,0.408-2.176c0.269-0.719,0.685-1.318,1.224-1.768
	c0.538-0.539,1.186-0.955,1.904-1.226c0.628-0.358,1.322-0.544,2.04-0.544l0,0h123.758c0.808,0,1.548,0.186,2.176,0.544
	c0.719,0.271,1.365,0.687,1.904,1.226c0.539,0.448,0.955,1.049,1.224,1.768c0.271,0.719,0.408,1.458,0.408,2.176l0,0v74.937
	c-0.182,3.077-0.545,6.123-1.088,9.11c-0.543,3.08-1.316,6.078-2.312,8.978c-0.904,2.896-2.042,5.715-3.399,8.432
	c-1.358,2.717-2.903,5.353-4.624,7.887l0,0c-0.271,0.453-0.592,0.817-0.952,1.089c-0.361,0.362-0.728,0.637-1.088,0.815
	c-0.451,0.183-0.908,0.364-1.36,0.544c-0.451,0.091-0.908,0.136-1.359,0.136l0,0h-22.169c-0.271,0-0.544-0.045-0.815-0.136
	c-0.271,0-0.544-0.091-0.816-0.271c-0.271-0.09-0.499-0.181-0.68-0.271c-0.271-0.181-0.499-0.363-0.68-0.544
	s-0.363-0.407-0.543-0.68c-0.182-0.271-0.318-0.499-0.408-0.682c-0.092-0.271-0.183-0.543-0.272-0.814c0-0.271,0-0.544,0-0.815l0,0
	v-3.265c0-0.271,0.045-0.544,0.136-0.815c0-0.271,0.092-0.591,0.272-0.953c0.09-0.271,0.228-0.497,0.408-0.68
	c0.18-0.271,0.362-0.499,0.543-0.679l0,0c2.976-2.705,5.543-5.822,7.616-9.248c2.074-3.427,3.633-7.14,4.624-11.017
	c0.901-3.878,1.269-7.864,1.088-11.832c-0.271-3.968-1.142-7.908-2.584-11.695c-1.442-3.697-3.413-7.18-5.849-10.336
	c-2.434-3.156-5.366-5.906-8.703-8.16c-3.245-2.344-6.866-4.132-10.743-5.305c-3.787-1.172-7.775-1.769-11.832-1.769
	c-3.968,0-7.909,0.597-11.696,1.769c-3.877,1.173-7.498,2.961-10.744,5.305c-3.336,2.254-6.269,5.004-8.704,8.16
	c-2.523,3.156-4.495,6.639-5.848,10.336c-1.442,3.787-2.313,7.729-2.584,11.695c-0.271,3.968,0.096,7.955,1.088,11.832
	s2.505,7.59,4.488,11.017c2.073,3.426,4.641,6.543,7.616,9.248l0,0c0.271,0.18,0.498,0.407,0.68,0.679
	c0.181,0.183,0.318,0.409,0.408,0.68c0.181,0.362,0.271,0.683,0.271,0.953c0.091,0.271,0.136,0.545,0.136,0.815l0,0v3.265"/>
<path d="M614.414,708.85c-0.628,0-1.229,0.14-1.768,0.408c-0.629,0.18-1.137,0.503-1.496,0.952
	c-0.448,0.449-0.818,0.957-1.088,1.496c-0.18,0.538-0.272,1.14-0.272,1.769s0.093,1.229,0.272,1.769
	c0.27,0.539,0.639,1.047,1.088,1.496c0.358,0.448,0.867,0.771,1.496,0.95c0.539,0.271,1.14,0.408,1.768,0.408l0,0
	c0.539,0,1.14-0.139,1.768-0.408c0.539-0.18,1.049-0.502,1.496-0.95c0.359-0.449,0.684-0.959,0.952-1.496
	c0.271-0.539,0.408-1.142,0.408-1.769c0-0.629-0.138-1.229-0.408-1.769c-0.269-0.539-0.593-1.047-0.952-1.496
	c-0.447-0.449-0.957-0.771-1.496-0.952C615.554,708.988,614.953,708.85,614.414,708.85L614.414,708.85"/>
<path d="M614.414,658.802c0.539,0,1.14-0.092,1.768-0.271c0.539-0.27,1.047-0.638,1.496-1.088c0.359-0.447,0.684-0.957,0.952-1.494
	c0.271-0.539,0.408-1.142,0.408-1.769c0-0.539-0.138-1.141-0.408-1.769c-0.269-0.539-0.592-1.048-0.952-1.496
	c-0.447-0.358-0.957-0.683-1.496-0.952c-0.628-0.27-1.229-0.408-1.768-0.408l0,0c-0.628,0-1.229,0.14-1.768,0.408
	c-0.629,0.271-1.138,0.594-1.496,0.952c-0.449,0.448-0.818,0.957-1.088,1.496c-0.18,0.628-0.272,1.229-0.272,1.769
	c0,0.627,0.093,1.229,0.272,1.769c0.27,0.537,0.64,1.047,1.088,1.494c0.359,0.45,0.867,0.818,1.496,1.088
	C613.186,658.71,613.786,658.802,614.414,658.802L614.414,658.802"/>
<path d="M663.782,658.802c0.628,0,1.229-0.092,1.768-0.271c0.628-0.27,1.138-0.64,1.496-1.088c0.449-0.448,0.818-0.957,1.088-1.494
	c0.179-0.539,0.272-1.142,0.272-1.769c0-0.539-0.094-1.141-0.272-1.769c-0.269-0.539-0.64-1.048-1.088-1.496
	c-0.358-0.358-0.868-0.683-1.496-0.952c-0.539-0.27-1.14-0.408-1.768-0.408l0,0c-0.539,0-1.14,0.14-1.769,0.408
	c-0.539,0.271-1.047,0.594-1.496,0.952c-0.358,0.448-0.683,0.957-0.951,1.496c-0.181,0.628-0.272,1.229-0.272,1.769
	c0,0.627,0.092,1.229,0.272,1.769c0.269,0.537,0.593,1.046,0.951,1.494c0.449,0.448,0.957,0.818,1.496,1.088
	C662.643,658.71,663.243,658.802,663.782,658.802L663.782,658.802"/>
<path d="M713.285,649.555c-0.628,0-1.229,0.14-1.769,0.408c-0.538,0.27-1.047,0.592-1.495,0.952
	c-0.449,0.448-0.772,0.957-0.952,1.496c-0.271,0.628-0.408,1.229-0.408,1.769c0,0.627,0.139,1.229,0.408,1.769
	c0.18,0.537,0.503,1.046,0.952,1.494c0.448,0.45,0.957,0.818,1.495,1.088c0.539,0.181,1.141,0.271,1.769,0.271l0,0
	c0.629,0,1.229-0.092,1.768-0.271c0.539-0.27,1.047-0.64,1.496-1.088c0.449-0.447,0.773-0.957,0.952-1.494
	c0.271-0.539,0.408-1.142,0.408-1.769c0-0.539-0.14-1.141-0.408-1.769c-0.179-0.539-0.503-1.048-0.952-1.496
	c-0.449-0.358-0.957-0.683-1.496-0.952S713.914,649.555,713.285,649.555L713.285,649.555"/>
<path d="M713.421,708.85c-0.628,0-1.229,0.14-1.768,0.408c-0.539,0.18-1.048,0.503-1.496,0.952
	c-0.449,0.449-0.772,0.957-0.952,1.496c-0.27,0.538-0.408,1.14-0.408,1.769c0,0.627,0.139,1.229,0.408,1.769
	c0.18,0.539,0.503,1.047,0.952,1.496c0.448,0.448,0.957,0.771,1.496,0.95c0.539,0.271,1.14,0.408,1.768,0.408l0,0
	c0.628,0,1.23-0.139,1.769-0.408c0.539-0.18,1.047-0.502,1.496-0.95c0.448-0.449,0.772-0.957,0.951-1.496
	c0.27-0.539,0.408-1.142,0.408-1.769c0-0.629-0.139-1.229-0.408-1.769c-0.179-0.539-0.503-1.047-0.951-1.496
	c-0.449-0.449-0.957-0.771-1.496-0.952C714.651,708.988,714.049,708.85,713.421,708.85L713.421,708.85"/>
</svg>
