<?xml version="1.0" encoding="utf-8"?>
<!-- Generator: Adobe Illustrator 16.0.0, SVG Export Plug-In . SVG Version: 6.00 Build 0)  -->
<!DOCTYPE svg PUBLIC "-//W3C//DTD SVG 1.1//EN" "http://www.w3.org/Graphics/SVG/1.1/DTD/svg11.dtd">
<svg version="1.1" id="Layer_1" xmlns="http://www.w3.org/2000/svg" xmlns:xlink="http://www.w3.org/1999/xlink" x="0px" y="0px"
	 width="314.274px" height="183.716px" viewBox="957.888 326.499 314.274 183.716"
	 enable-background="new 957.888 326.499 314.274 183.716" xml:space="preserve">
<path fill="none" stroke="#000000" stroke-width="0.118" stroke-linecap="round" stroke-linejoin="round" d="M1191.456,418.425
	c0,6.197-5.024,11.22-11.22,11.22c-6.197,0-11.221-5.022-11.221-11.22c0-6.196,5.022-11.22,11.221-11.22
	C1186.432,407.205,1191.456,412.229,1191.456,418.425"/>
<path d="M1184.248,338.73c0,2.216-1.796,4.012-4.012,4.012c-2.217,0-4.012-1.796-4.012-4.012c0-2.217,1.795-4.013,4.012-4.013
	C1182.452,334.718,1184.248,336.514,1184.248,338.73"/>
<path d="M1184.248,498.052c0,2.18-1.796,3.944-4.012,3.944c-2.217,0-4.012-1.766-4.012-3.944c0-2.178,1.795-3.943,4.012-3.943
	C1182.452,494.107,1184.248,495.874,1184.248,498.052"/>
<path d="M1263.807,418.357c0,2.178-1.766,3.943-3.942,3.943s-3.944-1.766-3.944-3.943c0-2.179,1.768-3.944,3.944-3.944
	S1263.807,416.179,1263.807,418.357"/>
<path d="M980.658,345.326c0,2.178-1.796,3.943-4.012,3.943c-2.218,0-4.014-1.766-4.014-3.943s1.796-3.944,4.014-3.944
	C978.862,341.382,980.658,343.148,980.658,345.326"/>
<path d="M980.658,491.456c0,2.216-1.796,4.012-4.012,4.012c-2.218,0-4.014-1.796-4.014-4.012c0-2.215,1.796-4.013,4.014-4.013
	C978.862,487.443,980.658,489.241,980.658,491.456"/>
<path fill="none" stroke="#000000" stroke-width="0.118" stroke-linecap="round" stroke-linejoin="round" d="M1180.305,326.558
	c12.035,0,23.948,2.401,35.086,7.072c11.13,4.577,21.26,11.33,29.784,19.856c8.533,8.532,15.275,18.645,19.856,29.783
	c4.671,11.139,7.072,23.052,7.072,35.088c0,12.115-2.405,24.095-7.072,35.224c-4.581,11.138-11.323,21.25-19.856,29.784
	c-8.524,8.524-18.654,15.276-29.784,19.854c-11.127,4.576-23.061,6.937-35.086,6.937l0,0H966.922c-0.633,0-1.225-0.045-1.768-0.138
	c-0.542-0.09-1.09-0.271-1.633-0.543c-0.541-0.182-1.089-0.454-1.632-0.815c-0.452-0.271-0.907-0.635-1.36-1.088
	c-0.36-0.452-0.726-0.907-1.087-1.36c-0.361-0.452-0.637-0.953-0.816-1.496c-0.271-0.633-0.453-1.225-0.544-1.769
	c-0.09-0.541-0.136-1.133-0.136-1.769l0,0V335.67c0-1.256,0.23-2.459,0.68-3.536s1.097-2.048,1.903-2.855
	c0.81-0.898,1.826-1.591,2.992-2.04c1.078-0.449,2.232-0.681,3.399-0.681l0,0H1180.305"/>
</svg>
