<?xml version="1.0" encoding="utf-8"?>
<!-- Generator: Adobe Illustrator 16.0.0, SVG Export Plug-In . SVG Version: 6.00 Build 0)  -->
<!DOCTYPE svg PUBLIC "-//W3C//DTD SVG 1.1//EN" "http://www.w3.org/Graphics/SVG/1.1/DTD/svg11.dtd">
<svg version="1.1" id="Layer_1" xmlns="http://www.w3.org/2000/svg" xmlns:xlink="http://www.w3.org/1999/xlink" x="0px" y="0px"
	 width="1728px" height="864px" viewBox="0 0 1728 864" enable-background="new 0 0 1728 864" xml:space="preserve">
<path fill="none" stroke="#000000" stroke-width="0.118" stroke-linecap="round" stroke-linejoin="round" d="M1191.456,418.425
	c0,6.197-5.024,11.22-11.22,11.22c-6.197,0-11.221-5.022-11.221-11.22c0-6.196,5.022-11.22,11.221-11.22
	C1186.432,407.205,1191.456,412.229,1191.456,418.425"/>
<path fill="none" stroke="#000000" stroke-width="0.118" stroke-linecap="round" stroke-linejoin="round" d="M1184.248,338.73
	c0,2.216-1.796,4.012-4.012,4.012c-2.217,0-4.012-1.796-4.012-4.012c0-2.217,1.795-4.013,4.012-4.013
	C1182.452,334.718,1184.248,336.514,1184.248,338.73"/>
<path fill="none" stroke="#000000" stroke-width="0.118" stroke-linecap="round" stroke-linejoin="round" d="M1184.248,498.052
	c0,2.18-1.796,3.944-4.012,3.944c-2.217,0-4.012-1.766-4.012-3.944c0-2.178,1.795-3.943,4.012-3.943
	C1182.452,494.107,1184.248,495.874,1184.248,498.052"/>
<path fill="none" stroke="#000000" stroke-width="0.118" stroke-linecap="round" stroke-linejoin="round" d="M1263.807,418.357
	c0,2.178-1.766,3.943-3.942,3.943s-3.944-1.766-3.944-3.943c0-2.179,1.768-3.944,3.944-3.944S1263.807,416.179,1263.807,418.357"/>
<path fill="none" stroke="#000000" stroke-width="0.118" stroke-linecap="round" stroke-linejoin="round" d="M980.658,345.326
	c0,2.178-1.796,3.943-4.012,3.943c-2.218,0-4.014-1.766-4.014-3.943s1.796-3.944,4.014-3.944
	C978.862,341.382,980.658,343.148,980.658,345.326"/>
<path fill="none" stroke="#000000" stroke-width="0.118" stroke-linecap="round" stroke-linejoin="round" d="M980.658,491.456
	c0,2.216-1.796,4.012-4.012,4.012c-2.218,0-4.014-1.796-4.014-4.012c0-2.215,1.796-4.013,4.014-4.013
	C978.862,487.443,980.658,489.241,980.658,491.456"/>
<path fill="none" stroke="#000000" stroke-width="0.118" stroke-linecap="round" stroke-linejoin="round" d="M1180.305,326.558
	c12.035,0,23.948,2.401,35.086,7.072c11.13,4.577,21.26,11.33,29.784,19.856c8.533,8.532,15.275,18.645,19.856,29.783
	c4.671,11.139,7.072,23.052,7.072,35.088c0,12.115-2.405,24.095-7.072,35.224c-4.581,11.138-11.323,21.25-19.856,29.784
	c-8.524,8.524-18.654,15.276-29.784,19.854c-11.127,4.576-23.061,6.937-35.086,6.937l0,0H966.922c-0.633,0-1.225-0.045-1.768-0.138
	c-0.542-0.09-1.09-0.271-1.633-0.543c-0.541-0.182-1.089-0.454-1.632-0.815c-0.452-0.271-0.907-0.635-1.36-1.088
	c-0.36-0.452-0.726-0.907-1.087-1.36c-0.361-0.452-0.637-0.953-0.816-1.496c-0.271-0.633-0.453-1.225-0.544-1.769
	c-0.09-0.541-0.136-1.133-0.136-1.769l0,0V335.67c0-1.256,0.23-2.459,0.68-3.536s1.097-2.048,1.903-2.855
	c0.81-0.898,1.826-1.591,2.992-2.04c1.078-0.449,2.232-0.681,3.399-0.681l0,0H1180.305"/>
<path fill="none" stroke="#000000" stroke-width="0.118" stroke-linecap="round" stroke-linejoin="round" d="M1132.432,640.715
	c0,2.553-2.068,4.624-4.623,4.624c-2.554,0-4.625-2.071-4.625-4.624c0-2.554,2.071-4.624,4.625-4.624
	C1130.363,636.091,1132.432,638.161,1132.432,640.715"/>
<path fill="none" stroke="#000000" stroke-width="0.118" stroke-linecap="round" stroke-linejoin="round" d="M1132.432,739.723
	c0,2.554-2.068,4.623-4.623,4.623c-2.554,0-4.625-2.069-4.625-4.623c0-2.555,2.071-4.625,4.625-4.625
	C1130.363,735.098,1132.432,737.168,1132.432,739.723"/>
<path fill="none" stroke="#000000" stroke-width="0.118" stroke-linecap="round" stroke-linejoin="round" d="M1191.592,739.586
	c0,2.553-2.069,4.623-4.624,4.623c-2.554,0-4.624-2.07-4.624-4.623c0-2.554,2.07-4.624,4.624-4.624
	C1189.522,734.962,1191.592,737.032,1191.592,739.586"/>
<path fill="none" stroke="#000000" stroke-width="0.118" stroke-linecap="round" stroke-linejoin="round" d="M1191.592,690.15
	c0,2.516-2.069,4.556-4.624,4.556c-2.554,0-4.624-2.04-4.624-4.556c0-2.518,2.07-4.558,4.624-4.558
	C1189.522,685.593,1191.592,687.634,1191.592,690.15"/>
<path fill="none" stroke="#000000" stroke-width="0.118" stroke-linecap="round" stroke-linejoin="round" d="M1191.592,640.715
	c0,2.553-2.069,4.624-4.624,4.624c-2.554,0-4.624-2.071-4.624-4.624c0-2.554,2.07-4.624,4.624-4.624
	C1189.522,636.091,1191.592,638.161,1191.592,640.715"/>
<path fill="none" stroke="#000000" stroke-width="0.118" stroke-linecap="round" stroke-linejoin="round" d="M1154.464,610.523
	c0,2.178-1.796,3.942-4.012,3.942s-4.013-1.766-4.013-3.942c0-2.178,1.797-3.944,4.013-3.944S1154.464,608.346,1154.464,610.523"/>
<path fill="none" stroke="#000000" stroke-width="0.118" stroke-linecap="round" stroke-linejoin="round" d="M1154.464,769.846
	c0,2.215-1.796,4.013-4.012,4.013s-4.013-1.798-4.013-4.013c0-2.217,1.797-4.013,4.013-4.013S1154.464,767.629,1154.464,769.846"/>
<path fill="none" stroke="#000000" stroke-width="0.118" stroke-linecap="round" stroke-linejoin="round" d="M1234.023,690.15
	c0,2.216-1.768,4.012-3.944,4.012s-3.944-1.796-3.944-4.012c0-2.218,1.768-4.013,3.944-4.013S1234.023,687.934,1234.023,690.15"/>
<path fill="none" stroke="#000000" stroke-width="0.118" stroke-linecap="round" stroke-linejoin="round" d="M950.738,617.051
	c0,2.178-1.767,3.944-3.943,3.944c-2.179,0-3.943-1.768-3.943-3.944s1.766-3.942,3.943-3.942
	C948.973,613.107,950.738,614.873,950.738,617.051"/>
<path fill="none" stroke="#000000" stroke-width="0.118" stroke-linecap="round" stroke-linejoin="round" d="M950.738,763.249
	c0,2.178-1.767,3.944-3.943,3.944c-2.179,0-3.943-1.768-3.943-3.944c0-2.179,1.766-3.944,3.943-3.944
	S950.738,761.07,950.738,763.249"/>
<path fill="none" stroke="#000000" stroke-width="0.118" stroke-linecap="round" stroke-linejoin="round" d="M1150.384,598.419
	c12.116,0,24.095,2.358,35.226,6.938c11.128,4.575,21.258,11.329,29.781,19.854c8.526,8.525,15.279,18.655,19.856,29.784
	c4.667,11.128,7.072,23.105,7.072,35.223c0,12.026-2.405,23.959-7.072,35.089c-4.577,11.127-11.33,21.256-19.856,29.782
	c-8.523,8.526-18.653,15.279-29.781,19.856c-11.131,4.666-23.108,7.071-35.226,7.071l0,0H937.139c-1.166,0-2.322-0.23-3.398-0.681
	c-1.167-0.448-2.186-1.142-2.992-2.04c-0.809-0.809-1.456-1.779-1.903-2.854c-0.448-1.078-0.681-2.278-0.681-3.537l0,0v-165.51
	c0-1.166,0.23-2.369,0.681-3.535c0.448-1.078,1.095-2.047,1.903-2.856c0.808-0.808,1.825-1.455,2.992-1.903
	c1.078-0.448,2.23-0.681,3.398-0.681l0,0H1150.384"/>
<path fill="none" stroke="#000000" stroke-width="0.118" stroke-linecap="round" stroke-linejoin="round" d="M1098.161,663.834
	c2.615-2.975,5.685-5.542,9.112-7.615c3.426-2.074,7.138-3.633,11.016-4.623c3.877-0.901,7.91-1.27,11.967-1.089
	c3.969,0.271,7.863,1.143,11.562,2.584c3.787,1.442,7.314,3.413,10.472,5.847c3.156,2.437,5.906,5.369,8.16,8.705
	c2.254,3.246,3.996,6.866,5.168,10.743c1.262,3.787,1.903,7.775,1.903,11.832c0,3.968-0.643,7.909-1.903,11.696
	c-1.172,3.877-2.914,7.498-5.168,10.744c-2.254,3.336-5.004,6.269-8.16,8.703c-3.156,2.523-6.685,4.496-10.472,5.849
	c-3.697,1.442-7.593,2.313-11.562,2.584c-4.057,0.271-8.09-0.097-11.967-1.088c-3.878-0.992-7.59-2.505-11.016-4.488
	c-3.429-2.073-6.497-4.687-9.112-7.752l0,0c-0.271-0.181-0.499-0.362-0.681-0.544c-0.271-0.181-0.546-0.318-0.815-0.408
	c-0.271-0.181-0.545-0.271-0.815-0.271c-0.271-0.092-0.592-0.138-0.952-0.138l0,0h-12.104c-0.452,0-0.861-0.045-1.224-0.135
	c-0.362-0.092-0.682-0.183-0.952-0.271c-0.362-0.182-0.728-0.363-1.088-0.544c-0.271-0.183-0.545-0.409-0.816-0.681
	c-0.271-0.271-0.499-0.591-0.68-0.953c-0.183-0.271-0.363-0.59-0.544-0.95c-0.182-0.362-0.272-0.728-0.272-1.089
	c-0.09-0.361-0.136-0.727-0.136-1.088l0,0v-38.487c0-0.72,0.139-1.457,0.408-2.177c0.269-0.719,0.685-1.364,1.224-1.903
	c0.539-0.449,1.187-0.864,1.904-1.226c0.629-0.269,1.368-0.407,2.176-0.407l0,0h12.104c0.36,0,0.682-0.046,0.952-0.136
	c0.271,0,0.546-0.092,0.815-0.271c0.271-0.091,0.545-0.229,0.815-0.408C1097.662,664.197,1097.891,664.016,1098.161,663.834
	L1098.161,663.834"/>
<path fill="none" stroke="#000000" stroke-width="0.118" stroke-linecap="round" stroke-linejoin="round" d="M1008.674,199.536
	h-14.145c-0.719,0-1.456-0.139-2.176-0.408c-0.63-0.27-1.229-0.685-1.769-1.224c-0.539-0.539-0.954-1.14-1.224-1.769
	c-0.27-0.718-0.408-1.458-0.408-2.176l0,0v-38.624c0-0.718,0.14-1.458,0.408-2.176c0.27-0.628,0.685-1.229,1.224-1.768
	c0.538-0.538,1.141-0.954,1.769-1.224c0.719-0.269,1.459-0.408,2.176-0.408l0,0h14.145c1.898-2.349,4.042-4.448,6.394-6.256
	c2.259-1.807,4.768-3.358,7.479-4.623c2.62-1.266,5.404-2.269,8.296-2.992c2.892-0.633,5.812-0.952,8.703-0.952l0,0h59.296
	c5.205,0,10.386,1.017,15.232,2.992c4.756,2.064,9.104,5.024,12.782,8.703c3.681,3.68,6.641,8.028,8.705,12.784
	c1.975,4.847,2.991,10.027,2.991,15.232s-1.018,10.386-2.991,15.232c-2.066,4.761-5.021,9.101-8.705,12.784
	c-3.679,3.679-8.026,6.64-12.782,8.704c-4.847,1.974-10.027,2.992-15.232,2.992l0,0h-59.296c-2.891,0-5.812-0.32-8.703-0.952
	c-2.892-0.723-5.676-1.729-8.296-2.992c-2.712-1.266-5.221-2.817-7.479-4.624C1012.716,203.984,1010.572,201.886,1008.674,199.536
	L1008.674,199.536"/>
<path fill="none" stroke="#000000" stroke-width="0.118" stroke-linecap="round" stroke-linejoin="round" d="M1039.545,229.183
	c-0.628,0-1.229-0.138-1.768-0.408c-0.629-0.179-1.183-0.502-1.633-0.952c-0.448-0.449-0.817-1.003-1.089-1.632
	c-0.269-0.628-0.405-1.275-0.405-1.903c0-0.629,0.138-1.276,0.405-1.904c0.271-0.539,0.641-1.047,1.089-1.496
	c0.448-0.449,1.004-0.819,1.633-1.088c0.539-0.27,1.14-0.408,1.768-0.408l0,0h118.591c0.63,0,1.229,0.138,1.77,0.408
	c0.628,0.269,1.183,0.639,1.632,1.088c0.449,0.449,0.818,0.957,1.088,1.496c0.27,0.628,0.408,1.275,0.408,1.904
	c0,0.628-0.141,1.275-0.408,1.903c-0.27,0.629-0.639,1.183-1.088,1.632c-0.449,0.45-1.003,0.772-1.632,0.952
	c-0.538,0.27-1.142,0.408-1.77,0.408l0,0H1039.545"/>
<path fill="none" stroke="#000000" stroke-width="0.118" stroke-linecap="round" stroke-linejoin="round" d="M1039.545,130.041
	c-0.628,0-1.229-0.139-1.768-0.408c-0.629-0.27-1.185-0.64-1.633-1.088c-0.447-0.449-0.817-1.004-1.089-1.632
	c-0.269-0.539-0.405-1.14-0.405-1.768c0-0.629,0.138-1.276,0.405-1.904c0.271-0.629,0.641-1.183,1.089-1.632
	c0.448-0.449,1.004-0.773,1.633-0.952c0.539-0.271,1.14-0.408,1.768-0.408l0,0h118.591c0.63,0,1.229,0.138,1.77,0.408
	c0.628,0.179,1.183,0.503,1.632,0.952c0.449,0.449,0.818,1.003,1.088,1.632c0.27,0.628,0.408,1.275,0.408,1.904
	c0,0.628-0.141,1.229-0.408,1.768c-0.27,0.628-0.639,1.183-1.088,1.632c-0.449,0.448-1.004,0.818-1.632,1.088
	c-0.538,0.269-1.142,0.408-1.77,0.408l0,0H1039.545"/>
<path fill="none" stroke="#000000" stroke-width="0.118" stroke-linecap="round" stroke-linejoin="round" d="M1204.24,174.648
	c0,6.234-5.056,11.288-11.288,11.288c-6.234,0-11.288-5.054-11.288-11.288s5.054-11.288,11.288-11.288
	C1199.186,163.36,1204.24,168.414,1204.24,174.648"/>
<path fill="none" stroke="#000000" stroke-width="0.118" stroke-linecap="round" stroke-linejoin="round" d="M1196.896,94.953
	c0,2.178-1.768,3.944-3.944,3.944c-2.179,0-3.944-1.766-3.944-3.944c0-2.178,1.767-3.944,3.944-3.944
	S1196.896,92.775,1196.896,94.953"/>
<path fill="none" stroke="#000000" stroke-width="0.118" stroke-linecap="round" stroke-linejoin="round" d="M1196.896,254.343
	c0,2.178-1.768,3.944-3.944,3.944c-2.179,0-3.944-1.766-3.944-3.944c0-2.178,1.767-3.944,3.944-3.944
	S1196.896,252.165,1196.896,254.343"/>
<path fill="none" stroke="#000000" stroke-width="0.118" stroke-linecap="round" stroke-linejoin="round" d="M1276.591,174.648
	c0,2.178-1.766,3.944-3.942,3.944c-2.18,0-3.944-1.766-3.944-3.944s1.766-3.944,3.944-3.944
	C1274.825,170.704,1276.591,172.47,1276.591,174.648"/>
<path fill="none" stroke="#000000" stroke-width="0.118" stroke-linecap="round" stroke-linejoin="round" d="M993.307,101.617
	c0,2.178-1.767,3.944-3.943,3.944c-2.18,0-3.944-1.766-3.944-3.944c0-2.178,1.767-3.944,3.944-3.944
	C991.54,97.673,993.307,99.439,993.307,101.617"/>
<path fill="none" stroke="#000000" stroke-width="0.118" stroke-linecap="round" stroke-linejoin="round" d="M993.307,247.679
	c0,2.178-1.767,3.944-3.943,3.944c-2.18,0-3.944-1.766-3.944-3.944c0-2.178,1.767-3.944,3.944-3.944
	C991.54,243.735,993.307,245.501,993.307,247.679"/>
<path fill="none" stroke="#000000" stroke-width="0.118" stroke-linecap="round" stroke-linejoin="round" d="M1192.952,82.849
	c12.026,0,23.959,2.359,35.087,6.937c11.129,4.667,21.258,11.466,29.784,19.992c8.526,8.526,15.278,18.655,19.855,29.783
	c4.666,11.129,7.071,23.062,7.071,35.088s-2.405,23.959-7.071,35.088c-4.582,11.138-11.322,21.25-19.855,29.783
	c-8.526,8.526-18.655,15.325-29.784,19.992c-11.128,4.577-23.061,6.936-35.087,6.936l0,0H979.57c-0.543,0-1.135-0.046-1.769-0.136
	c-0.544-0.181-1.09-0.363-1.633-0.544c-0.543-0.271-1.089-0.545-1.632-0.816c-0.452-0.362-0.908-0.726-1.36-1.088
	c-0.36-0.452-0.726-0.908-1.088-1.36c-0.271-0.543-0.544-1.089-0.815-1.632c-0.181-0.543-0.362-1.089-0.543-1.632
	c-0.091-0.633-0.138-1.225-0.138-1.768l0,0V91.825c0-1.168,0.231-2.322,0.681-3.4c0.448-1.078,1.097-2.094,1.903-2.992
	c0.898-0.808,1.916-1.455,2.992-1.904c1.078-0.449,2.231-0.681,3.4-0.681l0,0L1192.952,82.849"/>
<path fill="none" stroke="#000000" stroke-width="0.118" stroke-linecap="round" stroke-linejoin="round" d="M443.056,638.811
	c0-0.719,0.14-1.457,0.408-2.176c0.271-0.718,0.687-1.365,1.224-1.904c0.539-0.447,1.141-0.863,1.769-1.224
	c0.719-0.271,1.458-0.407,2.176-0.407l0,0h123.759c0.719,0,1.458,0.14,2.177,0.407c0.718,0.359,1.364,0.775,1.903,1.224
	c0.538,0.539,0.955,1.188,1.225,1.904c0.269,0.719,0.408,1.458,0.408,2.176l0,0v74.937c-0.182,3.981-0.728,7.94-1.633,11.832
	c-0.904,3.891-2.134,7.713-3.672,11.424c-1.629,3.619-3.54,7.123-5.712,10.471c-2.172,3.351-4.629,6.489-7.344,9.386l0,0
	c-0.271,0.271-0.59,0.545-0.952,0.814c-0.271,0.182-0.59,0.363-0.952,0.544c-0.362,0.092-0.726,0.183-1.088,0.271
	c-0.362,0.092-0.726,0.137-1.088,0.137l0,0h-19.992c-0.271,0-0.544,0-0.815,0c-0.271-0.09-0.545-0.182-0.816-0.271
	c-0.271-0.091-0.544-0.229-0.816-0.408c-0.181-0.183-0.362-0.363-0.544-0.545c-0.271-0.181-0.453-0.407-0.544-0.681
	c-0.181-0.181-0.315-0.407-0.408-0.68c-0.09-0.271-0.181-0.544-0.271-0.816c-0.09-0.271-0.136-0.543-0.136-0.814l0,0v-7.888
	c0-0.361,0.046-0.683,0.136-0.953c0.091-0.36,0.228-0.681,0.408-0.951c0.181-0.361,0.363-0.682,0.544-0.952
	c0.271-0.271,0.545-0.499,0.815-0.679l0,0c3.425-2.345,6.453-5.235,8.977-8.568c2.522-3.424,4.497-7.188,5.848-11.152
	c1.353-3.965,2.086-8.095,2.176-12.239c0.091-4.234-0.506-8.457-1.768-12.513c-1.261-3.965-3.143-7.728-5.576-11.151
	c-2.433-3.424-5.416-6.406-8.84-8.84c-3.424-2.522-7.188-4.496-11.152-5.849c-3.964-1.261-8.141-1.904-12.375-1.904
	c-4.145,0-8.321,0.645-12.376,1.904c-3.965,1.353-7.682,3.325-11.016,5.849c-3.424,2.434-6.407,5.416-8.84,8.84
	c-2.434,3.425-4.315,7.188-5.576,11.151c-1.261,4.056-1.858,8.277-1.768,12.513c0,4.146,0.688,8.274,2.04,12.239
	c1.352,3.966,3.324,7.729,5.848,11.152c2.522,3.333,5.598,6.225,9.112,8.568l0,0c0.271,0.18,0.499,0.408,0.68,0.679
	c0.271,0.271,0.499,0.591,0.68,0.952c0.09,0.271,0.181,0.591,0.272,0.951c0.09,0.271,0.136,0.592,0.136,0.953l0,0v7.888
	c0,0.271-0.046,0.545-0.136,0.814c0,0.272-0.046,0.546-0.137,0.816s-0.227,0.499-0.407,0.68c-0.182,0.272-0.363,0.5-0.544,0.681
	c-0.182,0.182-0.409,0.362-0.681,0.545c-0.181,0.181-0.409,0.317-0.68,0.408c-0.272,0.09-0.545,0.182-0.816,0.271
	c-0.271,0-0.545,0-0.815,0l0,0h-19.992c-0.362,0-0.726-0.045-1.088-0.137c-0.452-0.091-0.817-0.181-1.088-0.271
	c-0.362-0.181-0.727-0.362-1.088-0.544c-0.271-0.271-0.545-0.544-0.816-0.814l0,0c-2.805-2.896-5.308-6.035-7.48-9.386
	c-2.172-3.348-4.036-6.852-5.575-10.471c-1.538-3.711-2.768-7.533-3.672-11.424c-0.905-3.892-1.451-7.851-1.633-11.832l0,0V638.811"
	/>
<path fill="none" stroke="#000000" stroke-width="0.118" stroke-linecap="round" stroke-linejoin="round" d="M461.145,655.811
	c0.538,0,1.14-0.139,1.768-0.407c0.539-0.181,1.047-0.502,1.496-0.951c0.358-0.449,0.683-0.958,0.952-1.496
	c0.18-0.539,0.271-1.141,0.271-1.769c0-0.629-0.092-1.229-0.271-1.769c-0.27-0.539-0.594-1.047-0.952-1.496
	c-0.449-0.448-0.957-0.771-1.496-0.952c-0.629-0.27-1.229-0.408-1.768-0.408l0,0c-0.629,0-1.229,0.14-1.769,0.408
	c-0.628,0.181-1.137,0.504-1.496,0.952c-0.449,0.449-0.817,0.957-1.088,1.496c-0.179,0.539-0.272,1.14-0.272,1.769
	c0,0.628,0.094,1.229,0.272,1.769c0.269,0.538,0.639,1.047,1.088,1.496c0.359,0.449,0.867,0.771,1.496,0.951
	C459.915,655.672,460.515,655.811,461.145,655.811L461.145,655.811"/>
<path fill="none" stroke="#000000" stroke-width="0.118" stroke-linecap="round" stroke-linejoin="round" d="M510.512,646.562
	c-0.539,0-1.14,0.139-1.768,0.407c-0.539,0.181-1.047,0.502-1.496,0.952c-0.359,0.448-0.684,0.957-0.952,1.496
	c-0.27,0.539-0.408,1.14-0.408,1.77c0,0.627,0.139,1.229,0.408,1.768c0.27,0.538,0.592,1.046,0.952,1.496
	c0.448,0.447,0.957,0.771,1.496,0.951c0.628,0.27,1.229,0.407,1.768,0.407l0,0c0.628,0,1.229-0.139,1.769-0.407
	c0.539-0.181,1.046-0.502,1.496-0.951c0.447-0.449,0.817-0.958,1.088-1.496c0.179-0.539,0.271-1.141,0.271-1.768
	c0-0.63-0.093-1.23-0.271-1.77c-0.271-0.539-0.64-1.047-1.088-1.496c-0.449-0.448-0.958-0.771-1.496-0.952
	C511.741,646.701,511.14,646.562,510.512,646.562L510.512,646.562"/>
<path fill="none" stroke="#000000" stroke-width="0.118" stroke-linecap="round" stroke-linejoin="round" d="M560.015,646.562
	c-0.628,0-1.229,0.139-1.768,0.407c-0.538,0.181-1.047,0.504-1.496,0.952s-0.771,0.957-0.952,1.496
	c-0.269,0.539-0.408,1.14-0.408,1.77c0,0.627,0.14,1.229,0.408,1.768c0.18,0.538,0.503,1.047,0.952,1.496
	c0.449,0.447,0.958,0.771,1.496,0.951c0.539,0.27,1.14,0.407,1.768,0.407l0,0c0.628,0,1.23-0.139,1.769-0.407
	c0.538-0.181,1.047-0.504,1.496-0.951c0.449-0.449,0.771-0.958,0.951-1.496c0.27-0.539,0.408-1.141,0.408-1.768
	c0-0.63-0.139-1.23-0.408-1.77c-0.18-0.539-0.502-1.048-0.951-1.496s-0.958-0.771-1.496-0.952
	C561.245,646.701,560.643,646.562,560.015,646.562L560.015,646.562"/>
<path fill="none" stroke="#000000" stroke-width="0.118" stroke-linecap="round" stroke-linejoin="round" d="M560.151,705.857
	c-0.628,0-1.23,0.093-1.77,0.271c-0.538,0.27-1.047,0.64-1.496,1.088c-0.448,0.449-0.771,0.957-0.952,1.496
	c-0.269,0.539-0.407,1.14-0.407,1.77c0,0.627,0.139,1.229,0.407,1.768c0.181,0.538,0.504,1.047,0.952,1.496
	c0.449,0.449,0.957,0.771,1.496,0.952c0.538,0.269,1.14,0.406,1.77,0.406l0,0c0.628,0,1.229-0.139,1.768-0.406
	c0.539-0.182,1.047-0.503,1.496-0.952s0.772-0.957,0.952-1.496c0.269-0.539,0.408-1.141,0.408-1.768c0-0.63-0.14-1.23-0.408-1.77
	c-0.18-0.539-0.503-1.047-0.952-1.496c-0.449-0.448-0.957-0.818-1.496-1.088C561.381,705.95,560.779,705.857,560.151,705.857
	L560.151,705.857"/>
<path fill="none" stroke="#000000" stroke-width="0.118" stroke-linecap="round" stroke-linejoin="round" d="M461.145,705.857
	c-0.629,0-1.229,0.093-1.769,0.271c-0.629,0.27-1.137,0.64-1.496,1.088c-0.449,0.449-0.817,0.957-1.088,1.496
	c-0.179,0.538-0.272,1.14-0.272,1.77c0,0.627,0.094,1.229,0.272,1.768c0.271,0.539,0.639,1.047,1.088,1.496
	c0.359,0.449,0.867,0.771,1.496,0.952c0.539,0.269,1.14,0.406,1.769,0.406l0,0c0.538,0,1.139-0.139,1.768-0.406
	c0.539-0.182,1.047-0.503,1.496-0.952c0.358-0.449,0.683-0.957,0.952-1.496c0.18-0.539,0.271-1.141,0.271-1.768
	c0-0.63-0.092-1.229-0.271-1.77c-0.27-0.539-0.594-1.047-0.952-1.496c-0.449-0.448-0.957-0.818-1.496-1.088
	C462.284,705.95,461.683,705.857,461.145,705.857L461.145,705.857"/>
<path fill="none" stroke="#000000" stroke-width="0.118" stroke-linecap="round" stroke-linejoin="round" d="M638.895,749.514
	c0,0.271-0.046,0.545-0.137,0.815c0,0.271-0.045,0.545-0.136,0.814c-0.181,0.183-0.317,0.41-0.408,0.682
	c-0.181,0.271-0.362,0.499-0.544,0.68c-0.181,0.181-0.409,0.363-0.68,0.544c-0.182,0.092-0.409,0.183-0.68,0.271
	c-0.271,0.182-0.546,0.271-0.816,0.271c-0.271,0.091-0.544,0.136-0.816,0.136l0,0h-22.304c-0.451,0-0.908-0.045-1.36-0.136
	c-0.451-0.18-0.861-0.361-1.224-0.544c-0.451-0.18-0.817-0.453-1.088-0.815c-0.361-0.271-0.681-0.636-0.952-1.089l0,0
	c-1.72-2.534-3.265-5.17-4.623-7.887c-1.359-2.717-2.495-5.535-3.4-8.432c-0.996-2.898-1.769-5.896-2.312-8.978
	c-0.634-2.987-0.998-6.033-1.088-9.11l0,0v-74.937c0-0.718,0.138-1.457,0.408-2.176c0.269-0.719,0.685-1.318,1.224-1.768
	c0.538-0.539,1.186-0.955,1.904-1.226c0.628-0.358,1.322-0.544,2.04-0.544l0,0h123.758c0.808,0,1.548,0.186,2.176,0.544
	c0.719,0.271,1.365,0.687,1.904,1.226c0.539,0.448,0.955,1.049,1.224,1.768c0.271,0.719,0.408,1.458,0.408,2.176l0,0v74.937
	c-0.182,3.077-0.545,6.123-1.088,9.11c-0.543,3.08-1.316,6.078-2.312,8.978c-0.904,2.896-2.042,5.715-3.399,8.432
	c-1.358,2.717-2.903,5.353-4.624,7.887l0,0c-0.271,0.453-0.592,0.817-0.952,1.089c-0.361,0.362-0.728,0.637-1.088,0.815
	c-0.451,0.183-0.908,0.364-1.36,0.544c-0.451,0.091-0.908,0.136-1.359,0.136l0,0h-22.169c-0.271,0-0.544-0.045-0.815-0.136
	c-0.271,0-0.544-0.091-0.816-0.271c-0.271-0.09-0.499-0.181-0.68-0.271c-0.271-0.181-0.499-0.363-0.68-0.544
	s-0.363-0.407-0.543-0.68c-0.182-0.271-0.318-0.499-0.408-0.682c-0.092-0.271-0.183-0.543-0.272-0.814c0-0.271,0-0.544,0-0.815l0,0
	v-3.265c0-0.271,0.045-0.544,0.136-0.815c0-0.271,0.092-0.591,0.272-0.953c0.09-0.271,0.228-0.497,0.408-0.68
	c0.18-0.271,0.362-0.499,0.543-0.679l0,0c2.976-2.705,5.543-5.822,7.616-9.248c2.074-3.427,3.633-7.14,4.624-11.017
	c0.901-3.878,1.269-7.864,1.088-11.832c-0.271-3.968-1.142-7.908-2.584-11.695c-1.442-3.697-3.413-7.18-5.849-10.336
	c-2.434-3.156-5.366-5.906-8.703-8.16c-3.245-2.344-6.866-4.132-10.743-5.305c-3.787-1.172-7.775-1.769-11.832-1.769
	c-3.968,0-7.909,0.597-11.696,1.769c-3.877,1.173-7.498,2.961-10.744,5.305c-3.336,2.254-6.269,5.004-8.704,8.16
	c-2.523,3.156-4.495,6.639-5.848,10.336c-1.442,3.787-2.313,7.729-2.584,11.695c-0.271,3.968,0.096,7.955,1.088,11.832
	s2.505,7.59,4.488,11.017c2.073,3.426,4.641,6.543,7.616,9.248l0,0c0.271,0.18,0.498,0.407,0.68,0.679
	c0.181,0.183,0.318,0.409,0.408,0.68c0.181,0.362,0.271,0.683,0.271,0.953c0.091,0.271,0.136,0.545,0.136,0.815l0,0v3.265"/>
<path fill="none" stroke="#000000" stroke-width="0.118" stroke-linecap="round" stroke-linejoin="round" d="M614.414,708.85
	c-0.628,0-1.229,0.14-1.768,0.408c-0.629,0.18-1.137,0.503-1.496,0.952c-0.448,0.449-0.818,0.957-1.088,1.496
	c-0.18,0.538-0.272,1.14-0.272,1.769s0.093,1.229,0.272,1.769c0.27,0.539,0.639,1.047,1.088,1.496
	c0.358,0.448,0.867,0.771,1.496,0.95c0.539,0.271,1.14,0.408,1.768,0.408l0,0c0.539,0,1.14-0.139,1.768-0.408
	c0.539-0.18,1.049-0.502,1.496-0.95c0.359-0.449,0.684-0.959,0.952-1.496c0.271-0.539,0.408-1.142,0.408-1.769
	c0-0.629-0.138-1.229-0.408-1.769c-0.269-0.539-0.593-1.047-0.952-1.496c-0.447-0.449-0.957-0.771-1.496-0.952
	C615.554,708.988,614.953,708.85,614.414,708.85L614.414,708.85"/>
<path fill="none" stroke="#000000" stroke-width="0.118" stroke-linecap="round" stroke-linejoin="round" d="M614.414,658.802
	c0.539,0,1.14-0.092,1.768-0.271c0.539-0.27,1.047-0.638,1.496-1.088c0.359-0.447,0.684-0.957,0.952-1.494
	c0.271-0.539,0.408-1.142,0.408-1.769c0-0.539-0.138-1.141-0.408-1.769c-0.269-0.539-0.592-1.048-0.952-1.496
	c-0.447-0.358-0.957-0.683-1.496-0.952c-0.628-0.27-1.229-0.408-1.768-0.408l0,0c-0.628,0-1.229,0.14-1.768,0.408
	c-0.629,0.271-1.138,0.594-1.496,0.952c-0.449,0.448-0.818,0.957-1.088,1.496c-0.18,0.628-0.272,1.229-0.272,1.769
	c0,0.627,0.093,1.229,0.272,1.769c0.27,0.537,0.64,1.047,1.088,1.494c0.359,0.45,0.867,0.818,1.496,1.088
	C613.186,658.71,613.786,658.802,614.414,658.802L614.414,658.802"/>
<path fill="none" stroke="#000000" stroke-width="0.118" stroke-linecap="round" stroke-linejoin="round" d="M663.782,658.802
	c0.628,0,1.229-0.092,1.768-0.271c0.628-0.27,1.138-0.64,1.496-1.088c0.449-0.448,0.818-0.957,1.088-1.494
	c0.179-0.539,0.272-1.142,0.272-1.769c0-0.539-0.094-1.141-0.272-1.769c-0.269-0.539-0.64-1.048-1.088-1.496
	c-0.358-0.358-0.868-0.683-1.496-0.952c-0.539-0.27-1.14-0.408-1.768-0.408l0,0c-0.539,0-1.14,0.14-1.769,0.408
	c-0.539,0.271-1.047,0.594-1.496,0.952c-0.358,0.448-0.683,0.957-0.951,1.496c-0.181,0.628-0.272,1.229-0.272,1.769
	c0,0.627,0.092,1.229,0.272,1.769c0.269,0.537,0.593,1.046,0.951,1.494c0.449,0.448,0.957,0.818,1.496,1.088
	C662.643,658.71,663.243,658.802,663.782,658.802L663.782,658.802"/>
<path fill="none" stroke="#000000" stroke-width="0.118" stroke-linecap="round" stroke-linejoin="round" d="M713.285,649.555
	c-0.628,0-1.229,0.14-1.769,0.408c-0.538,0.27-1.047,0.592-1.495,0.952c-0.449,0.448-0.772,0.957-0.952,1.496
	c-0.271,0.628-0.408,1.229-0.408,1.769c0,0.627,0.139,1.229,0.408,1.769c0.18,0.537,0.503,1.046,0.952,1.494
	c0.448,0.45,0.957,0.818,1.495,1.088c0.539,0.181,1.141,0.271,1.769,0.271l0,0c0.629,0,1.229-0.092,1.768-0.271
	c0.539-0.27,1.047-0.64,1.496-1.088c0.449-0.447,0.773-0.957,0.952-1.494c0.271-0.539,0.408-1.142,0.408-1.769
	c0-0.539-0.14-1.141-0.408-1.769c-0.179-0.539-0.503-1.048-0.952-1.496c-0.449-0.358-0.957-0.683-1.496-0.952
	S713.914,649.555,713.285,649.555L713.285,649.555"/>
<path fill="none" stroke="#000000" stroke-width="0.118" stroke-linecap="round" stroke-linejoin="round" d="M713.421,708.85
	c-0.628,0-1.229,0.14-1.768,0.408c-0.539,0.18-1.048,0.503-1.496,0.952c-0.449,0.449-0.772,0.957-0.952,1.496
	c-0.27,0.538-0.408,1.14-0.408,1.769c0,0.627,0.139,1.229,0.408,1.769c0.18,0.539,0.503,1.047,0.952,1.496
	c0.448,0.448,0.957,0.771,1.496,0.95c0.539,0.271,1.14,0.408,1.768,0.408l0,0c0.628,0,1.23-0.139,1.769-0.408
	c0.539-0.18,1.047-0.502,1.496-0.95c0.448-0.449,0.772-0.957,0.951-1.496c0.27-0.539,0.408-1.142,0.408-1.769
	c0-0.629-0.139-1.229-0.408-1.769c-0.179-0.539-0.503-1.047-0.951-1.496c-0.449-0.449-0.957-0.771-1.496-0.952
	C714.651,708.988,714.049,708.85,713.421,708.85L713.421,708.85"/>
</svg>
