<?xml version="1.0" encoding="utf-8"?>
<!-- Generator: Adobe Illustrator 21.1.0, SVG Export Plug-In . SVG Version: 6.00 Build 0)  -->
<svg version="1.1" id="Layer_1" xmlns="http://www.w3.org/2000/svg" xmlns:xlink="http://www.w3.org/1999/xlink" x="0px" y="0px"
	 viewBox="0 0 70.6 25.7" style="enable-background:new 0 0 70.6 25.7;" xml:space="preserve">
<path d="M10.5,8.7c-0.4,0.2-0.7,0.4-1,0.7c-0.3,0.3-0.6,0.6-0.8,1c-0.2,0.4-0.4,0.8-0.5,1.2C8.1,12,8,12.4,8,12.9l0,0
	c0,0.4,0.1,0.8,0.2,1.2c0.1,0.4,0.3,0.8,0.5,1.2c0.2,0.4,0.5,0.7,0.8,1c0.3,0.3,0.6,0.5,1,0.8l0,0h4.6c0.4-0.2,0.7-0.5,1-0.8
	c0.3-0.3,0.6-0.6,0.8-1c0.2-0.4,0.4-0.7,0.5-1.2c0.1-0.4,0.2-0.8,0.2-1.2l0,0c0-0.4-0.1-0.9-0.2-1.3c-0.1-0.4-0.3-0.8-0.5-1.2
	c-0.2-0.4-0.5-0.7-0.8-1c-0.3-0.3-0.6-0.5-1-0.7l0,0H10.5"/>
</svg>
