<?xml version="1.0" encoding="utf-8"?>
<!-- Generator: Adobe Illustrator 21.1.0, SVG Export Plug-In . SVG Version: 6.00 Build 0)  -->
<svg version="1.1" id="Layer_1" xmlns="http://www.w3.org/2000/svg" xmlns:xlink="http://www.w3.org/1999/xlink" x="0px" y="0px"
	 viewBox="0 0 104.5 126.2" style="enable-background:new 0 0 104.5 126.2;" xml:space="preserve">
<style type="text/css">
	.st0{fill:none;stroke:#000000;stroke-width:0.144;stroke-linecap:round;stroke-linejoin:round;}
	.st1{font-family:'MyriadPro-Regular';}
	.st2{font-size:6px;}
</style>
<path class="st0" d="M53.4,14.4l-16.8,0.5c-0.5,0-1.1,0.1-1.6,0.2s-1,0.4-1.4,0.6c-0.4,0.3-0.8,0.7-1.2,1.1
	c-0.4,0.4-0.6,0.8-0.9,1.4l0,0c-0.6,1.3-1.4,2.5-2.4,3.5c-1,1-2.2,1.9-3.5,2.5c-1.3,0.6-2.7,1-4.1,1.2c-1.4,0.2-2.9,0.1-4.3-0.2
	c-1.4-0.3-2.8-0.8-4-1.6c-1.2-0.8-2.3-1.7-3.2-2.8c-0.9-1.1-1.6-2.4-2.1-3.8c-0.5-1.4-0.7-2.8-0.7-4.2S7.5,10,8,8.6
	C8.4,7.3,9.1,6,10.1,4.9C11,3.7,12,2.8,13.2,2c1.2-0.7,2.6-1.3,4-1.6c1.4-0.3,2.9-0.4,4.3-0.2c1.4,0.2,2.8,0.6,4.1,1.2
	C26.9,2,28.1,2.9,29.1,4c1,1,1.8,2.2,2.4,3.5l0,0c0.2,0.5,0.5,0.9,0.9,1.3c0.4,0.4,0.7,0.8,1.2,1.1c0.4,0.3,0.9,0.5,1.4,0.6
	s1,0.3,1.6,0.3l0,0l16.8,0.4c0.2,0,0.5,0,0.7-0.1c0.2-0.1,0.5-0.2,0.7-0.3c0.2-0.1,0.4-0.3,0.6-0.4c0.2-0.2,0.3-0.3,0.5-0.5l0,0
	c0.2-0.4,0.5-0.7,0.8-1c0.3-0.3,0.7-0.5,1.1-0.8C58,8,58.4,7.8,58.8,7.7c0.4-0.1,0.8-0.2,1.2-0.2c0.4,0,0.8,0,1.2,0.1
	c0.4,0.1,0.8,0.2,1.2,0.4c0.4,0.2,0.7,0.4,1.1,0.6c0.4,0.3,0.7,0.6,0.9,0.9l0,0c0.2,0.3,0.5,0.6,0.9,0.9c0.3,0.3,0.6,0.5,1,0.6
	c0.4,0.2,0.8,0.4,1.2,0.5c0.4,0.1,0.8,0.1,1.2,0.1l0,0l7.8,0.2c0.1,0,0.2,0,0.3,0c0.1,0,0.2,0.1,0.2,0.1c0.1,0,0.2,0.1,0.2,0.2
	c0.1,0,0.1,0.1,0.2,0.2c0,0.1,0.1,0.2,0.1,0.2c0,0.1,0,0.2,0,0.3c0,0.1,0,0.2,0,0.2c0,0.1-0.1,0.2-0.1,0.3c0,0.1-0.1,0.2-0.2,0.2
	c-0.1,0-0.2,0.1-0.2,0.1c-0.1,0.1-0.2,0.1-0.2,0.1c-0.1,0-0.2,0.1-0.3,0.1l0,0l-7.8,0.2c-0.4,0-0.8,0.1-1.2,0.2
	c-0.4,0.1-0.8,0.2-1.2,0.4c-0.4,0.2-0.7,0.4-1,0.6c-0.4,0.3-0.6,0.6-0.9,0.9l0,0c-0.3,0.3-0.6,0.6-0.9,0.9c-0.3,0.3-0.7,0.5-1.1,0.6
	c-0.4,0.2-0.8,0.3-1.2,0.4c-0.4,0.1-0.8,0.1-1.2,0.1c-0.4,0-0.8-0.1-1.2-0.2c-0.4-0.1-0.8-0.3-1.2-0.5c-0.4-0.2-0.7-0.5-1.1-0.8
	c-0.3-0.3-0.5-0.6-0.8-1l0,0c-0.2-0.2-0.3-0.4-0.5-0.5c-0.2-0.2-0.4-0.3-0.6-0.4c-0.2-0.1-0.5-0.2-0.7-0.2
	C53.8,14.5,53.6,14.4,53.4,14.4L53.4,14.4"/>
<path d="M17.7,8.7c-0.4,0.2-0.7,0.4-1,0.7c-0.3,0.3-0.6,0.6-0.8,1c-0.2,0.4-0.4,0.8-0.5,1.2c-0.1,0.4-0.2,0.9-0.2,1.3l0,0
	c0,0.4,0.1,0.8,0.2,1.2c0.1,0.4,0.3,0.8,0.5,1.2c0.2,0.4,0.5,0.7,0.8,1c0.3,0.3,0.6,0.5,1,0.8l0,0h4.6c0.4-0.2,0.7-0.5,1-0.8
	c0.3-0.3,0.6-0.6,0.8-1c0.2-0.4,0.4-0.7,0.5-1.2c0.1-0.4,0.2-0.8,0.2-1.2l0,0c0-0.4-0.1-0.9-0.2-1.3c-0.1-0.4-0.3-0.8-0.5-1.2
	c-0.2-0.4-0.5-0.7-0.8-1c-0.3-0.3-0.6-0.5-1-0.7l0,0H17.7"/>
<path class="st0" d="M38,55.4c-0.4,1.2-1.1,2.4-1.9,3.5c-0.9,1.1-1.9,1.9-3,2.6c-1.1,0.7-2.4,1.2-3.6,1.4c-1.3,0.3-2.7,0.3-4,0.1
	c-1.3-0.2-2.6-0.7-3.8-1.3c-1.1-0.7-2.2-1.5-3.1-2.5c-0.9-1-1.5-2.2-2-3.4c-0.5-1.2-0.7-2.6-0.8-3.9c0-1.3,0.2-2.6,0.6-3.9
	c0.5-1.2,1.1-2.4,1.9-3.5c0.9-1,1.9-1.9,3.1-2.5c1.1-0.7,2.4-1.2,3.7-1.4c1.3-0.2,2.7-0.2,3.9,0c1.3,0.2,2.6,0.7,3.8,1.4
	c1.1,0.7,2.1,1.6,3,2.6c0.9,1,1.5,2.2,2,3.5l0,0c0.1,0.2,0.2,0.5,0.4,0.7c0.2,0.2,0.4,0.4,0.6,0.6c0.2,0.2,0.5,0.3,0.7,0.4
	c0.3,0.1,0.6,0.1,0.9,0.2l0,0l11.3,0.2c0.2,0,0.5,0,0.7-0.1c0.2,0,0.5-0.1,0.6-0.2c0.2-0.1,0.4-0.3,0.6-0.4c0.2-0.2,0.4-0.4,0.5-0.6
	l0,0c0.2-0.4,0.5-0.7,0.8-0.9c0.3-0.3,0.6-0.6,1-0.8c0.4-0.2,0.8-0.4,1.2-0.5c0.4-0.1,0.8-0.2,1.2-0.2c0.4,0,0.9,0,1.3,0.1
	c0.4,0.1,0.8,0.2,1.2,0.4c0.4,0.2,0.8,0.4,1.1,0.6c0.4,0.2,0.6,0.5,0.9,0.9l0,0c0.3,0.3,0.6,0.6,0.9,0.9c0.3,0.2,0.7,0.5,1.1,0.6
	c0.4,0.2,0.7,0.3,1.1,0.4c0.4,0.1,0.8,0.2,1.2,0.2l0,0l7.9,0.2c0.1,0,0.2,0,0.2,0.1c0.1,0,0.2,0,0.3,0.1c0.1,0.1,0.2,0.1,0.2,0.2
	c0,0.1,0.1,0.2,0.1,0.2c0.1,0.1,0.1,0.2,0.1,0.2c0,0.1,0.1,0.2,0.1,0.3c0,0.1,0,0.2-0.1,0.3c0,0.1,0,0.2-0.1,0.2
	c0,0.1-0.1,0.2-0.1,0.2c-0.1,0.1-0.2,0.1-0.2,0.2c-0.1,0-0.2,0.1-0.3,0.1c-0.1,0-0.2,0-0.2,0l0,0L67.4,53c-0.4,0-0.8,0.1-1.2,0.2
	c-0.4,0.1-0.8,0.3-1.2,0.4c-0.4,0.2-0.7,0.4-1.1,0.7c-0.4,0.3-0.6,0.6-0.9,0.9l0,0c-0.3,0.4-0.6,0.6-0.9,0.9
	c-0.4,0.3-0.7,0.5-1.1,0.7c-0.4,0.2-0.8,0.3-1.2,0.4c-0.4,0.1-0.9,0.1-1.3,0.1c-0.4,0-0.8-0.1-1.2-0.2c-0.4-0.2-0.8-0.3-1.2-0.5
	c-0.4-0.2-0.7-0.5-1.1-0.8c-0.3-0.3-0.5-0.6-0.8-1l0,0c-0.1-0.2-0.3-0.4-0.5-0.6c-0.2-0.2-0.4-0.3-0.6-0.4c-0.2-0.1-0.5-0.2-0.7-0.3
	c-0.2,0-0.5-0.1-0.7-0.1l0,0l-11.1,0.2c-0.3,0-0.6,0-0.9,0.1c-0.3,0.1-0.5,0.3-0.8,0.4c-0.2,0.2-0.4,0.4-0.6,0.6
	C38.2,54.9,38.1,55.2,38,55.4L38,55.4"/>
<path d="M34.4,53.6c0-0.2,0.1-0.3,0.1-0.5c0-0.1,0.1-0.3,0.1-0.4c0-0.2,0.1-0.3,0.1-0.4c0-0.2,0-0.3,0-0.5l0,0c0-0.2,0-0.3,0-0.5
	c0-0.2,0-0.3-0.1-0.5c0-0.2-0.1-0.3-0.1-0.5c0-0.2-0.1-0.4-0.1-0.5l0,0c-0.2-0.9-0.6-1.7-1.2-2.4c-0.5-0.7-1.2-1.3-1.9-1.8
	c-0.7-0.5-1.6-0.8-2.4-0.9c-0.9-0.2-1.8-0.2-2.6-0.1c-0.9,0.2-1.8,0.5-2.5,0.9c-0.8,0.4-1.5,1-2,1.7c-0.6,0.7-1,1.4-1.3,2.3
	c-0.3,0.8-0.5,1.7-0.4,2.6c0,0.9,0.2,1.8,0.5,2.6c0.3,0.8,0.8,1.6,1.4,2.2c0.6,0.7,1.3,1.2,2.1,1.6c0.8,0.4,1.6,0.6,2.5,0.8
	c0.9,0.1,1.7,0,2.6-0.2c0.9-0.2,1.7-0.6,2.4-1.1c0.7-0.5,1.4-1.2,1.8-1.9C33.8,55.3,34.2,54.5,34.4,53.6L34.4,53.6"/>
<path class="st0" d="M103.3,86.8l-63,1.1c-0.2,0-0.5,0-0.7,0.1c-0.2,0-0.5,0.1-0.6,0.3c-0.2,0.1-0.4,0.3-0.6,0.4
	c-0.2,0.2-0.4,0.4-0.5,0.6l0,0c-0.3,0.5-0.6,1-1,1.4c-0.4,0.4-0.9,0.7-1.4,1.1c-0.5,0.3-1,0.6-1.5,0.8c-0.5,0.2-1.1,0.3-1.7,0.3
	c-0.6,0-1.2,0-1.7-0.1c-0.6-0.1-1.1-0.2-1.6-0.5c-0.5-0.2-1.1-0.5-1.5-0.9c-0.4-0.4-0.8-0.8-1.2-1.2l0,0c-0.2-0.3-0.5-0.6-0.9-0.9
	c-0.3-0.3-0.7-0.5-1.1-0.7c-0.4-0.2-0.8-0.3-1.2-0.4c-0.4-0.1-0.8-0.1-1.2-0.1l0,0h-0.5c-1.3,0-2.7,0-4.1,0.1
	c-1.3,0.1-2.7,0.2-4,0.4c-1.3,0.2-2.7,0.4-4,0.6c-1.3,0.2-2.7,0.5-4,0.8l0,0C4.8,90,4.4,90,4,90c-0.4,0-0.8-0.1-1.2-0.3
	C2.3,89.5,2,89.3,1.7,89c-0.4-0.2-0.6-0.5-0.9-0.9S0.4,87.4,0.2,87c-0.1-0.4-0.2-0.8-0.2-1.2s0.1-0.8,0.2-1.2
	c0.1-0.4,0.3-0.8,0.6-1.2c0.2-0.4,0.5-0.6,0.8-0.9C2,82.2,2.4,82,2.8,81.8c0.4-0.2,0.8-0.3,1.2-0.3c0.4,0,0.9,0,1.3,0.1l0,0
	C6.6,82,8,82.3,9.4,82.5c1.3,0.2,2.7,0.4,4.1,0.6c1.4,0.2,2.8,0.3,4.2,0.4c1.4,0.1,2.7,0.1,4.1,0.1l0,0c0.4,0,0.9-0.1,1.3-0.2
	c0.4-0.1,0.8-0.2,1.2-0.4c0.4-0.2,0.7-0.4,1.1-0.7c0.4-0.3,0.6-0.6,0.9-0.9l0,0c0.4-0.5,0.8-0.9,1.2-1.2c0.5-0.4,1-0.7,1.5-0.9
	c0.5-0.2,1.1-0.4,1.6-0.5c0.6-0.1,1.2-0.2,1.8-0.1c0.6,0,1.2,0.2,1.7,0.4c0.5,0.2,1.1,0.4,1.6,0.7c0.5,0.3,0.9,0.7,1.4,1.1
	c0.4,0.4,0.7,0.8,1,1.4l0,0c0.1,0.2,0.3,0.4,0.5,0.6c0.2,0.2,0.4,0.4,0.6,0.5c0.2,0.1,0.4,0.2,0.6,0.3c0.2,0,0.5,0.1,0.7,0.1l0,0
	l63,1c0.1,0,0.2,0,0.3,0.1c0.1,0,0.2,0,0.2,0.1c0.1,0.1,0.2,0.1,0.2,0.2c0.1,0.1,0.1,0.2,0.2,0.2c0,0.1,0.1,0.2,0.1,0.2
	c0,0.1,0.1,0.2,0.1,0.3c0,0.1,0,0.2-0.1,0.3c0,0.1-0.1,0.2-0.1,0.2c0,0.1-0.1,0.2-0.2,0.2c-0.1,0.1-0.2,0.1-0.2,0.2
	c-0.1,0-0.2,0.1-0.2,0.1C103.5,86.8,103.4,86.8,103.3,86.8L103.3,86.8"/>
<path d="M35.9,85.7c0-0.5-0.1-1.1-0.4-1.6c-0.2-0.5-0.5-0.9-0.9-1.3s-0.8-0.7-1.4-0.9c-0.5-0.2-1-0.4-1.5-0.4
	c-0.5,0-1.1,0.1-1.6,0.4c-0.5,0.2-1,0.5-1.4,0.9c-0.4,0.4-0.7,0.8-0.9,1.3c-0.2,0.5-0.3,1-0.3,1.6l0,0c0,0.5,0.1,1.1,0.3,1.6
	c0.2,0.5,0.5,1,0.9,1.4c0.4,0.3,0.8,0.6,1.4,0.9c0.5,0.2,1,0.3,1.6,0.3c0.5,0,1.1-0.1,1.5-0.3c0.5-0.2,1-0.5,1.4-0.9
	c0.4-0.4,0.7-0.8,0.9-1.4C35.8,86.8,35.9,86.3,35.9,85.7L35.9,85.7"/>
<path d="M39.5,114.6c0.1-0.2,0.1-0.5,0.1-0.7c0.1-0.2,0.1-0.4,0.1-0.6c0.1-0.2,0.1-0.5,0.1-0.6c0-0.2,0-0.5,0-0.7l0,0
	c0-0.2,0-0.5,0-0.8c0-0.2,0-0.5-0.1-0.8c-0.1-0.2-0.1-0.5-0.2-0.7c-0.1-0.3-0.1-0.6-0.2-0.8l0,0c-0.4-1.3-1-2.5-1.8-3.6
	c-0.8-1.1-1.9-2-3-2.8c-1.1-0.7-2.4-1.2-3.7-1.4c-1.4-0.3-2.8-0.4-4.1-0.2c-1.4,0.2-2.7,0.7-3.9,1.4c-1.2,0.7-2.2,1.5-3.1,2.6
	c-0.9,1-1.6,2.2-2,3.5c-0.5,1.3-0.7,2.6-0.6,4c0,1.4,0.3,2.7,0.8,4c0.5,1.3,1.2,2.4,2.2,3.4c0.9,1,2,1.8,3.3,2.4
	c1.2,0.6,2.5,1,3.9,1.2c1.3,0.1,2.7,0,4-0.4c1.3-0.3,2.6-0.9,3.7-1.6c1.1-0.8,2.1-1.8,2.8-2.9C38.6,117.2,39.1,116,39.5,114.6
	L39.5,114.6"/>
<text transform="matrix(1 0 0 1 31.7775 26.9178)" class="st1 st2">Minute hand</text>
<text transform="matrix(1 0 0 1 39.7708 64.7049)" class="st1 st2">Hour hand</text>
<text transform="matrix(1 0 0 1 41.0234 95.6026)" class="st1 st2">Second hand</text>
<text transform="matrix(1 0 0 1 49.1654 115.4356)" class="st1 st2">Center shaft</text>
</svg>
