<?xml version="1.0" encoding="utf-8"?>
<!-- Generator: Adobe Illustrator 19.0.1, SVG Export Plug-In . SVG Version: 6.00 Build 0)  -->
<svg version="1.2" baseProfile="tiny" id="Layer_1" xmlns="http://www.w3.org/2000/svg" xmlns:xlink="http://www.w3.org/1999/xlink"
	 x="0px" y="0px" viewBox="0 0 70.6 25.6" xml:space="preserve">
<path fill="none" stroke="#000000" stroke-width="0.118" stroke-linecap="round" stroke-linejoin="round" d="M57.4,16.2
	c-0.3,0.3-0.6,0.6-0.9,0.9c-0.3,0.3-0.7,0.5-1.1,0.6c-0.4,0.2-0.8,0.3-1.2,0.4c-0.4,0.1-0.8,0.1-1.2,0.1c-0.4,0-0.9-0.1-1.3-0.2
	c-0.4-0.1-0.8-0.3-1.1-0.5c-0.4-0.2-0.7-0.5-1.1-0.8c-0.3-0.3-0.6-0.6-0.8-1l0,0c-0.1-0.2-0.3-0.4-0.4-0.5c-0.2-0.2-0.4-0.3-0.6-0.4
	c-0.2-0.1-0.5-0.2-0.7-0.2c-0.2-0.1-0.5-0.1-0.7-0.1l0,0l-16.8,0.4c-0.5,0-1,0.1-1.5,0.2c-0.5,0.2-1,0.4-1.4,0.6
	c-0.4,0.3-0.8,0.7-1.2,1.1c-0.4,0.4-0.6,0.8-0.9,1.4l0,0c-0.6,1.3-1.4,2.5-2.4,3.5c-1,1-2.2,1.9-3.5,2.5c-1.3,0.6-2.7,1-4.1,1.2
	c-1.4,0.2-2.9,0.1-4.3-0.2c-1.4-0.3-2.8-0.8-4-1.6c-1.2-0.8-2.3-1.7-3.2-2.8c-0.9-1.1-1.6-2.4-2.1-3.8c-0.5-1.4-0.7-2.8-0.7-4.2
	S0.3,10,0.8,8.6C1.2,7.2,1.9,6,2.8,4.8c0.9-1.1,2-2.1,3.2-2.9c1.2-0.7,2.6-1.3,4-1.6c1.4-0.3,2.9-0.4,4.3-0.2
	c1.4,0.2,2.8,0.6,4.1,1.2C19.8,2,20.9,2.9,21.9,4c1,1,1.8,2.2,2.4,3.5l0,0c0.2,0.5,0.5,0.9,0.9,1.3c0.4,0.4,0.7,0.8,1.2,1.1
	c0.4,0.3,0.9,0.5,1.4,0.6c0.5,0.2,1,0.3,1.5,0.3l0,0l16.8,0.4c0.2,0,0.5,0,0.7-0.1c0.2-0.1,0.5-0.2,0.7-0.3c0.2-0.1,0.4-0.3,0.6-0.4
	c0.2-0.2,0.3-0.3,0.4-0.5l0,0c0.2-0.4,0.5-0.7,0.8-1c0.3-0.3,0.7-0.5,1.1-0.8c0.4-0.2,0.7-0.4,1.1-0.5c0.4-0.1,0.9-0.2,1.3-0.2
	c0.4,0,0.8,0,1.2,0.1c0.4,0.1,0.8,0.2,1.2,0.4c0.4,0.2,0.7,0.4,1.1,0.6c0.4,0.3,0.7,0.6,0.9,0.9l0,0c0.2,0.4,0.5,0.6,0.8,0.9
	c0.4,0.3,0.7,0.5,1.1,0.6c0.4,0.2,0.8,0.4,1.2,0.5c0.4,0.1,0.8,0.1,1.2,0.1l0,0l7.9,0.2c0.1,0,0.2,0,0.3,0c0.1,0,0.2,0.1,0.2,0.1
	c0.1,0,0.2,0.1,0.2,0.2c0.1,0,0.1,0.1,0.2,0.2c0,0.1,0.1,0.2,0.1,0.2c0,0.1,0,0.2,0,0.3c0,0.1,0,0.2,0,0.2c0,0.1-0.1,0.2-0.1,0.3
	c0,0.1-0.1,0.2-0.2,0.2c-0.1,0-0.2,0.1-0.2,0.1c-0.1,0.1-0.2,0.1-0.2,0.1c-0.1,0-0.2,0.1-0.3,0.1l0,0l-7.9,0.2
	c-0.4,0-0.8,0.1-1.2,0.2c-0.4,0.1-0.8,0.2-1.2,0.4c-0.4,0.2-0.7,0.4-1.1,0.6C57.9,15.6,57.6,15.9,57.4,16.2L57.4,16.2"/>
<path d="M10.4,17h4.9c0.4-0.2,0.7-0.5,0.9-0.8c0.3-0.3,0.6-0.6,0.8-1c0.2-0.4,0.4-0.7,0.5-1.2c0.1-0.4,0.2-0.8,0.2-1.2
	c0-0.4-0.1-0.8-0.2-1.2c-0.1-0.4-0.3-0.8-0.5-1.2c-0.2-0.4-0.5-0.7-0.8-0.9c-0.3-0.3-0.6-0.6-0.9-0.8l0,0h-4.9
	C10,8.9,9.7,9.2,9.4,9.5c-0.3,0.3-0.6,0.6-0.8,0.9c-0.2,0.4-0.4,0.8-0.5,1.2C8.1,12,8,12.4,8,12.8c0,0.4,0.1,0.8,0.2,1.2
	c0.1,0.4,0.3,0.8,0.5,1.2c0.2,0.4,0.5,0.7,0.8,1C9.7,16.5,10,16.7,10.4,17L10.4,17"/>
</svg>
