<?xml version="1.0" encoding="utf-8"?>
<!-- Generator: Adobe Illustrator 19.0.1, SVG Export Plug-In . SVG Version: 6.00 Build 0)  -->
<svg version="1.2" baseProfile="tiny" id="Layer_1" xmlns="http://www.w3.org/2000/svg" xmlns:xlink="http://www.w3.org/1999/xlink"
	 x="0px" y="0px" viewBox="0 0 104.4 14.3" xml:space="preserve">
<path fill="none" stroke="#000000" stroke-width="0.118" stroke-linecap="round" stroke-linejoin="round" d="M103.3,8.2l-63,1.1
	c-0.2,0-0.5,0-0.7,0.1c-0.2,0-0.5,0.1-0.6,0.3c-0.2,0.1-0.4,0.3-0.6,0.4c-0.2,0.2-0.4,0.4-0.5,0.6l0,0c-0.3,0.5-0.6,1-1,1.4
	c-0.4,0.4-0.9,0.7-1.4,1.1c-0.5,0.3-1,0.6-1.5,0.8c-0.5,0.2-1.1,0.3-1.7,0.3c-0.6,0-1.2,0-1.7-0.1c-0.6-0.1-1.2-0.2-1.7-0.5
	c-0.5-0.2-1-0.5-1.5-0.9c-0.4-0.4-0.8-0.8-1.2-1.2l0,0c-0.2-0.3-0.5-0.6-0.9-0.9c-0.3-0.3-0.7-0.5-1.1-0.7c-0.4-0.2-0.8-0.3-1.2-0.4
	c-0.4-0.1-0.8-0.1-1.2-0.1l0,0h-0.5c-1.3,0-2.7,0-4.1,0.1c-1.3,0.1-2.7,0.2-4,0.4c-1.3,0.2-2.7,0.4-4,0.6c-1.3,0.2-2.7,0.5-4,0.8
	l0,0c-0.4,0.1-0.8,0.2-1.2,0.1c-0.4,0-0.8-0.1-1.2-0.3c-0.4-0.2-0.8-0.4-1.1-0.6C1.3,10.2,1,9.9,0.8,9.5C0.5,9.2,0.4,8.8,0.2,8.4
	C0.1,8,0.1,7.6,0.1,7.1s0.1-0.8,0.2-1.2c0.1-0.4,0.3-0.8,0.6-1.2c0.2-0.4,0.5-0.6,0.8-0.9C2,3.6,2.4,3.3,2.8,3.2
	C3.2,3,3.6,2.9,4,2.9c0.4,0,0.9,0,1.3,0.1l0,0C6.6,3.4,8,3.7,9.4,3.9c1.3,0.2,2.7,0.4,4.1,0.6c1.4,0.2,2.8,0.3,4.2,0.4
	C19,5,20.3,5,21.7,5l0,0C22.1,5,22.6,5,23,4.8c0.4-0.1,0.8-0.2,1.2-0.4c0.4-0.2,0.7-0.4,1.1-0.7c0.4-0.3,0.6-0.6,0.9-0.9l0,0
	c0.4-0.5,0.8-0.9,1.2-1.2c0.5-0.4,1-0.7,1.5-0.9c0.5-0.2,1.1-0.4,1.6-0.5c0.6-0.1,1.2-0.2,1.8-0.1c0.6,0,1.2,0.2,1.7,0.4
	c0.5,0.2,1.1,0.4,1.6,0.7c0.5,0.3,0.9,0.7,1.4,1.1c0.4,0.4,0.7,0.8,1,1.4l0,0C38,3.8,38.2,4,38.4,4.2c0.2,0.2,0.4,0.4,0.6,0.5
	c0.2,0.1,0.4,0.2,0.6,0.3c0.2,0,0.5,0.1,0.7,0.1l0,0l63,1c0.1,0,0.2,0,0.3,0.1c0.1,0,0.2,0,0.2,0.1c0.1,0.1,0.2,0.1,0.2,0.2
	c0.1,0.1,0.1,0.2,0.2,0.2c0,0.1,0.1,0.2,0.1,0.2c0,0.1,0,0.2,0,0.3c0,0.1,0,0.2,0,0.3c0,0.1-0.1,0.2-0.1,0.2c0,0.1-0.1,0.2-0.2,0.2
	C104,8,103.9,8,103.8,8.1c-0.1,0-0.2,0.1-0.2,0.1C103.5,8.2,103.4,8.2,103.3,8.2L103.3,8.2"/>
<path d="M35.9,7.1c0-0.5-0.1-1.1-0.4-1.6c-0.2-0.5-0.5-0.9-0.9-1.3c-0.4-0.4-0.8-0.7-1.4-0.9c-0.5-0.2-1-0.4-1.5-0.4
	c-0.5,0-1.1,0.1-1.6,0.4c-0.5,0.2-1,0.5-1.4,0.9c-0.4,0.4-0.7,0.8-0.9,1.3c-0.2,0.5-0.3,1-0.3,1.6l0,0c0,0.5,0.1,1.1,0.3,1.6
	c0.2,0.5,0.5,1,0.9,1.4c0.4,0.4,0.8,0.6,1.4,0.9c0.5,0.2,1,0.3,1.6,0.3s1.1-0.1,1.5-0.3c0.5-0.2,1-0.5,1.4-0.9
	c0.4-0.4,0.7-0.8,0.9-1.4C35.8,8.2,35.9,7.7,35.9,7.1L35.9,7.1"/>
</svg>
