<?xml version="1.0" encoding="utf-8"?>
<!-- Generator: Adobe Illustrator 21.1.0, SVG Export Plug-In . SVG Version: 6.00 Build 0)  -->
<svg version="1.1" id="Layer_1" xmlns="http://www.w3.org/2000/svg" xmlns:xlink="http://www.w3.org/1999/xlink" x="0px" y="0px"
	 viewBox="0 0 60.4 22.9" style="enable-background:new 0 0 60.4 22.9;" xml:space="preserve">
<path d="M18.6,13.2c0-0.2,0.1-0.3,0.1-0.5c0-0.1,0.1-0.3,0.1-0.4c0-0.2,0.1-0.3,0.1-0.4c0-0.2,0-0.3,0-0.5l0,0c0-0.2,0-0.3,0-0.5
	c0-0.2,0-0.3-0.1-0.5c0-0.2-0.1-0.3-0.1-0.5c0-0.2-0.1-0.4-0.1-0.5l0,0c-0.2-0.9-0.6-1.7-1.2-2.4c-0.5-0.7-1.2-1.3-1.9-1.8
	c-0.7-0.5-1.6-0.8-2.4-0.9c-0.9-0.2-1.8-0.2-2.6-0.1C9.4,4.3,8.6,4.6,7.8,5C7,5.4,6.3,6,5.8,6.7C5.2,7.4,4.8,8.2,4.5,9
	C4.2,9.8,4,10.7,4.1,11.6c0,0.9,0.2,1.8,0.5,2.6C4.9,15,5.4,15.8,6,16.4c0.6,0.7,1.3,1.2,2.1,1.6c0.8,0.4,1.6,0.6,2.5,0.8
	c0.9,0.1,1.7,0,2.6-0.2c0.9-0.2,1.7-0.6,2.4-1.1c0.7-0.5,1.4-1.2,1.8-1.9C18,14.9,18.4,14,18.6,13.2L18.6,13.2"/>
</svg>
