<?xml version="1.0" encoding="utf-8"?>
<!-- Generator: Adobe Illustrator 21.1.0, SVG Export Plug-In . SVG Version: 6.00 Build 0)  -->
<svg version="1.1" id="Layer_1" xmlns="http://www.w3.org/2000/svg" xmlns:xlink="http://www.w3.org/1999/xlink" x="0px" y="0px"
	 viewBox="0 0 60.4 22.9" style="enable-background:new 0 0 60.4 22.9;" xml:space="preserve">
<style type="text/css">
	.st0{fill:none;stroke:#000000;stroke-width:0.144;stroke-linecap:round;stroke-linejoin:round;}
</style>
<path class="st0" d="M22.2,15c-0.4,1.2-1.1,2.4-1.9,3.5c-0.9,1.1-1.9,1.9-3,2.6c-1.1,0.7-2.4,1.2-3.6,1.4c-1.3,0.3-2.7,0.3-4,0.1
	c-1.3-0.2-2.6-0.7-3.8-1.3c-1.1-0.7-2.2-1.5-3.1-2.5c-0.9-1-1.5-2.2-2-3.4s-0.7-2.6-0.8-3.9c0-1.3,0.2-2.6,0.6-3.9
	c0.5-1.2,1.1-2.4,1.9-3.5c0.9-1,1.9-1.9,3.1-2.5C6.8,1,8.1,0.5,9.4,0.2c1.3-0.2,2.7-0.2,3.9,0c1.3,0.2,2.6,0.7,3.8,1.4
	c1.1,0.7,2.1,1.6,3,2.6c0.9,1,1.5,2.2,2,3.5l0,0c0.1,0.2,0.2,0.5,0.4,0.7c0.2,0.2,0.4,0.4,0.6,0.6c0.2,0.2,0.5,0.3,0.7,0.4
	c0.3,0.1,0.6,0.1,0.9,0.2l0,0L36,9.8c0.2,0,0.5,0,0.7-0.1c0.2,0,0.5-0.1,0.6-0.2c0.2-0.1,0.4-0.3,0.6-0.4c0.2-0.2,0.4-0.4,0.5-0.6
	l0,0c0.2-0.4,0.5-0.7,0.8-0.9c0.3-0.3,0.6-0.6,1-0.8c0.4-0.2,0.8-0.4,1.2-0.5c0.4-0.1,0.8-0.2,1.2-0.2c0.4,0,0.9,0,1.3,0.1
	c0.4,0.1,0.8,0.2,1.2,0.4c0.4,0.2,0.8,0.4,1.1,0.6c0.4,0.2,0.6,0.5,0.9,0.9l0,0C47.4,8.4,47.7,8.7,48,9c0.3,0.2,0.7,0.5,1.1,0.6
	c0.4,0.2,0.7,0.3,1.1,0.4c0.4,0.1,0.8,0.2,1.2,0.2l0,0l7.9,0.2c0.1,0,0.2,0,0.2,0.1c0.1,0,0.2,0,0.3,0.1c0.1,0.1,0.2,0.1,0.2,0.2
	c0,0.1,0.1,0.2,0.1,0.2c0.1,0.1,0.1,0.2,0.1,0.2c0,0.1,0.1,0.2,0.1,0.3c0,0.1,0,0.2-0.1,0.3c0,0.1,0,0.2-0.1,0.2
	c0,0.1-0.1,0.2-0.1,0.2c-0.1,0.1-0.2,0.1-0.2,0.2c-0.1,0-0.2,0.1-0.3,0.1c-0.1,0-0.2,0-0.2,0l0,0l-7.8,0.1c-0.4,0-0.8,0.1-1.2,0.2
	c-0.4,0.1-0.8,0.3-1.2,0.4c-0.4,0.2-0.7,0.4-1.1,0.7c-0.4,0.3-0.6,0.6-0.9,0.9l0,0c-0.3,0.4-0.6,0.6-0.9,0.9
	c-0.4,0.3-0.7,0.5-1.1,0.7c-0.4,0.2-0.8,0.3-1.2,0.4c-0.4,0.1-0.9,0.1-1.3,0.1c-0.4,0-0.8-0.1-1.2-0.2c-0.4-0.2-0.8-0.3-1.2-0.5
	c-0.4-0.2-0.7-0.5-1.1-0.8c-0.3-0.3-0.5-0.6-0.8-1l0,0c-0.1-0.2-0.3-0.4-0.5-0.6c-0.2-0.2-0.4-0.3-0.6-0.4c-0.2-0.1-0.5-0.2-0.7-0.3
	c-0.2,0-0.5-0.1-0.7-0.1l0,0l-11.1,0.2c-0.3,0-0.6,0-0.9,0.1c-0.3,0.1-0.5,0.3-0.8,0.4c-0.2,0.2-0.4,0.4-0.6,0.6
	C22.4,14.5,22.3,14.7,22.2,15L22.2,15"/>
</svg>
