<?xml version="1.0" encoding="utf-8"?>
<!-- Generator: Adobe Illustrator 21.1.0, SVG Export Plug-In . SVG Version: 6.00 Build 0)  -->
<svg version="1.1" id="Layer_1" xmlns="http://www.w3.org/2000/svg" xmlns:xlink="http://www.w3.org/1999/xlink" x="0px" y="0px"
	 viewBox="0 0 70.6 25.7" style="enable-background:new 0 0 70.6 25.7;" xml:space="preserve">
<style type="text/css">
	.st0{fill:none;stroke:#000000;stroke-width:0.144;stroke-linecap:round;stroke-linejoin:round;}
</style>
<path class="st0" d="M46.2,14.4l-16.8,0.5c-0.5,0-1.1,0.1-1.6,0.2s-1,0.4-1.4,0.6c-0.4,0.3-0.8,0.7-1.2,1.1s-0.6,0.8-0.9,1.4l0,0
	c-0.6,1.3-1.4,2.5-2.4,3.5c-1,1-2.2,1.9-3.5,2.5c-1.3,0.6-2.7,1-4.1,1.2c-1.4,0.2-2.9,0.1-4.3-0.2c-1.4-0.3-2.8-0.8-4-1.6
	c-1.2-0.8-2.3-1.7-3.2-2.8c-0.9-1.1-1.6-2.4-2.1-3.8c-0.5-1.4-0.7-2.8-0.7-4.2S0.3,10,0.8,8.6C1.2,7.3,2,6,2.9,4.9
	c0.9-1.1,2-2.1,3.2-2.9c1.2-0.7,2.6-1.3,4-1.6c1.4-0.3,2.9-0.4,4.3-0.2c1.4,0.2,2.8,0.6,4.1,1.2C19.8,2,20.9,2.9,22,4
	c1,1,1.8,2.2,2.4,3.5l0,0c0.2,0.5,0.5,0.9,0.9,1.3c0.4,0.4,0.7,0.8,1.2,1.1c0.4,0.3,0.9,0.5,1.4,0.6s1,0.3,1.6,0.3l0,0l16.8,0.4
	c0.2,0,0.5,0,0.7-0.1c0.2-0.1,0.5-0.2,0.7-0.3c0.2-0.1,0.4-0.3,0.6-0.4c0.2-0.2,0.3-0.3,0.5-0.5l0,0c0.2-0.4,0.5-0.7,0.8-1
	c0.3-0.3,0.7-0.5,1.1-0.8c0.4-0.2,0.7-0.4,1.2-0.5c0.4-0.1,0.8-0.2,1.2-0.2c0.4,0,0.8,0,1.2,0.1c0.4,0.1,0.8,0.2,1.2,0.4
	c0.4,0.2,0.7,0.4,1.1,0.6c0.4,0.3,0.7,0.6,0.9,0.9l0,0c0.2,0.3,0.5,0.6,0.9,0.9c0.3,0.3,0.6,0.5,1,0.6c0.4,0.2,0.8,0.4,1.2,0.5
	c0.4,0.1,0.8,0.1,1.2,0.1l0,0l7.8,0.2c0.1,0,0.2,0,0.3,0c0.1,0,0.2,0.1,0.2,0.1c0.1,0,0.2,0.1,0.2,0.2c0.1,0,0.1,0.1,0.2,0.2
	c0,0.1,0.1,0.2,0.1,0.2c0,0.1,0,0.2,0,0.3c0,0.1,0,0.2,0,0.2c0,0.1-0.1,0.2-0.1,0.3c0,0.1-0.1,0.2-0.2,0.2c-0.1,0-0.2,0.1-0.2,0.1
	c-0.1,0.1-0.2,0.1-0.2,0.1c-0.1,0-0.2,0.1-0.3,0.1l0,0l-7.8,0.2c-0.4,0-0.8,0.1-1.2,0.2c-0.4,0.1-0.8,0.2-1.2,0.4
	c-0.4,0.2-0.7,0.4-1,0.6c-0.4,0.3-0.6,0.6-0.9,0.9l0,0c-0.3,0.3-0.6,0.6-0.9,0.9c-0.3,0.3-0.7,0.5-1.1,0.6c-0.4,0.2-0.8,0.3-1.2,0.4
	c-0.4,0.1-0.8,0.1-1.2,0.1c-0.4,0-0.8-0.1-1.2-0.2c-0.4-0.1-0.8-0.3-1.2-0.5c-0.4-0.2-0.7-0.5-1.1-0.8c-0.3-0.3-0.5-0.6-0.8-1l0,0
	c-0.2-0.2-0.3-0.4-0.5-0.5c-0.2-0.2-0.4-0.3-0.6-0.4c-0.2-0.1-0.5-0.2-0.7-0.2C46.7,14.5,46.4,14.4,46.2,14.4L46.2,14.4"/>
</svg>
