<?xml version="1.0" encoding="utf-8"?>
<!-- Generator: Adobe Illustrator 21.1.0, SVG Export Plug-In . SVG Version: 6.00 Build 0)  -->
<svg version="1.1" xmlns="http://www.w3.org/2000/svg" xmlns:xlink="http://www.w3.org/1999/xlink" x="0px" y="0px"
	 viewBox="0 0 407.1 267.1" style="enable-background:new 0 0 407.1 267.1;" xml:space="preserve">
<style type="text/css">
	.st0{fill:#FFFFFF;stroke:#FF0000;stroke-width:0.25;stroke-miterlimit:10;}
	.st1{fill:none;stroke:#FF0000;stroke-width:0.25;stroke-miterlimit:10;}
	.st2{font-family:'Helvetica';}
	.st3{font-size:9px;}
	.st4{fill:#00FF00;}
</style>
<g id="cuts">
	<ellipse transform="matrix(0.7071 -0.7071 0.7071 0.7071 -39.2696 35.697)" class="st0" cx="23.5" cy="65.3" rx="1.9" ry="1.9"/>
	<ellipse transform="matrix(0.7071 -0.7071 0.7071 0.7071 -22.249 30.7884)" class="st0" cx="26" cy="42.3" rx="5.5" ry="5.5"/>
	<path class="st1" d="M113.7,52.9h-88c-5.8,0-10.5-4.7-10.5-10.5v0c0-5.8,4.7-10.5,10.5-10.5h88c5.8,0,10.5,4.7,10.5,10.5v0
		C124.2,48.1,119.5,52.9,113.7,52.9z"/>
	<path class="st1" d="M70.7,75.9h-47c-5.8,0-10.5-4.7-10.5-10.5v0c0-5.8,4.7-10.5,10.5-10.5h47c5.8,0,10.5,4.7,10.5,10.5v0
		C81.2,71.1,76.5,75.9,70.7,75.9z"/>
	<path class="st1" d="M114.8,182.1h-88c-5.8,0-10.5-4.7-10.5-10.5v0c0-5.8,4.7-10.5,10.5-10.5h88c5.8,0,10.5,4.7,10.5,10.5v0
		C125.3,177.3,120.5,182.1,114.8,182.1z"/>
	<path class="st1" d="M22.6,172.3c0-0.1-0.1-0.3-0.1-0.4c0-0.1,0-0.3,0-0.4c0-0.1,0-0.3,0-0.4c0-0.1,0-0.3,0.1-0.4l0,0
		c0-0.3,0.1-0.6,0.3-0.9c0.1-0.3,0.3-0.6,0.5-0.9c0.2-0.3,0.4-0.5,0.7-0.8c0.2-0.2,0.5-0.4,0.8-0.5l0,0h4.8c0.4,0.2,0.7,0.4,1,0.7
		c0.3,0.3,0.5,0.6,0.7,0.9c0.2,0.3,0.3,0.7,0.5,1.1c0.1,0.4,0.2,0.7,0.2,1.1c0,0.4-0.1,0.7-0.2,1.1c-0.1,0.4-0.3,0.7-0.5,1.1
		c-0.2,0.3-0.4,0.6-0.7,0.9c-0.3,0.3-0.6,0.5-1,0.7l0,0h-4.8c-0.3-0.2-0.6-0.4-0.8-0.6c-0.3-0.2-0.5-0.4-0.7-0.7
		c-0.2-0.3-0.3-0.6-0.5-0.9C22.8,173,22.7,172.6,22.6,172.3L22.6,172.3"/>
	<path class="st1" d="M113.7,158.9h-88c-5.8,0-10.5-4.7-10.5-10.5v0c0-5.8,4.7-10.5,10.5-10.5h88c5.8,0,10.5,4.7,10.5,10.5v0
		C124.2,154.1,119.5,158.9,113.7,158.9z"/>
	<path class="st1" d="M38.1,148.6c0,3.9-3.1,7.1-6.8,7.1c-3.8,0-6.8-3.2-6.8-7.1c0-3.9,3.1-7.1,6.8-7.1
		C35,141.5,38.1,144.7,38.1,148.6"/>
</g>
<g id="Text">
	<text transform="matrix(1 0 0 1 33.9283 45.3214)" class="st2 st3">3.85 mm</text>
	<text transform="matrix(1 0 0 1 17.4336 16.3214)"><tspan x="0" y="0" class="st4 st2 st3">Inner and outer shafts for VID28-05 movement</tspan><tspan x="0" y="10.8" class="st4 st2 st3">(http://www.vid.wellgain.com/product.aspx?sortid=26)</tspan></text>
	<text transform="matrix(1 0 0 1 17.4336 86.3214)"><tspan x="0" y="0" class="st4 st2 st3">Inner and outer shafts for </tspan><tspan x="0" y="10.8" class="st4 st2 st3">Clokit Clear Quartz Clock (https://www.klockit.com/quartexr-clear-quartz-clock-movement.html)</tspan><tspan x="0" y="21.6" class="st4 st2 st3">or </tspan><tspan x="0" y="32.4" class="st4 st2 st3">Quartex Q-80 Movement (https://www.klockit.com/q-80-quartz-clock-movement.html)</tspan></text>
	<text transform="matrix(1 0 0 1 16.4336 199.3214)"><tspan x="0" y="0" class="st4 st2 st3">Outer shaft for </tspan><tspan x="0" y="10.8" class="st4 st2 st3">Clokit Cap Pin for Push-On Clock Movements</tspan><tspan x="0" y="21.6" class="st4 st2 st3">(https://www.klockit.com/cap-pin-for-push-on-clock-movements.html)</tspan><tspan x="0" y="32.4" class="st4 st2 st3">n.b. will need adhesive to hold</tspan></text>
	<text transform="matrix(1 0 0 1 27.0951 67.7983)" class="st2 st3">1.35 mm</text>
	<text transform="matrix(1 0 0 1 39.2662 149.8027)" class="st2 st3">5.0 mm</text>
	<text transform="matrix(1 0 0 1 33.9296 174.3677)" class="st2 st3">3.3 x 2.7 mm</text>
	<path class="st1" d="M113.2,258.4h-87c-5.8,0-10.5-4.7-10.5-10.5v0c0-5.8,4.7-10.5,10.5-10.5h87c5.8,0,10.5,4.7,10.5,10.5v0
		C123.7,253.7,119,258.4,113.2,258.4z"/>
	<text transform="matrix(1 0 0 1 34.2713 250.7145)" class="st2 st3">2.19 mm</text>
	<circle class="st1" cx="26.7" cy="248.1" r="3.1"/>
</g>
</svg>
