<?xml version="1.0" encoding="utf-8"?>
<!-- Generator: Adobe Illustrator 21.1.0, SVG Export Plug-In . SVG Version: 6.00 Build 0)  -->
<svg version="1.1" id="Layer_1" xmlns="http://www.w3.org/2000/svg" xmlns:xlink="http://www.w3.org/1999/xlink" x="0px" y="0px"
	 viewBox="0 0 426.2 432.4" style="enable-background:new 0 0 426.2 432.4;" xml:space="preserve">
<style type="text/css">
	.st0{fill:none;stroke:#000000;stroke-miterlimit:10;}
	.st1{font-family:'Futura-MediumItalic';}
	.st2{font-size:24px;}
	.st3{fill:#FFFFFF;}
	.st4{fill:none;stroke:#000000;stroke-linecap:round;stroke-linejoin:round;}
</style>
<g id="Face">
	<g>
		<g>
			<path class="st0" d="M213.1,0.5C95.6,0.5,0.5,95.6,0.5,213.1s95.1,212.6,212.6,212.6s212.6-95.1,212.6-212.6S330.6,0.5,213.1,0.5
				z"/>
			<path class="st0" d="M390.3,213.1c0,97.9-79.2,177.2-177.2,177.2S35.9,311,35.9,213.1S115.2,35.9,213.1,35.9
				S390.3,115.2,390.3,213.1z"/>
			<path class="st0" d="M213.1,71.4c-78.3,0-141.7,63.4-141.7,141.7s63.4,141.7,141.7,141.7s141.7-63.4,141.7-141.7
				S291.4,71.4,213.1,71.4z"/>
			<path class="st0" d="M319.4,213.1c0,58.8-47.5,106.3-106.3,106.3s-106.3-47.5-106.3-106.3s47.5-106.3,106.3-106.3
				S319.4,154.3,319.4,213.1z"/>
			<path class="st0" d="M213.1,142.2c-39.2,0-70.9,31.7-70.9,70.9s31.7,70.9,70.9,70.9s70.9-31.7,70.9-70.9S252.3,142.2,213.1,142.2
				z"/>
			<path class="st0" d="M248.5,213.1c0,19.6-15.8,35.4-35.4,35.4s-35.4-15.8-35.4-35.4s15.8-35.4,35.4-35.4S248.5,193.5,248.5,213.1
				z"/>
		</g>
		<g>
			<line class="st0" x1="213.1" y1="213.1" x2="213.1" y2="0.5"/>
			<line class="st0" x1="213.1" y1="213.1" x2="415.3" y2="147.4"/>
			<line class="st0" x1="213.1" y1="213.1" x2="338.1" y2="385.1"/>
			<line class="st0" x1="213.1" y1="213.1" x2="88.1" y2="385.1"/>
			<line class="st0" x1="213.1" y1="213.1" x2="10.9" y2="147.4"/>
		</g>
	</g>
</g>
<g id="numbers">
	<text transform="matrix(1 -1.163553e-03 1.163553e-03 1 197.7364 22.705)" class="st1 st2">12</text>
	<text transform="matrix(1 -1.163551e-03 1.163551e-03 1 97.6469 49.7438)" class="st1 st2">11</text>
	<text transform="matrix(1 -1.163540e-03 1.163540e-03 1 24.5333 124.2012)" class="st1 st2">10</text>
	<text transform="matrix(1 -1.163540e-03 1.163540e-03 1 5.3928 221.9462)" class="st1 st2">9</text>
	<text transform="matrix(1 -1.163551e-03 1.163551e-03 1 33.9625 322.0276)" class="st1 st2">8</text>
	<text transform="matrix(1 -1.163540e-03 1.163540e-03 1 104.6663 394.1194)" class="st1 st2">7</text>
	<text transform="matrix(1 -1.163540e-03 1.163540e-03 1 207.1438 425.197)" class="st1 st2">6</text>
	<text transform="matrix(1 -1.163551e-03 1.163551e-03 1 303.2549 395.4851)" class="st1 st2">5</text>
	<text transform="matrix(1 -1.163540e-03 1.163540e-03 1 376.6414 323.2112)" class="st1 st2">4</text>
	<text transform="matrix(1 -1.163540e-03 1.163540e-03 1 406.8934 220.947)" class="st1 st2">3</text>
	<text transform="matrix(1 -1.163552e-03 1.163552e-03 1 377.1634 123.1447)" class="st1 st2">2</text>
	<text transform="matrix(1 -1.163540e-03 1.163540e-03 1 304.7817 49.0534)" class="st1 st2">1</text>
</g>
<g>
	<polyline class="st3" points="218,213.3 217.2,213.3 217.2,213.9 217.1,214.4 216.9,214.9 216.7,215.4 216.4,215.9 216,216.2 
		215.6,216.6 214.7,217.2 214.2,217.3 213.7,217.4 213.1,217.5 212.6,217.4 212,217.3 211.6,217.2 210.6,216.6 210.2,216.2 
		209.9,215.9 209.6,215.4 209.3,214.9 209.2,214.4 209,213.9 209,213.3 207.7,213.3 207.5,228.2 207.4,229.2 207.3,230.2 
		207.2,231.3 206.9,232.3 206.5,233.2 206,234.2 205.6,235.1 205,236 204.5,236.8 204.1,237.6 203.7,238.5 203.5,239.3 203.3,240.2 
		203.2,241.1 203.2,242 203.3,242.9 203.4,243.8 203.7,244.7 204,245.5 204.3,246.3 204.8,247.1 205.3,247.9 205.9,248.5 
		207.3,249.8 208.1,250.2 208.9,250.6 209.7,251 210.6,251.3 211.4,251.5 212.4,251.6 213.3,251.6 213.3,251.6 214.2,251.6 
		215.1,251.4 216,251.2 216.8,250.9 217.6,250.5 218.4,250 219.2,249.6 220.5,248.3 221.1,247.6 221.6,246.9 222,246.1 222.4,245.2 
		222.7,244.4 222.9,243.5 223,242.6 223,241.7 223,240.8 222.9,239.9 222.7,239 222.4,238.2 222,237.3 221.6,236.5 221.1,235.8 
		220.4,234.9 219.9,233.9 219.4,232.9 219,231.9 218.7,230.8 218.5,229.8 218.3,228.6 218.3,227.5 	"/>
	<polyline class="st3" points="213.1,14.9 213.1,14.9 212.6,15 211.6,15.5 211.3,16 211,16.5 211,17 207.7,213.3 209,213.3 
		209.1,212.5 209.3,211.8 209.7,211 210.2,210.5 210.9,209.9 211.6,209.5 212.3,209.3 213.1,209.2 213.9,209.3 214.7,209.5 
		215.4,209.9 216,210.5 216.6,211 216.9,211.8 217.2,212.5 217.2,213.3 218,213.3 215.3,17 215.3,17 215.3,17 215.2,16.5 215,16 
		214.6,15.5 213.7,15 	"/>
	<path class="st4" d="M215.3,17l3,210.5c0,0.7,0.1,1.5,0.2,2.2c0.1,0.7,0.3,1.4,0.5,2.1s0.5,1.4,0.9,2.1c0.4,0.6,0.7,1.2,1.2,1.8
		l0,0c0.7,1,1.2,2.1,1.6,3.2c0.3,1.2,0.4,2.4,0.3,3.6c-0.1,1.2-0.4,2.4-0.9,3.5c-0.5,1.1-1.3,2.1-2.2,2.9c-0.9,0.8-1.9,1.5-3.1,1.9
		c-1.1,0.4-2.3,0.7-3.5,0.7c-1.2,0-2.4-0.2-3.6-0.6c-1.1-0.4-2.2-1-3.1-1.8c-0.9-0.8-1.7-1.7-2.3-2.8c-0.5-1.1-0.9-2.2-1.1-3.4
		c-0.2-1.2-0.1-2.4,0.2-3.6c0.3-1.2,0.8-2.3,1.5-3.3l0,0c0.4-0.5,0.7-1.1,1.1-1.8c0.3-0.6,0.6-1.3,0.8-1.9c0.2-0.7,0.4-1.4,0.5-2.1
		c0.1-0.7,0.2-1.4,0.2-2.1l0,0L211,17c0-0.2,0-0.4,0.1-0.5c0.1-0.2,0.2-0.4,0.2-0.5c0.1-0.2,0.2-0.3,0.4-0.5
		c0.1-0.1,0.3-0.2,0.4-0.3c0.2-0.1,0.3-0.2,0.5-0.2c0.2,0,0.4-0.1,0.5-0.1c0.2,0,0.4,0,0.6,0.1c0.2,0,0.3,0.1,0.5,0.2
		c0.2,0.1,0.4,0.2,0.5,0.3c0.1,0.2,0.2,0.3,0.4,0.5c0.1,0.2,0.1,0.3,0.2,0.5C215.2,16.7,215.3,16.9,215.3,17L215.3,17"/>
	<path class="st4" d="M209,213.3c0,0.4,0,0.7,0.1,1.1c0.1,0.4,0.2,0.7,0.4,1c0.2,0.3,0.4,0.6,0.6,0.8c0.3,0.3,0.6,0.5,0.8,0.7
		c0.3,0.2,0.6,0.3,1,0.4c0.4,0.1,0.7,0.1,1.1,0.1c0.4,0,0.7,0,1.1-0.1c0.4-0.1,0.7-0.3,1-0.4c0.3-0.2,0.6-0.4,0.9-0.7
		c0.2-0.2,0.5-0.5,0.6-0.8c0.2-0.3,0.3-0.6,0.4-1c0.1-0.4,0.1-0.7,0.1-1.1l0,0c0-0.5-0.1-1.1-0.3-1.6s-0.5-0.9-0.9-1.3
		c-0.4-0.4-0.8-0.7-1.4-0.9c-0.5-0.2-1-0.3-1.6-0.3l0,0c-0.5,0-1,0.1-1.5,0.3c-0.5,0.2-1,0.6-1.4,0.9c-0.4,0.3-0.7,0.8-0.9,1.3
		C209.1,212.3,209,212.8,209,213.3L209,213.3"/>
</g>
<g>
	<line class="st4" x1="217.3" y1="215.6" x2="217.3" y2="211"/>
	<polyline class="st3" points="219.7,213.3 217.3,213.3 217.3,215.6 216.9,216.2 216.5,216.7 216.1,217.1 215.5,217.5 214.9,217.8 
		214.4,217.9 213.8,218 213.1,218.1 212.5,218 211.8,217.9 211.2,217.8 210.7,217.5 210.2,217.1 209.7,216.7 209.3,216.2 
		208.9,215.6 208.9,213.3 206.5,213.3 205.8,231.4 205.7,232.9 205.3,234.4 204.9,235.8 204.2,237.2 203.9,238 203.7,238.8 
		203.4,239.6 203.3,240.4 203.2,241.3 203.2,242.1 203.3,242.9 203.4,243.8 203.7,244.6 203.9,245.4 204.2,246.2 204.7,246.9 
		205.1,247.6 205.7,248.2 206.2,248.9 207.5,249.9 208.3,250.3 209,250.8 209.8,251 210.6,251.3 211.4,251.5 212.3,251.6 
		213.1,251.6 213.1,251.6 213.9,251.6 214.8,251.5 215.6,251.3 216.4,251 217.2,250.8 217.9,250.3 218.7,249.9 220,248.9 
		220.5,248.2 221.1,247.6 221.6,246.9 221.9,246.2 222.3,245.4 222.6,244.6 222.8,243.8 222.9,242.9 223,242.1 223,241.3 
		222.9,240.4 222.8,239.6 222.6,238.8 222.3,238 221.9,237.2 221.4,235.8 220.9,234.4 220.6,232.9 220.5,231.4 	"/>
	<polyline class="st3" points="217.8,165.5 215.4,165.5 216.9,198.8 216.9,198.8 216.9,199 216.9,199 216.8,199.3 216.8,199.3 
		216.8,199.6 216.8,199.6 216.7,199.9 216.7,199.9 216.5,200.2 216.5,200.2 216.3,200.4 216.3,200.4 216.1,200.6 216.1,200.6 
		215.8,200.8 215.8,200.8 215.6,201 215.6,201 215.3,201.2 215.3,201.2 214.9,201.3 214.9,201.3 214.7,201.5 214.7,201.5 
		214.3,201.6 214.3,201.6 213.9,201.6 213.9,201.6 213.5,201.7 213.5,201.7 213.2,201.7 213.2,201.7 213.1,201.7 213.1,201.7 
		212.8,201.7 212.8,201.7 212.4,201.7 212.4,201.7 212.1,201.6 212.1,201.6 211.7,201.5 211.7,201.5 211.4,201.4 211.4,201.4 
		211.1,201.3 211.1,201.3 210.8,201.1 210.8,201.1 210.5,200.9 210.5,200.9 210.2,200.7 210.2,200.7 210,200.5 210,200.5 
		209.8,200.2 209.8,200.2 209.7,200 209.7,200 209.5,199.7 209.5,199.7 209.4,199.4 209.4,199.4 209.4,199.2 209.4,199.2 
		209.4,198.9 210.8,165.5 208.4,165.5 206.5,213.3 208.9,213.3 208.9,211 209.3,210.5 209.7,210 210.2,209.6 210.7,209.2 
		211.2,208.9 211.8,208.8 212.5,208.6 213.1,208.6 213.8,208.6 214.4,208.8 214.9,208.9 215.5,209.2 216.1,209.6 216.5,210 
		216.9,210.5 217.3,211 217.3,211 217.3,213.3 219.7,213.3 	"/>
	<polyline class="st3" points="213.1,99.9 213.1,99.9 212.5,100 211.6,100.6 211.3,101 211.1,101.5 211,102.1 211,102.1 
		208.4,165.5 210.8,165.5 212.3,129.9 212.3,129.9 212.3,129.9 212.3,129.9 212.3,129.8 212.3,129.8 212.3,129.7 212.3,129.7 
		212.4,129.6 212.4,129.6 212.4,129.6 212.4,129.6 212.4,129.6 212.4,129.6 212.5,129.5 212.5,129.5 212.5,129.5 212.5,129.5 
		212.6,129.4 212.6,129.4 212.7,129.4 212.7,129.4 212.7,129.3 212.7,129.3 212.8,129.3 212.8,129.3 212.9,129.3 212.9,129.3 
		212.9,129.3 212.9,129.3 213,129.3 213,129.3 213.1,129.3 213.1,129.3 213.1,129.3 213.1,129.3 213.2,129.3 213.2,129.3 
		213.2,129.3 213.2,129.3 213.4,129.3 213.4,129.3 213.4,129.3 213.4,129.3 213.5,129.3 213.5,129.3 213.6,129.3 213.6,129.3 
		213.6,129.3 213.6,129.3 213.7,129.4 213.7,129.4 213.7,129.5 213.7,129.5 213.8,129.5 213.8,129.5 213.8,129.5 213.8,129.5 
		213.8,129.6 213.8,129.6 213.9,129.6 213.9,129.6 213.9,129.7 213.9,129.7 213.9,129.8 213.9,129.8 213.9,129.8 213.9,129.8 
		213.9,129.9 215.4,165.5 217.8,165.5 215.2,102.1 215.2,101.5 214.9,101 214.6,100.6 213.7,100 	"/>
	<path class="st4" d="M211,102.1c0-0.2,0-0.4,0.1-0.6c0-0.2,0.1-0.3,0.2-0.5c0.1-0.2,0.2-0.4,0.3-0.5c0.2-0.1,0.3-0.2,0.5-0.4
		c0.2-0.1,0.3-0.1,0.5-0.2c0.2-0.1,0.4-0.1,0.6-0.1c0.2,0,0.4,0,0.5,0.1c0.2,0,0.4,0.1,0.5,0.2c0.2,0.1,0.3,0.2,0.4,0.4
		c0.2,0.1,0.3,0.3,0.4,0.5c0.1,0.2,0.2,0.3,0.2,0.5c0,0.2,0.1,0.4,0.1,0.6l0,0l5.2,129.3c0,0.5,0,1,0.1,1.5c0.1,0.5,0.2,1,0.3,1.5
		c0.1,0.5,0.3,0.9,0.5,1.4s0.4,0.9,0.6,1.4l0,0c0.5,1,0.8,2.1,1,3.2c0.2,1.1,0.1,2.3-0.1,3.4c-0.2,1.1-0.7,2.2-1.2,3.1
		c-0.6,1-1.4,1.8-2.2,2.5c-0.9,0.7-1.9,1.3-2.9,1.6c-1.1,0.4-2.2,0.6-3.3,0.6s-2.2-0.2-3.3-0.6c-1.1-0.4-2.1-0.9-2.9-1.6
		c-0.9-0.7-1.7-1.6-2.2-2.5c-0.6-0.9-1-2-1.2-3.1c-0.2-1.1-0.3-2.2-0.1-3.4c0.1-1.1,0.4-2.2,0.9-3.2l0,0c0.2-0.5,0.5-0.9,0.6-1.4
		c0.2-0.5,0.3-0.9,0.4-1.4c0.2-0.5,0.3-1,0.4-1.5c0-0.5,0.1-1,0.1-1.5l0,0L211,102.1"/>
	<path class="st4" d="M213.6,129.3c0,0-0.1,0-0.1,0l0,0c0,0,0,0-0.1,0l0,0c0,0-0.1-0.1-0.1-0.1l0,0c0,0-0.1,0-0.1,0l0,0
		c0,0,0,0-0.1,0l0,0c0,0-0.1,0-0.1,0l0,0l0,0c0,0-0.1,0-0.1,0l0,0c0,0,0,0-0.1,0l0,0c0,0-0.1,0-0.1,0l0,0c0,0-0.1,0-0.1,0.1l0,0
		c0,0,0,0-0.1,0l0,0c0,0-0.1,0-0.1,0.1l0,0c0,0-0.1,0-0.1,0l0,0c0,0-0.1,0.1-0.1,0.1l0,0c0,0-0.1,0-0.1,0.1l0,0c0,0-0.1,0-0.1,0.1
		l0,0c0,0,0,0-0.1,0.1l0,0l0,0c0,0-0.1,0.1-0.1,0.1l0,0c0,0,0,0.1,0,0.1l0,0c0,0,0,0.1,0,0.1l0,0c0,0,0,0,0,0.1l0,0l-2.9,68.9
		c0,0.1,0,0.2,0,0.3l0,0c0,0.1,0,0.2,0.1,0.2l0,0c0,0.1,0.1,0.2,0.1,0.3l0,0c0,0.1,0,0.2,0.1,0.3l0,0c0,0.1,0.1,0.2,0.1,0.2l0,0
		c0.1,0.1,0.2,0.2,0.2,0.2l0,0c0.1,0.1,0.2,0.2,0.2,0.2l0,0c0.1,0.1,0.2,0.2,0.2,0.2l0,0c0.1,0,0.2,0.1,0.3,0.2l0,0
		c0.1,0,0.2,0.1,0.3,0.2l0,0c0.1,0,0.2,0.1,0.3,0.1l0,0c0.1,0,0.2,0.1,0.4,0.1l0,0c0.1,0,0.2,0.1,0.4,0.1l0,0c0.1,0,0.2,0,0.4,0.1
		l0,0c0.1,0,0.3,0,0.4,0l0,0c0.1,0,0.2,0,0.3,0l0,0c0,0,0,0,0.1,0l0,0c0.1,0,0.2,0,0.4,0l0,0c0.1,0,0.2,0,0.4-0.1l0,0
		c0.2,0,0.3,0,0.4-0.1l0,0c0.1,0,0.2-0.1,0.4-0.1l0,0c0.1,0,0.2-0.1,0.3-0.1l0,0c0.1,0,0.2-0.1,0.4-0.1l0,0c0.1-0.1,0.2-0.1,0.3-0.2
		l0,0c0.1-0.1,0.2-0.2,0.2-0.2l0,0c0.1,0,0.2-0.1,0.2-0.2l0,0c0.1-0.1,0.2-0.2,0.2-0.2l0,0c0.1-0.1,0.1-0.2,0.2-0.2l0,0
		c0.1-0.1,0.1-0.2,0.2-0.3l0,0c0-0.1,0.1-0.2,0.1-0.2l0,0c0-0.1,0.1-0.2,0.1-0.3l0,0c0-0.1,0.1-0.2,0.1-0.3l0,0c0-0.1,0-0.2,0-0.3
		l0,0l-2.9-68.9c0,0,0,0,0-0.1l0,0c0,0,0,0,0-0.1l0,0c0,0,0,0-0.1-0.1l0,0c0,0,0,0,0-0.1l0,0c0,0,0,0-0.1-0.1l0,0c0,0,0,0-0.1-0.1
		l0,0l0,0c0,0-0.1-0.1-0.1-0.1l0,0C213.7,129.4,213.7,129.4,213.6,129.3L213.6,129.3C213.6,129.4,213.6,129.4,213.6,129.3
		L213.6,129.3"/>
	<path class="st4" d="M217.3,211c-0.2-0.4-0.5-0.7-0.8-1.1c-0.3-0.3-0.6-0.5-1-0.8c-0.4-0.2-0.7-0.4-1.2-0.5
		c-0.4-0.1-0.8-0.2-1.2-0.2l0,0c-0.4,0-0.9,0.1-1.3,0.2c-0.4,0.1-0.8,0.3-1.1,0.5c-0.4,0.2-0.7,0.5-1,0.8c-0.3,0.3-0.6,0.7-0.8,1.1
		l0,0v4.6c0.2,0.4,0.5,0.7,0.8,1.1c0.3,0.3,0.6,0.5,1,0.8c0.4,0.2,0.7,0.4,1.1,0.5c0.4,0.1,0.9,0.2,1.3,0.2l0,0
		c0.4,0,0.8-0.1,1.2-0.2c0.4-0.1,0.8-0.3,1.2-0.5c0.4-0.2,0.7-0.5,1-0.8c0.3-0.3,0.6-0.7,0.8-1.1l0,0V211"/>
</g>
<g>
	<polyline class="st3" points="221.6,213.3 220.5,213.3 220.4,214 220.3,214.8 220.1,215.5 219.9,216.2 219.6,216.8 219.3,217.5 
		218.8,218 218.3,218.6 217.8,219 217.2,219.5 216.6,219.9 215.9,220.2 215.3,220.4 214.6,220.6 213.8,220.7 212.4,220.7 
		211.7,220.6 211,220.4 210.3,220.2 209.6,219.9 209,219.5 208.4,219 207.9,218.6 207.4,218 207,217.5 206.6,216.8 206.3,216.2 
		206,215.5 205.8,214.8 205.8,214 205.7,213.3 204.5,213.3 203.6,237.5 203.6,238.6 203.4,239.8 203.2,241.2 203.3,242.7 
		203.5,244.1 204,245.5 204.6,246.8 205.4,248 206.4,249 208.8,250.6 210.2,251.2 211.7,251.5 213.1,251.6 213.1,251.6 214.6,251.5 
		216,251.2 217.3,250.6 219.8,249 220.8,248 221.6,246.8 222.3,245.5 222.7,244.1 223,242.7 223,241.2 222.8,239.8 222.7,238.6 
		222.6,237.5 	"/>
	<polyline class="st3" points="219.1,147.8 215.6,147.8 217.3,197.3 217.3,198.2 217,199 216.6,199.8 215.5,200.9 214.7,201.3 
		214,201.6 213.1,201.7 213.1,201.7 213.1,201.7 212.3,201.6 211.4,201.4 210.7,201 209.5,199.9 209.1,199.1 208.8,198.3 
		208.8,197.5 210.4,147.8 207,147.8 204.5,213.3 205.7,213.3 205.8,212.6 205.8,211.9 206,211.2 206.3,210.5 206.6,209.9 207,209.2 
		207.4,208.7 207.9,208.1 208.4,207.6 209,207.2 209.6,206.9 210.3,206.5 211,206.3 211.7,206.1 212.4,206 213.1,206 213.1,206 
		213.1,206 213.8,206 214.6,206.1 215.3,206.3 215.9,206.5 216.6,206.9 217.2,207.2 217.8,207.6 218.3,208.1 218.8,208.7 
		219.3,209.2 219.6,209.9 219.9,210.5 220.1,211.2 220.3,211.9 220.4,212.6 220.5,213.3 221.6,213.3 	"/>
	<polyline class="st3" points="213.1,43.3 213.1,43.3 212.6,43.3 211.6,43.9 211.3,44.3 211,44.8 211,45.4 207,147.8 210.4,147.8 
		212.1,94.8 212.2,94.3 212.7,93.9 213.1,93.8 213.4,93.9 213.7,94.1 213.9,94.3 214,94.7 215.6,147.8 219.1,147.8 215.3,45.4 
		215.3,45.4 215.3,45.4 215.1,44.8 215,44.3 214.6,43.9 213.7,43.3 	"/>
	<path class="st4" d="M215.3,45.4l7.3,192.1c0,0.2,0.1,0.4,0.1,0.6s0,0.4,0.1,0.5c0,0.2,0,0.4,0.1,0.6c0,0.2,0.1,0.3,0.1,0.5l0,0
		c0.2,1,0.2,2,0.1,2.9c-0.1,0.9-0.3,1.9-0.7,2.8c-0.4,0.9-0.8,1.7-1.5,2.5c-0.6,0.7-1.4,1.4-2.2,1.9s-1.7,1-2.6,1.2
		c-0.9,0.3-1.9,0.5-2.9,0.5s-1.9-0.2-2.9-0.5c-0.9-0.3-1.8-0.7-2.6-1.2c-0.8-0.5-1.6-1.2-2.2-1.9c-0.6-0.7-1.1-1.6-1.5-2.5
		c-0.4-0.9-0.6-1.9-0.7-2.8c-0.1-1-0.1-2,0.1-2.9l0,0c0-0.2,0.1-0.4,0.1-0.5c0-0.2,0-0.4,0.1-0.6c0-0.2,0-0.3,0.1-0.5
		c0-0.2,0-0.4,0-0.6l0,0L211,45.4c0-0.2,0-0.4,0.1-0.6c0.1-0.2,0.2-0.3,0.2-0.5c0.1-0.2,0.2-0.3,0.4-0.5c0.1-0.1,0.3-0.2,0.4-0.3
		c0.2-0.1,0.3-0.2,0.5-0.2c0.2,0,0.4-0.1,0.5-0.1c0.2,0,0.4,0,0.6,0.1c0.2,0,0.3,0.1,0.5,0.2c0.2,0.1,0.4,0.2,0.5,0.3
		c0.1,0.2,0.2,0.3,0.4,0.5c0.1,0.2,0.1,0.3,0.2,0.5C215.2,45,215.3,45.2,215.3,45.4L215.3,45.4"/>
	<path class="st4" d="M213.1,206c-1,0-1.9,0.2-2.8,0.5c-0.9,0.4-1.7,0.9-2.4,1.6c-0.7,0.7-1.2,1.5-1.6,2.4c-0.4,0.9-0.6,1.9-0.6,2.8
		l0,0c0,1,0.2,1.9,0.6,2.8c0.3,0.9,0.9,1.7,1.6,2.4c0.7,0.7,1.5,1.2,2.4,1.6c0.9,0.4,1.9,0.5,2.8,0.5c1,0,1.9-0.2,2.8-0.5
		c0.9-0.4,1.7-0.9,2.4-1.6c0.7-0.7,1.2-1.5,1.6-2.4c0.4-0.9,0.6-1.9,0.6-2.8l0,0c0-1-0.2-1.9-0.6-2.8c-0.4-0.9-0.9-1.7-1.6-2.4
		c-0.7-0.7-1.5-1.2-2.4-1.6C215,206.2,214.1,206,213.1,206L213.1,206"/>
	<path class="st4" d="M213.1,201.7c0.3,0,0.6,0,0.9-0.1c0.3-0.1,0.5-0.2,0.8-0.3c0.3-0.1,0.5-0.2,0.8-0.4c0.2-0.2,0.5-0.3,0.6-0.5
		c0.2-0.2,0.3-0.4,0.5-0.6c0.2-0.2,0.3-0.5,0.4-0.8c0.1-0.3,0.2-0.6,0.2-0.8c0-0.3,0-0.6,0-0.8l0,0L214,94.7c0-0.1,0-0.2-0.1-0.4
		c0-0.1-0.1-0.2-0.2-0.2c-0.1-0.1-0.2-0.2-0.3-0.2s-0.2-0.1-0.4-0.1l0,0c0,0-0.1,0-0.2,0c-0.1,0-0.1,0-0.2,0.1c-0.1,0-0.1,0-0.2,0.1
		s-0.1,0.1-0.2,0.1c0,0-0.1,0.1-0.1,0.1c0,0.1-0.1,0.1-0.1,0.2c0,0.1-0.1,0.1-0.1,0.2c0,0.1-0.1,0.2-0.1,0.2l0,0l-3.3,102.7
		c0,0.3,0,0.5,0.1,0.8c0.1,0.3,0.2,0.5,0.3,0.8c0.1,0.3,0.2,0.5,0.4,0.8c0.2,0.2,0.4,0.5,0.6,0.6c0.2,0.2,0.4,0.4,0.6,0.5
		c0.2,0.2,0.5,0.3,0.7,0.4c0.3,0.1,0.6,0.2,0.8,0.2C212.5,201.7,212.8,201.7,213.1,201.7L213.1,201.7"/>
</g>
</svg>
