<?xml version="1.0" encoding="utf-8"?>
<!-- Generator: Adobe Illustrator 21.1.0, SVG Export Plug-In . SVG Version: 6.00 Build 0)  -->
<svg version="1.1" id="Layer_1" xmlns="http://www.w3.org/2000/svg" xmlns:xlink="http://www.w3.org/1999/xlink" x="0px" y="0px"
	 viewBox="0 0 192.8 190.7" style="enable-background:new 0 0 192.8 190.7;" xml:space="preserve">
<style type="text/css">
	.st0{font-family:'ArialRoundedMTBold';}
	.st1{font-size:12px;}
</style>
<g id="numbers">
	<text transform="matrix(1.045 -1.163552e-03 1.215960e-03 1 88.8088 10.3844)" class="st0 st1">12</text>
	<text transform="matrix(1.045 -1.163550e-03 1.215958e-03 1 42.6021 22.3295)" class="st0 st1">11</text>
	<text transform="matrix(1.045 -1.163539e-03 1.215947e-03 1 8.8494 55.2217)" class="st0 st1">10</text>
	<text transform="matrix(1.045 -1.163539e-03 1.215947e-03 1 1.277750e-02 98.4015)" class="st0 st1">9</text>
	<text transform="matrix(1.045 -1.163550e-03 1.215958e-03 1 13.2014 142.6133)" class="st0 st1">8</text>
	<text transform="matrix(1.045 -1.163539e-03 1.215947e-03 1 45.8426 174.4599)" class="st0 st1">7</text>
	<text transform="matrix(1.045 -1.163539e-03 1.215947e-03 1 93.1519 188.1885)" class="st0 st1">6</text>
	<text transform="matrix(1.045 -1.163550e-03 1.215958e-03 1 137.5233 175.0628)" class="st0 st1">5</text>
	<text transform="matrix(1.045 -1.163539e-03 1.215947e-03 1 171.4024 143.1355)" class="st0 st1">4</text>
	<text transform="matrix(1.045 -1.163539e-03 1.215947e-03 1 185.368 97.9597)" class="st0 st1">3</text>
	<text transform="matrix(1.045 -1.163551e-03 1.215959e-03 1 171.6436 54.7551)" class="st0 st1">2</text>
	<text transform="matrix(1.045 -1.163539e-03 1.215947e-03 1 138.2277 22.0248)" class="st0 st1">1</text>
</g>
<path d="M107.5,97.8c0.1-0.2,0.1-0.5,0.1-0.7c0.1-0.2,0.1-0.4,0.1-0.6c0.1-0.2,0.1-0.5,0.1-0.6c0-0.2,0-0.5,0-0.7l0,0
	c0-0.2,0-0.5,0-0.8c0-0.2,0-0.5-0.1-0.8c-0.1-0.2-0.1-0.5-0.2-0.7c-0.1-0.3-0.1-0.6-0.2-0.8l0,0c-0.4-1.3-1-2.5-1.8-3.6
	c-0.8-1.1-1.9-2-3-2.8c-1.1-0.7-2.4-1.2-3.7-1.4c-1.4-0.3-2.8-0.4-4.1-0.2c-1.4,0.2-2.7,0.7-3.9,1.4c-1.2,0.7-2.2,1.5-3.1,2.6
	c-0.9,1-1.6,2.2-2,3.5c-0.5,1.3-0.7,2.6-0.6,4c0,1.4,0.3,2.7,0.8,4s1.2,2.4,2.2,3.4c0.9,1,2,1.8,3.3,2.4c1.2,0.6,2.5,1,3.9,1.2
	c1.3,0.1,2.7,0,4-0.4c1.3-0.3,2.6-0.9,3.7-1.6c1.1-0.8,2.1-1.8,2.8-2.9C106.6,100.4,107.1,99.2,107.5,97.8L107.5,97.8"/>
</svg>
