<?xml version="1.0" encoding="utf-8"?>
<!-- Generator: Adobe Illustrator 21.1.0, SVG Export Plug-In . SVG Version: 6.00 Build 0)  -->
<svg version="1.1" xmlns="http://www.w3.org/2000/svg" xmlns:xlink="http://www.w3.org/1999/xlink" x="0px" y="0px"
	 viewBox="0 0 426.2 432.4" style="enable-background:new 0 0 426.2 432.4;" xml:space="preserve">
<style type="text/css">
	.st0{fill:none;stroke:#000000;stroke-miterlimit:10;}
	.st1{font-family:'Futura-MediumItalic';}
	.st2{font-size:24px;}
</style>
<g id="Face">
	<g>
		<g>
			<path class="st0" d="M213.1,0.5C95.6,0.5,0.5,95.6,0.5,213.1s95.1,212.6,212.6,212.6s212.6-95.1,212.6-212.6S330.6,0.5,213.1,0.5
				z"/>
			<path class="st0" d="M390.3,213.1c0,97.9-79.2,177.2-177.2,177.2S35.9,311,35.9,213.1S115.2,35.9,213.1,35.9
				S390.3,115.2,390.3,213.1z"/>
			<path class="st0" d="M213.1,71.4c-78.3,0-141.7,63.4-141.7,141.7s63.4,141.7,141.7,141.7s141.7-63.4,141.7-141.7
				S291.4,71.4,213.1,71.4z"/>
			<path class="st0" d="M319.4,213.1c0,58.8-47.5,106.3-106.3,106.3s-106.3-47.5-106.3-106.3s47.5-106.3,106.3-106.3
				S319.4,154.3,319.4,213.1z"/>
			<path class="st0" d="M213.1,142.2c-39.2,0-70.9,31.7-70.9,70.9s31.7,70.9,70.9,70.9s70.9-31.7,70.9-70.9S252.3,142.2,213.1,142.2
				z"/>
			<path class="st0" d="M248.5,213.1c0,19.6-15.8,35.4-35.4,35.4s-35.4-15.8-35.4-35.4s15.8-35.4,35.4-35.4S248.5,193.5,248.5,213.1
				z"/>
		</g>
		<g>
			<line class="st0" x1="213.1" y1="213.1" x2="213.1" y2="0.5"/>
			<line class="st0" x1="213.1" y1="213.1" x2="415.3" y2="147.4"/>
			<line class="st0" x1="213.1" y1="213.1" x2="338.1" y2="385.1"/>
			<line class="st0" x1="213.1" y1="213.1" x2="88.1" y2="385.1"/>
			<line class="st0" x1="213.1" y1="213.1" x2="10.9" y2="147.4"/>
		</g>
	</g>
</g>
<g id="numbers">
	<text transform="matrix(1 -1.163553e-03 1.163553e-03 1 197.7364 22.705)" class="st1 st2">12</text>
	<text transform="matrix(1 -1.163551e-03 1.163551e-03 1 97.6469 49.7438)" class="st1 st2">11</text>
	<text transform="matrix(1 -1.163540e-03 1.163540e-03 1 24.5333 124.2012)" class="st1 st2">10</text>
	<text transform="matrix(1 -1.163540e-03 1.163540e-03 1 5.3928 221.9462)" class="st1 st2">9</text>
	<text transform="matrix(1 -1.163551e-03 1.163551e-03 1 33.9625 322.0276)" class="st1 st2">8</text>
	<text transform="matrix(1 -1.163540e-03 1.163540e-03 1 104.6663 394.1194)" class="st1 st2">7</text>
	<text transform="matrix(1 -1.163540e-03 1.163540e-03 1 207.1438 425.197)" class="st1 st2">6</text>
	<text transform="matrix(1 -1.163551e-03 1.163551e-03 1 303.2549 395.4851)" class="st1 st2">5</text>
	<text transform="matrix(1 -1.163540e-03 1.163540e-03 1 376.6414 323.2112)" class="st1 st2">4</text>
	<text transform="matrix(1 -1.163540e-03 1.163540e-03 1 406.8934 220.947)" class="st1 st2">3</text>
	<text transform="matrix(1 -1.163552e-03 1.163552e-03 1 377.1634 123.1447)" class="st1 st2">2</text>
	<text transform="matrix(1 -1.163540e-03 1.163540e-03 1 304.7817 49.0534)" class="st1 st2">1</text>
</g>
<g id="minute_1_">
	<path class="st0" d="M210.3,31.3v221.8c0,1.4,1.1,2.5,2.5,2.5h0.7c1.4,0,2.5-1.1,2.5-2.5V31.3c0-1.4-1.1-2.5-2.5-2.5h-0.7
		C211.4,28.8,210.3,30,210.3,31.3z"/>
</g>
<g id="second_1_">
	<path class="st0" d="M210.3,45.5v207.6c0,1.4,1.1,2.5,2.5,2.5h0.7c1.4,0,2.5-1.1,2.5-2.5V45.5c0-1.4-1.1-2.5-2.5-2.5h-0.7
		C211.4,43,210.3,44.1,210.3,45.5z"/>
</g>
<g id="hour_1_">
	<path class="st0" d="M210.3,116.4v136.7c0,1.4,1.1,2.5,2.5,2.5h0.7c1.4,0,2.5-1.1,2.5-2.5V116.4c0-1.4-1.1-2.5-2.5-2.5h-0.7
		C211.4,113.9,210.3,115,210.3,116.4z"/>
</g>
</svg>
