<?xml version="1.0" encoding="utf-8"?>
<!-- Generator: Adobe Illustrator 16.0.0, SVG Export Plug-In . SVG Version: 6.00 Build 0)  -->
<!DOCTYPE svg PUBLIC "-//W3C//DTD SVG 1.1//EN" "http://www.w3.org/Graphics/SVG/1.1/DTD/svg11.dtd">
<svg version="1.1" id="Layer_1" xmlns="http://www.w3.org/2000/svg" xmlns:xlink="http://www.w3.org/1999/xlink" x="0px" y="0px"
	 width="314.271px" height="183.714px" viewBox="928.106 598.36 314.271 183.714"
	 enable-background="new 928.106 598.36 314.271 183.714" xml:space="preserve">
<path fill="none" stroke="#000000" stroke-width="0.118" stroke-linecap="round" stroke-linejoin="round" d="M1132.432,640.715
	c0,2.553-2.067,4.624-4.623,4.624c-2.554,0-4.625-2.071-4.625-4.624c0-2.554,2.071-4.624,4.625-4.624
	C1130.363,636.091,1132.432,638.161,1132.432,640.715"/>
<path fill="none" stroke="#000000" stroke-width="0.118" stroke-linecap="round" stroke-linejoin="round" d="M1132.432,739.723
	c0,2.555-2.067,4.623-4.623,4.623c-2.554,0-4.625-2.068-4.625-4.623s2.071-4.625,4.625-4.625
	C1130.363,735.098,1132.432,737.168,1132.432,739.723"/>
<path fill="none" stroke="#000000" stroke-width="0.118" stroke-linecap="round" stroke-linejoin="round" d="M1191.592,739.586
	c0,2.553-2.068,4.623-4.624,4.623c-2.554,0-4.624-2.07-4.624-4.623c0-2.554,2.07-4.624,4.624-4.624
	S1191.592,737.032,1191.592,739.586"/>
<path fill="none" stroke="#000000" stroke-width="0.118" stroke-linecap="round" stroke-linejoin="round" d="M1191.592,690.15
	c0,2.516-2.068,4.556-4.624,4.556c-2.554,0-4.624-2.04-4.624-4.556c0-2.519,2.07-4.559,4.624-4.559
	C1189.521,685.593,1191.592,687.634,1191.592,690.15"/>
<path fill="none" stroke="#000000" stroke-width="0.118" stroke-linecap="round" stroke-linejoin="round" d="M1191.592,640.715
	c0,2.553-2.068,4.624-4.624,4.624c-2.554,0-4.624-2.071-4.624-4.624c0-2.554,2.07-4.624,4.624-4.624
	S1191.592,638.161,1191.592,640.715"/>
<path fill="none" stroke="#000000" stroke-width="0.118" stroke-linecap="round" stroke-linejoin="round" d="M1154.464,610.523
	c0,2.178-1.796,3.941-4.012,3.941s-4.013-1.766-4.013-3.941c0-2.179,1.797-3.944,4.013-3.944S1154.464,608.346,1154.464,610.523"/>
<path fill="none" stroke="#000000" stroke-width="0.118" stroke-linecap="round" stroke-linejoin="round" d="M1154.464,769.846
	c0,2.215-1.796,4.014-4.012,4.014s-4.013-1.799-4.013-4.014c0-2.217,1.797-4.013,4.013-4.013S1154.464,767.629,1154.464,769.846"/>
<path fill="none" stroke="#000000" stroke-width="0.118" stroke-linecap="round" stroke-linejoin="round" d="M1234.023,690.15
	c0,2.216-1.769,4.012-3.944,4.012s-3.944-1.796-3.944-4.012c0-2.219,1.769-4.014,3.944-4.014S1234.023,687.934,1234.023,690.15"/>
<path fill="none" stroke="#000000" stroke-width="0.118" stroke-linecap="round" stroke-linejoin="round" d="M950.738,617.051
	c0,2.178-1.768,3.944-3.943,3.944c-2.179,0-3.943-1.769-3.943-3.944s1.767-3.941,3.943-3.941
	C948.973,613.107,950.738,614.873,950.738,617.051"/>
<path fill="none" stroke="#000000" stroke-width="0.118" stroke-linecap="round" stroke-linejoin="round" d="M950.738,763.249
	c0,2.178-1.768,3.944-3.943,3.944c-2.179,0-3.943-1.769-3.943-3.944c0-2.179,1.767-3.944,3.943-3.944
	S950.738,761.07,950.738,763.249"/>
<path fill="none" stroke="#000000" stroke-width="0.118" stroke-linecap="round" stroke-linejoin="round" d="M1150.384,598.419
	c12.116,0,24.095,2.358,35.227,6.938c11.128,4.574,21.258,11.328,29.78,19.854c8.526,8.525,15.279,18.655,19.856,29.784
	c4.667,11.128,7.072,23.104,7.072,35.223c0,12.026-2.405,23.959-7.072,35.089c-4.577,11.127-11.33,21.256-19.856,29.782
	c-8.522,8.526-18.652,15.279-29.78,19.856c-11.132,4.666-23.108,7.07-35.227,7.07l0,0H937.139c-1.166,0-2.321-0.229-3.397-0.681
	c-1.167-0.448-2.187-1.142-2.992-2.04c-0.81-0.809-1.456-1.779-1.903-2.854c-0.447-1.078-0.681-2.278-0.681-3.537l0,0V607.394
	c0-1.166,0.229-2.368,0.681-3.534c0.448-1.078,1.096-2.047,1.903-2.856c0.808-0.808,1.825-1.455,2.992-1.903
	c1.078-0.447,2.229-0.681,3.397-0.681l0,0H1150.384"/>
<path fill="none" stroke="#000000" stroke-width="0.118" stroke-linecap="round" stroke-linejoin="round" d="M1098.161,663.834
	c2.615-2.975,5.685-5.542,9.112-7.615c3.426-2.074,7.138-3.633,11.016-4.623c3.877-0.9,7.91-1.27,11.967-1.089
	c3.969,0.271,7.863,1.144,11.562,2.584c3.787,1.442,7.313,3.413,10.472,5.847c3.156,2.438,5.906,5.369,8.16,8.705
	c2.254,3.246,3.996,6.866,5.168,10.743c1.262,3.787,1.903,7.775,1.903,11.832c0,3.968-0.644,7.909-1.903,11.696
	c-1.172,3.877-2.914,7.498-5.168,10.744c-2.254,3.336-5.004,6.269-8.16,8.703c-3.156,2.522-6.685,4.496-10.472,5.849
	c-3.697,1.442-7.594,2.313-11.562,2.584c-4.057,0.271-8.09-0.097-11.967-1.088c-3.878-0.992-7.59-2.505-11.016-4.488
	c-3.43-2.073-6.497-4.687-9.112-7.752l0,0c-0.271-0.181-0.499-0.362-0.681-0.544c-0.271-0.181-0.547-0.318-0.815-0.408
	c-0.271-0.181-0.545-0.271-0.815-0.271c-0.271-0.092-0.592-0.139-0.951-0.139l0,0h-12.104c-0.452,0-0.86-0.045-1.224-0.135
	c-0.362-0.092-0.683-0.183-0.952-0.271c-0.362-0.183-0.729-0.363-1.088-0.544c-0.271-0.184-0.545-0.409-0.816-0.682
	c-0.271-0.271-0.499-0.591-0.68-0.953c-0.184-0.271-0.363-0.59-0.544-0.949c-0.183-0.362-0.272-0.729-0.272-1.09
	c-0.09-0.36-0.136-0.727-0.136-1.088l0,0v-38.486c0-0.721,0.139-1.457,0.408-2.178c0.269-0.719,0.685-1.363,1.224-1.902
	c0.539-0.449,1.188-0.864,1.904-1.227c0.629-0.269,1.368-0.407,2.176-0.407l0,0h12.104c0.359,0,0.682-0.046,0.951-0.136
	c0.271,0,0.547-0.092,0.815-0.271c0.271-0.091,0.545-0.229,0.815-0.408C1097.662,664.197,1097.891,664.016,1098.161,663.834
	L1098.161,663.834"/>
</svg>
