<?xml version="1.0" encoding="utf-8"?>
<!-- Generator: Adobe Illustrator 16.0.0, SVG Export Plug-In . SVG Version: 6.00 Build 0)  -->
<!DOCTYPE svg PUBLIC "-//W3C//DTD SVG 1.1//EN" "http://www.w3.org/Graphics/SVG/1.1/DTD/svg11.dtd">
<svg version="1.1" id="Layer_1" xmlns="http://www.w3.org/2000/svg" xmlns:xlink="http://www.w3.org/1999/xlink" x="0px" y="0px"
	 width="314.274px" height="183.716px" viewBox="0 0 314.274 183.716" enable-background="new 0 0 314.274 183.716"
	 xml:space="preserve">
<path fill="none" stroke="#000000" stroke-width="0.118" stroke-linecap="round" stroke-linejoin="round" d="M38.139,116.746H23.994
	c-0.719,0-1.456-0.139-2.176-0.408c-0.629-0.27-1.229-0.685-1.768-1.224c-0.539-0.539-0.954-1.14-1.224-1.769
	c-0.269-0.718-0.408-1.458-0.408-2.176l0,0V72.546c0-0.718,0.14-1.458,0.408-2.176c0.27-0.628,0.685-1.229,1.224-1.768
	c0.538-0.538,1.141-0.954,1.768-1.224c0.719-0.269,1.459-0.408,2.176-0.408l0,0h14.145c1.898-2.349,4.042-4.448,6.393-6.256
	c2.259-1.807,4.768-3.358,7.479-4.623c2.62-1.266,5.404-2.269,8.296-2.992c2.891-0.633,5.812-0.952,8.703-0.952l0,0h59.296
	c5.205,0,10.386,1.017,15.232,2.992c4.756,2.064,9.104,5.024,12.782,8.703c3.681,3.68,6.641,8.028,8.705,12.784
	c1.975,4.847,2.992,10.027,2.992,15.232s-1.018,10.386-2.992,15.232c-2.066,4.761-5.021,9.101-8.705,12.784
	c-3.678,3.679-8.026,6.64-12.782,8.704c-4.847,1.974-10.027,2.992-15.232,2.992l0,0H69.01c-2.891,0-5.812-0.32-8.703-0.952
	c-2.892-0.723-5.676-1.728-8.296-2.992c-2.712-1.266-5.221-2.817-7.479-4.624C42.181,121.194,40.037,119.096,38.139,116.746
	L38.139,116.746"/>
<path fill="none" stroke="#000000" stroke-width="0.118" stroke-linecap="round" stroke-linejoin="round" d="M69.01,146.393
	c-0.628,0-1.229-0.138-1.768-0.408c-0.629-0.179-1.182-0.502-1.633-0.952c-0.448-0.449-0.817-1.003-1.088-1.632
	c-0.269-0.628-0.406-1.275-0.406-1.903c0-0.629,0.138-1.276,0.406-1.904c0.271-0.539,0.64-1.047,1.088-1.496
	c0.449-0.449,1.004-0.819,1.633-1.088c0.539-0.27,1.14-0.408,1.768-0.408l0,0h118.591c0.63,0,1.229,0.138,1.769,0.408
	c0.628,0.269,1.183,0.639,1.632,1.088c0.449,0.449,0.819,0.957,1.088,1.496c0.269,0.628,0.408,1.275,0.408,1.904
	c0,0.628-0.14,1.275-0.408,1.903c-0.269,0.629-0.639,1.183-1.088,1.632c-0.449,0.45-1.003,0.772-1.632,0.952
	c-0.538,0.27-1.141,0.408-1.769,0.408l0,0H69.01"/>
<path fill="none" stroke="#000000" stroke-width="0.118" stroke-linecap="round" stroke-linejoin="round" d="M69.01,47.251
	c-0.628,0-1.229-0.139-1.768-0.408c-0.629-0.27-1.184-0.64-1.633-1.088c-0.447-0.449-0.817-1.004-1.088-1.632
	c-0.269-0.539-0.406-1.14-0.406-1.768c0-0.629,0.138-1.276,0.406-1.904c0.271-0.629,0.64-1.183,1.088-1.632
	c0.449-0.449,1.004-0.773,1.633-0.952c0.539-0.271,1.14-0.408,1.768-0.408l0,0h118.591c0.63,0,1.229,0.138,1.769,0.408
	c0.628,0.179,1.183,0.503,1.632,0.952c0.449,0.449,0.819,1.003,1.088,1.632c0.269,0.628,0.408,1.275,0.408,1.904
	c0,0.628-0.14,1.229-0.408,1.768c-0.269,0.628-0.639,1.183-1.088,1.632c-0.449,0.448-1.004,0.818-1.632,1.088
	c-0.538,0.269-1.141,0.408-1.769,0.408l0,0H69.01"/>
<path fill="none" stroke="#000000" stroke-width="0.118" stroke-linecap="round" stroke-linejoin="round" d="M233.705,91.858
	c0,6.234-5.055,11.288-11.288,11.288c-6.234,0-11.288-5.054-11.288-11.288s5.054-11.288,11.288-11.288
	C228.65,80.57,233.705,85.624,233.705,91.858"/>
<path fill="none" stroke="#000000" stroke-width="0.118" stroke-linecap="round" stroke-linejoin="round" d="M226.361,12.163
	c0,2.178-1.767,3.944-3.944,3.944c-2.179,0-3.944-1.766-3.944-3.944c0-2.178,1.766-3.944,3.944-3.944
	C224.595,8.219,226.361,9.985,226.361,12.163"/>
<path fill="none" stroke="#000000" stroke-width="0.118" stroke-linecap="round" stroke-linejoin="round" d="M226.361,171.553
	c0,2.178-1.767,3.944-3.944,3.944c-2.179,0-3.944-1.766-3.944-3.944c0-2.178,1.766-3.944,3.944-3.944
	C224.595,167.609,226.361,169.375,226.361,171.553"/>
<path fill="none" stroke="#000000" stroke-width="0.118" stroke-linecap="round" stroke-linejoin="round" d="M306.056,91.858
	c0,2.178-1.766,3.944-3.943,3.944c-2.179,0-3.944-1.766-3.944-3.944s1.766-3.944,3.944-3.944
	C304.29,87.914,306.056,89.68,306.056,91.858"/>
<path fill="none" stroke="#000000" stroke-width="0.118" stroke-linecap="round" stroke-linejoin="round" d="M22.771,18.827
	c0,2.178-1.767,3.944-3.944,3.944c-2.179,0-3.944-1.766-3.944-3.944c0-2.178,1.766-3.944,3.944-3.944
	C21.005,14.883,22.771,16.649,22.771,18.827"/>
<path fill="none" stroke="#000000" stroke-width="0.118" stroke-linecap="round" stroke-linejoin="round" d="M22.771,164.889
	c0,2.178-1.767,3.944-3.944,3.944c-2.179,0-3.944-1.766-3.944-3.944c0-2.178,1.766-3.944,3.944-3.944
	C21.005,160.945,22.771,162.711,22.771,164.889"/>
<path fill="none" stroke="#000000" stroke-width="0.118" stroke-linecap="round" stroke-linejoin="round" d="M222.417,0.059
	c12.026,0,23.959,2.359,35.087,6.937c11.129,4.667,21.258,11.466,29.784,19.992s15.278,18.655,19.856,29.783
	c4.666,11.129,7.071,23.062,7.071,35.088s-2.405,23.959-7.071,35.088c-4.582,11.138-11.323,21.25-19.856,29.783
	c-8.526,8.526-18.655,15.325-29.784,19.992c-11.128,4.577-23.061,6.936-35.087,6.936l0,0H9.035c-0.543,0-1.135-0.046-1.768-0.136
	c-0.544-0.181-1.09-0.363-1.633-0.544c-0.543-0.271-1.089-0.545-1.632-0.816c-0.452-0.362-0.908-0.726-1.36-1.088
	c-0.361-0.452-0.726-0.908-1.088-1.36c-0.271-0.543-0.544-1.089-0.816-1.632c-0.18-0.543-0.362-1.089-0.543-1.632
	c-0.09-0.633-0.137-1.225-0.137-1.768l0,0V9.035c0-1.168,0.231-2.322,0.68-3.4c0.449-1.078,1.097-2.094,1.904-2.992
	c0.898-0.808,1.916-1.455,2.992-1.904c1.078-0.449,2.232-0.681,3.4-0.681l0,0H222.417"/>
</svg>
