<?xml version="1.0" encoding="utf-8"?>
<!-- Generator: Adobe Illustrator 23.0.4, SVG Export Plug-In . SVG Version: 6.00 Build 0)  -->
<svg version="1.1" id="Layer_1" xmlns="http://www.w3.org/2000/svg" xmlns:xlink="http://www.w3.org/1999/xlink" x="0px" y="0px"
	 viewBox="0 0 173.6 111.5" style="enable-background:new 0 0 173.6 111.5;" xml:space="preserve">
<style type="text/css">
	.st0{fill:none;stroke:#000000;stroke-width:0.1;stroke-linecap:round;stroke-linejoin:round;}
</style>
<line class="st0" x1="100.2" y1="41.9" x2="100.2" y2="41.9"/>
<line class="st0" x1="99.2" y1="59.2" x2="99.1" y2="59.2"/>
<path class="st0" d="M110.2,41.9c0,3-2.4,5.4-5.5,5.4c-3,0-5.5-2.4-5.5-5.4s2.4-5.4,5.5-5.4S110.2,38.9,110.2,41.9"/>
<path class="st0" d="M113.7,41.9c0,5-4,9-9,9s-9-4-9-9s4-9,9-9S113.7,37,113.7,41.9"/>
<path class="st0" d="M59.4,40.1c-1,0-1.8,0.8-1.8,1.8l0,0c0,1,0.8,1.8,1.8,1.8l0,0"/>
<path class="st0" d="M59.4,41.9"/>
<line class="st0" x1="59.4" y1="40.1" x2="92.1" y2="40.1"/>
<line class="st0" x1="92.1" y1="40.1" x2="95.9" y2="40.1"/>
<line class="st0" x1="92.1" y1="43.7" x2="95.9" y2="43.7"/>
<line class="st0" x1="59.4" y1="43.7" x2="92.1" y2="43.7"/>
<path class="st0" d="M92.1,40.1c1,0,1.9-0.3,2.8-0.8l0,0c0.8-0.5,1.6-1.2,2.1-2l0,0"/>
<path class="st0" d="M96.9,46.5c-0.5-0.8-1.2-1.6-2.1-2.1l0,0c-0.8-0.5-1.8-0.8-2.8-0.8l0,0"/>
<line class="st0" x1="99.2" y1="76" x2="99.1" y2="76"/>
<path class="st0" d="M106.7,76c0,1.1-0.9,2-2,2c-1.1,0-2-0.9-2-2c0-1.1,0.9-2,2-2C105.8,74,106.7,74.9,106.7,76"/>
<path class="st0" d="M109.4,76c0,2.6-2.1,4.7-4.7,4.7c-2.6,0-4.7-2.1-4.7-4.7s2.1-4.7,4.7-4.7C107.3,71.3,109.4,73.4,109.4,76"/>
<line class="st0" x1="102.6" y1="76" x2="95.9" y2="74.4"/>
<line class="st0" x1="95.9" y1="74.4" x2="95" y2="74.2"/>
<line class="st0" x1="102.6" y1="76" x2="95.9" y2="77.6"/>
<line class="st0" x1="95.9" y1="77.6" x2="95" y2="77.8"/>
<line class="st0" x1="95" y1="74.2" x2="8.5" y2="76"/>
<line class="st0" x1="95" y1="77.8" x2="8.5" y2="76"/>
<path class="st0" d="M95.9,74.4c1,0.2,2,0.2,2.9-0.1l0,0c1-0.3,1.8-0.8,2.5-1.5l0,0"/>
<path class="st0" d="M101.3,79.2c-0.7-0.7-1.5-1.2-2.5-1.5l0,0c-1-0.3-2-0.3-2.9-0.1l0,0"/>
<line class="st0" x1="100.2" y1="17.8" x2="100.2" y2="17.8"/>
<path class="st0" d="M110.2,17.8c0,3-2.4,5.5-5.5,5.5c-3,0-5.5-2.5-5.5-5.5s2.4-5.5,5.5-5.5C107.7,12.3,110.2,14.7,110.2,17.8"/>
<path class="st0" d="M113.7,17.8c0,5-4,9-9,9s-9-4-9-9s4-9,9-9S113.7,12.8,113.7,17.8"/>
<line class="st0" x1="99.2" y1="17.8" x2="93" y2="16.2"/>
<line class="st0" x1="93" y1="16.2" x2="92.1" y2="15.9"/>
<line class="st0" x1="99.1" y1="17.8" x2="93" y2="19.3"/>
<line class="st0" x1="93" y1="19.3" x2="92.1" y2="19.5"/>
<line class="st0" x1="92.1" y1="19.5" x2="57.7" y2="17.8"/>
<line class="st0" x1="92.1" y1="15.9" x2="57.7" y2="17.8"/>
<path class="st0" d="M93,16.2c0.7,0.2,1.4,0.1,2-0.2l0,0c0.6-0.3,1.1-0.8,1.3-1.5l0,0"/>
<path class="st0" d="M96.3,21c-0.3-0.6-0.8-1.2-1.3-1.5l0,0c-0.6-0.3-1.3-0.4-2-0.2l0,0"/>
<line class="st0" x1="99.2" y1="62.5" x2="99.1" y2="62.5"/>
<path class="st0" d="M106.7,62.5c0,1.1-0.9,2-2,2c-1.1,0-2-0.9-2-2s0.9-2,2-2C105.8,60.5,106.7,61.4,106.7,62.5"/>
<path class="st0" d="M109.4,62.5c0,2.6-2.1,4.7-4.7,4.7c-2.6,0-4.7-2.1-4.7-4.7s2.1-4.7,4.7-4.7C107.3,57.8,109.4,59.9,109.4,62.5"
	/>
<path class="st0" d="M10.7,60.7c-1,0-1.8,0.8-1.8,1.8l0,0c0,1,0.8,1.8,1.8,1.8l0,0"/>
<path class="st0" d="M10.7,62.5"/>
<line class="st0" x1="97.5" y1="60.7" x2="100.4" y2="60.7"/>
<line class="st0" x1="10.7" y1="60.7" x2="97.5" y2="60.7"/>
<line class="st0" x1="97.5" y1="64.3" x2="100.4" y2="64.3"/>
<line class="st0" x1="10.7" y1="64.3" x2="97.5" y2="64.3"/>
<path class="st0" d="M97.5,60.7c0.7,0,1.5-0.1,2.1-0.4l0,0c0.7-0.3,1.3-0.7,1.8-1.2l0,0"/>
<path class="st0" d="M101.5,65.9c-0.5-0.5-1.1-0.9-1.8-1.2l0,0c-0.7-0.3-1.4-0.4-2.1-0.4l0,0"/>
</svg>
