<?xml version="1.0" encoding="utf-8"?>
<!-- Generator: Adobe Illustrator 23.0.4, SVG Export Plug-In . SVG Version: 6.00 Build 0)  -->
<svg version="1.1" id="Layer_1" xmlns="http://www.w3.org/2000/svg" xmlns:xlink="http://www.w3.org/1999/xlink" x="0px" y="0px"
	 viewBox="0 0 792 1224" style="enable-background:new 0 0 792 1224;" xml:space="preserve">
<style type="text/css">
	.st0{fill:none;stroke:#000000;stroke-width:0.1;stroke-linecap:round;stroke-linejoin:round;}
</style>
<line class="st0" x1="100.24" y1="41.94" x2="100.18" y2="41.94"/>
<line class="st0" x1="99.18" y1="59.18" x2="99.06" y2="59.24"/>
<path class="st0" d="M110.18,41.91c0,3.01-2.45,5.44-5.47,5.44c-3.02,0-5.47-2.44-5.47-5.44c0-3,2.45-5.44,5.47-5.44
	C107.73,36.47,110.18,38.91,110.18,41.91"/>
<path class="st0" d="M113.71,41.94c0,4.97-4.03,9-9,9s-9-4.03-9-9c0-4.97,4.03-9,9-9S113.71,36.97,113.71,41.94"/>
<path class="st0" d="M59.41,40.12c-0.97,0-1.76,0.82-1.76,1.82l0,0c0,0.97,0.79,1.76,1.76,1.76l0,0"/>
<path class="st0" d="M59.41,41.94"/>
<line class="st0" x1="59.41" y1="40.12" x2="92.12" y2="40.12"/>
<line class="st0" x1="92.12" y1="40.12" x2="95.88" y2="40.12"/>
<line class="st0" x1="92.12" y1="43.71" x2="95.88" y2="43.71"/>
<line class="st0" x1="59.41" y1="43.71" x2="92.12" y2="43.71"/>
<path class="st0" d="M92.12,40.12c0.96,0,1.92-0.26,2.76-0.76l0,0c0.85-0.46,1.56-1.15,2.06-2l0,0"/>
<path class="st0" d="M96.94,46.53c-0.5-0.85-1.21-1.56-2.06-2.06l0,0c-0.85-0.5-1.8-0.76-2.76-0.76l0,0"/>
<line class="st0" x1="99.18" y1="76" x2="99.06" y2="76"/>
<path class="st0" d="M106.71,75.97c0,1.09-0.9,1.97-2,1.97c-1.11,0-2-0.88-2-1.97c0-1.09,0.89-1.97,2-1.97
	C105.81,74,106.71,74.88,106.71,75.97"/>
<path class="st0" d="M109.41,75.97c0,2.58-2.09,4.68-4.68,4.68c-2.58,0-4.68-2.09-4.68-4.68s2.09-4.68,4.68-4.68
	C107.32,71.29,109.41,73.39,109.41,75.97"/>
<line class="st0" x1="102.59" y1="76" x2="95.88" y2="74.41"/>
<line class="st0" x1="95.88" y1="74.41" x2="95" y2="74.18"/>
<line class="st0" x1="102.59" y1="76" x2="95.88" y2="77.59"/>
<line class="st0" x1="95.88" y1="77.59" x2="95" y2="77.76"/>
<line class="st0" x1="95" y1="74.18" x2="8.53" y2="76"/>
<line class="st0" x1="95" y1="77.76" x2="8.53" y2="76"/>
<path class="st0" d="M95.88,74.41c0.96,0.19,1.98,0.15,2.94-0.12l0,0c0.96-0.27,1.82-0.8,2.47-1.53l0,0"/>
<path class="st0" d="M101.29,79.18c-0.65-0.69-1.51-1.22-2.47-1.53l0,0c-0.96-0.27-1.98-0.29-2.94-0.06l0,0"/>
<line class="st0" x1="100.24" y1="17.76" x2="100.18" y2="17.76"/>
<path class="st0" d="M110.18,17.76c0,3.02-2.45,5.47-5.47,5.47c-3.02,0-5.47-2.45-5.47-5.47s2.45-5.47,5.47-5.47
	C107.73,12.29,110.18,14.74,110.18,17.76"/>
<path class="st0" d="M113.71,17.76c0,4.97-4.03,9-9,9s-9-4.03-9-9c0-4.97,4.03-9,9-9S113.71,12.79,113.71,17.76"/>
<line class="st0" x1="99.18" y1="17.76" x2="93" y2="16.18"/>
<line class="st0" x1="93" y1="16.18" x2="92.12" y2="15.94"/>
<line class="st0" x1="99.06" y1="17.76" x2="93" y2="19.29"/>
<line class="st0" x1="93" y1="19.29" x2="92.12" y2="19.53"/>
<line class="st0" x1="92.12" y1="19.53" x2="57.65" y2="17.76"/>
<line class="st0" x1="92.12" y1="15.94" x2="57.65" y2="17.76"/>
<path class="st0" d="M93,16.18c0.68,0.19,1.39,0.11,2-0.24l0,0c0.61-0.3,1.09-0.82,1.35-1.47l0,0"/>
<path class="st0" d="M96.35,21c-0.26-0.64-0.75-1.17-1.35-1.47l0,0c-0.61-0.3-1.32-0.39-2-0.24l0,0"/>
<line class="st0" x1="99.18" y1="62.47" x2="99.06" y2="62.47"/>
<path class="st0" d="M106.71,62.5c0,1.09-0.9,1.97-2,1.97c-1.11,0-2-0.88-2-1.97c0-1.09,0.89-1.97,2-1.97
	C105.81,60.53,106.71,61.41,106.71,62.5"/>
<path class="st0" d="M109.41,62.5c0,2.58-2.09,4.68-4.68,4.68c-2.58,0-4.68-2.09-4.68-4.68s2.09-4.68,4.68-4.68
	C107.32,57.82,109.41,59.92,109.41,62.5"/>
<path class="st0" d="M10.71,60.71c-1.01,0-1.82,0.79-1.82,1.76l0,0c0,1.01,0.82,1.82,1.82,1.82l0,0"/>
<path class="st0" d="M10.71,62.47"/>
<line class="st0" x1="97.53" y1="60.71" x2="100.41" y2="60.71"/>
<line class="st0" x1="10.71" y1="60.71" x2="97.53" y2="60.71"/>
<line class="st0" x1="97.53" y1="64.29" x2="100.41" y2="64.29"/>
<line class="st0" x1="10.71" y1="64.29" x2="97.53" y2="64.29"/>
<path class="st0" d="M97.53,60.71c0.74,0,1.46-0.14,2.12-0.41l0,0c0.7-0.27,1.32-0.67,1.82-1.18l0,0"/>
<path class="st0" d="M101.47,65.88c-0.5-0.51-1.12-0.91-1.82-1.18l0,0c-0.66-0.27-1.38-0.41-2.12-0.41l0,0"/>
</svg>
