<?xml version="1.0" encoding="utf-8"?>
<!-- Generator: Adobe Illustrator 21.1.0, SVG Export Plug-In . SVG Version: 6.00 Build 0)  -->
<svg version="1.1" xmlns="http://www.w3.org/2000/svg" xmlns:xlink="http://www.w3.org/1999/xlink" x="0px" y="0px"
	 viewBox="0 0 236.9 84.9" style="enable-background:new 0 0 236.9 84.9;" xml:space="preserve">
<style type="text/css">
	.st0{fill:none;stroke:#000000;stroke-width:0.144;stroke-linecap:round;stroke-linejoin:round;}
</style>
<g id="second">
	<path d="M38.4,70.8c-0.4,0-0.7,0-1.1,0.1c-0.4,0.1-0.7,0.2-1,0.4c-0.3,0.2-0.6,0.4-0.8,0.6c-0.3,0.3-0.5,0.6-0.7,0.8
		c-0.2,0.3-0.3,0.6-0.4,1c-0.1,0.4-0.1,0.7-0.1,1.1c0,0.4,0,0.7,0.1,1.1c0.1,0.4,0.3,0.7,0.4,1c0.2,0.3,0.4,0.6,0.7,0.9
		c0.2,0.2,0.5,0.5,0.8,0.6c0.3,0.2,0.6,0.3,1,0.4c0.4,0.1,0.7,0.1,1.1,0.1l0,0c0.5,0,1.1-0.1,1.6-0.3c0.5-0.2,0.9-0.5,1.3-0.9
		c0.4-0.4,0.7-0.8,0.9-1.4c0.2-0.5,0.3-1,0.3-1.6l0,0c0-0.5-0.1-1-0.3-1.5c-0.2-0.5-0.6-1-0.9-1.4c-0.4-0.4-0.8-0.7-1.3-0.9
		C39.5,70.9,38.9,70.8,38.4,70.8L38.4,70.8"/>
</g>
<g id="minute">
	<path d="M56.7,40c0-1-0.2-1.9-0.5-2.8c-0.4-0.9-0.9-1.7-1.6-2.4c-0.7-0.7-1.5-1.2-2.4-1.6c-0.9-0.4-1.9-0.6-2.8-0.6l0,0
		c-1,0-1.9,0.2-2.8,0.6c-0.9,0.3-1.7,0.9-2.4,1.6c-0.7,0.7-1.2,1.5-1.6,2.4C42.2,38.1,42,39,42,40s0.2,1.9,0.5,2.8
		c0.4,0.9,0.9,1.7,1.6,2.4c0.7,0.7,1.5,1.2,2.4,1.6c0.9,0.4,1.9,0.6,2.8,0.6l0,0c1,0,1.9-0.2,2.8-0.6c0.9-0.4,1.7-0.9,2.4-1.6
		c0.7-0.7,1.2-1.5,1.6-2.4C56.5,41.9,56.7,41,56.7,40L56.7,40"/>
	<path d="M61,40c0,0.3,0,0.6,0.1,0.9c0.1,0.3,0.2,0.5,0.3,0.8c0.1,0.3,0.2,0.5,0.4,0.8c0.2,0.2,0.3,0.5,0.5,0.6
		c0.2,0.2,0.4,0.3,0.6,0.5c0.2,0.2,0.5,0.3,0.8,0.4c0.3,0.1,0.5,0.2,0.8,0.2c0.3,0,0.6,0,0.8,0l0,0L168,40.9c0.1,0,0.2,0,0.4-0.1
		c0.1,0,0.2-0.1,0.2-0.2c0.1-0.1,0.2-0.2,0.2-0.3s0.1-0.2,0.1-0.4l0,0c0,0,0-0.1,0-0.2c0-0.1,0-0.1-0.1-0.2c0-0.1,0-0.1-0.1-0.2
		s-0.1-0.1-0.1-0.2c0,0-0.1-0.1-0.1-0.1c-0.1,0-0.1-0.1-0.2-0.1c-0.1,0-0.1-0.1-0.2-0.1c-0.1,0-0.2-0.1-0.2-0.1l0,0L65.2,35.7
		c-0.3,0-0.6,0-0.8,0.1c-0.3,0.1-0.5,0.2-0.8,0.3c-0.3,0.1-0.5,0.2-0.8,0.4c-0.2,0.2-0.5,0.4-0.6,0.6c-0.2,0.2-0.4,0.4-0.5,0.6
		c-0.2,0.2-0.3,0.5-0.4,0.7c-0.1,0.3-0.2,0.5-0.2,0.8C61,39.4,61,39.7,61,40L61,40"/>
</g>
<g id="hour">
	<line class="st0" x1="45.1" y1="14.2" x2="49.7" y2="14.2"/>
	<path d="M131.4,10.5c0,0,0-0.1,0-0.1l0,0c0,0,0,0,0-0.1l0,0c0,0,0.1-0.1,0.1-0.1l0,0c0,0,0-0.1,0-0.1l0,0c0,0,0,0,0-0.1l0,0
		c0,0,0-0.1,0-0.1l0,0l0,0c0,0,0-0.1,0-0.1l0,0c0,0,0,0,0-0.1l0,0c0,0,0-0.1,0-0.1l0,0c0,0,0-0.1-0.1-0.1l0,0c0,0,0,0,0-0.1l0,0
		c0,0,0-0.1-0.1-0.1l0,0c0,0,0-0.1,0-0.1l0,0c0,0-0.1-0.1-0.1-0.1l0,0c0,0,0-0.1-0.1-0.1l0,0c0,0,0-0.1-0.1-0.1l0,0c0,0,0,0-0.1-0.1
		l0,0l0,0c0,0-0.1-0.1-0.1-0.1l0,0c0,0-0.1,0-0.1,0l0,0c0,0-0.1,0-0.1,0l0,0c0,0,0,0-0.1,0l0,0L61.8,6.2c-0.1,0-0.2,0-0.3,0l0,0
		c-0.1,0-0.2,0-0.2,0.1l0,0c-0.1,0-0.2,0.1-0.3,0.1l0,0c-0.1,0-0.2,0-0.3,0.1l0,0c-0.1,0-0.2,0.1-0.2,0.1l0,0
		c-0.1,0.1-0.2,0.2-0.2,0.2l0,0C60.2,6.9,60.1,7,60,7.1l0,0c-0.1,0.1-0.2,0.2-0.2,0.2l0,0c0,0.1-0.1,0.2-0.2,0.3l0,0
		c0,0.1-0.1,0.2-0.2,0.3l0,0c0,0.1-0.1,0.2-0.1,0.3l0,0c0,0.1-0.1,0.2-0.1,0.4l0,0c0,0.1-0.1,0.2-0.1,0.4l0,0c0,0.1,0,0.2-0.1,0.4
		l0,0c0,0.1,0,0.3,0,0.4l0,0c0,0.1,0,0.2,0,0.3l0,0c0,0,0,0,0,0.1l0,0c0,0.1,0,0.2,0,0.4l0,0c0,0.1,0,0.2,0.1,0.4l0,0
		c0,0.2,0,0.3,0.1,0.4l0,0c0,0.1,0.1,0.2,0.1,0.4l0,0c0,0.1,0.1,0.2,0.1,0.3l0,0c0,0.1,0.1,0.2,0.1,0.4l0,0c0.1,0.1,0.1,0.2,0.2,0.3
		l0,0c0.1,0.1,0.2,0.2,0.2,0.2l0,0c0,0.1,0.1,0.2,0.2,0.2l0,0c0.1,0.1,0.2,0.2,0.2,0.2l0,0c0.1,0.1,0.2,0.1,0.2,0.2l0,0
		c0.1,0.1,0.2,0.1,0.3,0.2l0,0c0.1,0,0.2,0.1,0.2,0.1l0,0c0.1,0,0.2,0.1,0.3,0.1l0,0c0.1,0,0.2,0.1,0.3,0.1l0,0c0.1,0,0.2,0,0.3,0
		l0,0l68.9-2.9c0,0,0,0,0.1,0l0,0c0,0,0,0,0.1,0l0,0c0,0,0,0,0.1-0.1l0,0c0,0,0,0,0.1,0l0,0c0,0,0,0,0.1-0.1l0,0c0,0,0,0,0.1-0.1
		l0,0l0,0c0,0,0.1-0.1,0.1-0.1l0,0C131.3,10.5,131.3,10.5,131.4,10.5L131.4,10.5C131.3,10.5,131.3,10.5,131.4,10.5L131.4,10.5"/>
	<path d="M49.7,14.2c0.4-0.2,0.7-0.5,1.1-0.8c0.3-0.3,0.5-0.6,0.8-1c0.2-0.4,0.4-0.7,0.5-1.2c0.1-0.4,0.2-0.8,0.2-1.2l0,0
		c0-0.4-0.1-0.9-0.2-1.3c-0.1-0.4-0.3-0.8-0.5-1.1c-0.2-0.4-0.5-0.7-0.8-1c-0.3-0.3-0.7-0.6-1.1-0.8l0,0h-4.6
		C44.7,6,44.3,6.3,44,6.6c-0.3,0.3-0.5,0.6-0.8,1c-0.2,0.4-0.4,0.7-0.5,1.1c-0.1,0.4-0.2,0.9-0.2,1.3l0,0c0,0.4,0.1,0.8,0.2,1.2
		c0.1,0.4,0.3,0.8,0.5,1.2c0.2,0.4,0.5,0.7,0.8,1c0.3,0.3,0.7,0.6,1.1,0.8l0,0H49.7"/>
</g>
</svg>
