<?xml version="1.0" encoding="utf-8"?>
<!-- Generator: Adobe Illustrator 21.1.0, SVG Export Plug-In . SVG Version: 6.00 Build 0)  -->
<svg version="1.1" id="Layer_1" xmlns="http://www.w3.org/2000/svg" xmlns:xlink="http://www.w3.org/1999/xlink" x="0px" y="0px"
	 viewBox="0 0 151.9 20" style="enable-background:new 0 0 151.9 20;" xml:space="preserve">
<style type="text/css">
	.st0{fill:none;stroke:#000000;stroke-width:0.144;stroke-linecap:round;stroke-linejoin:round;}
</style>
<path class="st0" d="M149.6,7.9c0.2,0,0.4,0,0.6,0.1c0.2,0,0.3,0.1,0.5,0.2c0.2,0.1,0.4,0.2,0.5,0.3c0.1,0.2,0.2,0.3,0.4,0.5
	c0.1,0.2,0.1,0.3,0.2,0.5c0.1,0.2,0.1,0.4,0.1,0.6c0,0.2,0,0.4-0.1,0.5c0,0.2-0.1,0.4-0.2,0.5c-0.1,0.2-0.2,0.3-0.4,0.4
	c-0.1,0.2-0.3,0.3-0.5,0.4c-0.2,0.1-0.3,0.2-0.5,0.2s-0.4,0.1-0.6,0.1l0,0L20.3,17.3c-0.5,0-1,0-1.5,0.1s-1,0.2-1.5,0.3
	c-0.5,0.1-0.9,0.3-1.4,0.5s-0.9,0.4-1.4,0.6l0,0c-1,0.5-2.1,0.8-3.2,1S9,19.9,8,19.7c-1.1-0.2-2.2-0.7-3.1-1.2
	c-1-0.6-1.8-1.4-2.5-2.2c-0.7-0.9-1.3-1.9-1.6-2.9c-0.4-1.1-0.6-2.2-0.6-3.3s0.2-2.2,0.6-3.3c0.2-1.2,0.8-2.2,1.5-3
	C3,2.9,3.9,2.1,4.8,1.5s2-1,3.1-1.2C9,0,10.2,0,11.3,0.2c1.1,0.1,2.2,0.4,3.2,0.9l0,0c0.5,0.2,0.9,0.5,1.4,0.6
	c0.5,0.2,0.9,0.3,1.4,0.4c0.5,0.2,1,0.3,1.5,0.4c0.5,0,1,0.1,1.5,0.1l0,0L149.6,7.9"/>
</svg>
