<?xml version="1.0" encoding="utf-8"?>
<!-- Generator: Adobe Illustrator 21.1.0, SVG Export Plug-In . SVG Version: 6.00 Build 0)  -->
<svg version="1.1" id="Layer_1" xmlns="http://www.w3.org/2000/svg" xmlns:xlink="http://www.w3.org/1999/xlink" x="0px" y="0px"
	 viewBox="0 0 151.8 20" style="enable-background:new 0 0 151.8 20;" xml:space="preserve">
<style type="text/css">
	.st0{fill:none;stroke:#000000;stroke-width:0.144;stroke-linecap:round;stroke-linejoin:round;}
</style>
<path class="st0" d="M14.4,1.2c0.5,0.2,0.9,0.4,1.4,0.6c0.5,0.2,0.9,0.4,1.4,0.5c0.5,0.1,1,0.2,1.5,0.3c0.5,0.1,1,0.1,1.5,0.1l0,0
	l129.4,5.2c0.2,0,0.3,0,0.5,0.1c0.2,0,0.4,0.1,0.5,0.2c0.2,0.1,0.3,0.2,0.4,0.4c0.2,0.1,0.3,0.3,0.4,0.4c0.1,0.2,0.2,0.3,0.2,0.5
	c0,0.2,0.1,0.3,0.1,0.5c0,0.2,0,0.4-0.1,0.6c-0.1,0.2-0.2,0.3-0.2,0.5s-0.2,0.3-0.4,0.5c-0.1,0.1-0.3,0.2-0.4,0.3
	c-0.2,0.1-0.3,0.2-0.5,0.2c-0.2,0-0.4,0.1-0.5,0.1l0,0L20.2,17.3c-0.5,0-1,0.1-1.5,0.1c-0.5,0.1-1,0.2-1.5,0.4
	c-0.5,0.1-0.9,0.3-1.4,0.4c-0.5,0.2-0.9,0.4-1.4,0.6l0,0c-1,0.5-2,0.8-3.2,0.9C10.1,20,9,19.9,7.9,19.7c-1.1-0.2-2.1-0.7-3.1-1.2
	c-1-0.6-1.8-1.3-2.5-2.2c-0.7-0.9-1.3-1.9-1.6-2.9c-0.4-1.1-0.5-2.2-0.5-3.3c0-1.1,0.2-2.2,0.5-3.3c0.4-1.1,0.9-2,1.6-2.9
	C3,2.9,3.8,2.2,4.8,1.6c1-0.6,2-1.1,3.1-1.3C9,0,10.1,0,11.2,0.2C12.4,0.3,13.5,0.7,14.4,1.2L14.4,1.2"/>
</svg>
