<?xml version="1.0" encoding="utf-8"?>
<!-- Generator: Adobe Illustrator 21.1.0, SVG Export Plug-In . SVG Version: 6.00 Build 0)  -->
<svg version="1.1" id="Layer_1" xmlns="http://www.w3.org/2000/svg" xmlns:xlink="http://www.w3.org/1999/xlink" x="0px" y="0px"
	 viewBox="0 0 151.8 20" style="enable-background:new 0 0 151.8 20;" xml:space="preserve">
<path d="M14.2,10c0-0.5-0.1-1.1-0.4-1.6c-0.2-0.5-0.5-1-0.9-1.4c-0.4-0.4-0.8-0.7-1.4-0.9c-0.5-0.2-1.1-0.3-1.6-0.3
	C9.4,5.8,8.9,5.9,8.4,6C7.8,6.3,7.3,6.6,7,7C6.6,7.4,6.3,7.8,6.1,8.3C5.8,8.9,5.7,9.4,5.7,10l0,0c0,0.6,0.1,1.1,0.4,1.6
	c0.2,0.5,0.5,1,0.9,1.4c0.4,0.4,0.9,0.7,1.4,0.9c0.5,0.2,1,0.3,1.6,0.3c0.6,0,1.1-0.1,1.6-0.3c0.5-0.2,1-0.6,1.4-0.9
	c0.4-0.4,0.7-0.8,0.9-1.4C14.1,11.1,14.2,10.6,14.2,10L14.2,10"/>
<path d="M50.8,7.3c-0.1,0.1-0.1,0.2-0.2,0.3l0,0c-0.1,0.1-0.1,0.2-0.2,0.3l0,0c-0.1,0.1-0.1,0.2-0.2,0.4l0,0c0,0.1-0.1,0.2-0.1,0.3
	l0,0c0,0.1-0.1,0.2-0.1,0.4l0,0C50,9,50,9.2,50,9.3l0,0C50,9.5,50,9.6,50,9.7l0,0c0,0.1,0,0.2,0,0.3l0,0c0,0,0,0.1,0,0.1l0,0
	c0,0.1,0,0.2,0,0.4l0,0c0,0.2,0,0.3,0.1,0.4l0,0c0,0.1,0,0.2,0.1,0.4l0,0c0,0.1,0.1,0.2,0.1,0.4l0,0c0,0.1,0.1,0.2,0.1,0.4l0,0
	c0,0.1,0.1,0.2,0.2,0.3l0,0c0,0.1,0.1,0.2,0.2,0.3l0,0c0,0.1,0.1,0.2,0.2,0.3l0,0c0.1,0.1,0.1,0.2,0.2,0.2l0,0
	c0.1,0.1,0.2,0.1,0.2,0.2l0,0c0.1,0.1,0.2,0.1,0.3,0.2l0,0c0.1,0.1,0.2,0.1,0.2,0.2l0,0c0.1,0,0.2,0.1,0.3,0.1l0,0
	c0.1,0,0.2,0.1,0.2,0.1l0,0c0.1,0,0.2,0.1,0.3,0.1l0,0c0.1,0,0.2,0,0.3,0l0,0l68.9-2.9c0,0,0.1,0,0.1,0l0,0c0,0,0.1,0,0.1,0l0,0
	c0,0,0.1,0,0.1,0l0,0c0,0,0.1-0.1,0.1-0.1l0,0c0,0,0.1,0,0.1,0l0,0c0,0,0.1-0.1,0.1-0.1l0,0c0,0,0-0.1,0.1-0.1l0,0
	c0,0,0-0.1,0.1-0.1l0,0c0,0,0-0.1,0-0.1l0,0c0,0,0.1-0.1,0.1-0.1l0,0c0,0,0-0.1,0-0.1l0,0c0,0,0.1-0.1,0.1-0.1l0,0c0,0,0,0,0-0.1
	l0,0c0,0,0-0.1,0-0.1l0,0c0,0,0-0.1,0-0.1l0,0c0,0,0,0,0-0.1l0,0l0,0c0,0,0-0.1,0-0.1l0,0c0,0,0-0.1,0-0.1l0,0c0,0,0,0,0-0.1l0,0
	c0,0,0-0.1,0-0.1l0,0c0,0-0.1-0.1-0.1-0.1l0,0c0,0,0,0,0-0.1l0,0c0,0-0.1,0-0.1-0.1l0,0c0,0,0-0.1-0.1-0.1l0,0c0,0,0,0-0.1-0.1l0,0
	c0,0,0,0,0-0.1l0,0c0,0-0.1,0-0.1,0l0,0c0,0-0.1-0.1-0.1-0.1l0,0c0,0-0.1,0-0.1,0l0,0c0,0-0.1-0.1-0.1-0.1l0,0c0,0-0.1,0-0.1,0l0,0
	c0,0-0.1,0-0.1,0l0,0l-69-2.9c-0.1,0-0.2,0-0.2,0l0,0c-0.1,0-0.2,0.1-0.3,0.1l0,0c-0.1,0-0.2,0.1-0.3,0.1l0,0
	c-0.1,0-0.2,0.1-0.2,0.1l0,0c-0.1,0-0.2,0.1-0.3,0.2l0,0c-0.1,0-0.2,0.1-0.2,0.2l0,0C51.1,6.9,51,7,51,7.1l0,0
	C50.9,7.2,50.8,7.3,50.8,7.3L50.8,7.3"/>
<path d="M41,6.2h-5.4c-0.3,0.2-0.6,0.5-0.9,0.8c-0.2,0.3-0.4,0.6-0.6,0.9c-0.2,0.4-0.3,0.7-0.4,1.1c-0.1,0.4-0.1,0.8-0.1,1.1l0,0
	c0,0.4,0,0.8,0.1,1.1s0.2,0.7,0.4,1.1c0.2,0.3,0.4,0.6,0.6,0.9c0.3,0.3,0.6,0.5,0.9,0.7l0,0H41c0.3-0.2,0.6-0.4,0.8-0.7
	c0.2-0.3,0.5-0.6,0.6-0.9c0.2-0.4,0.3-0.7,0.4-1.1C43,10.8,43,10.4,43,10l0,0c0-0.4-0.1-0.7-0.2-1.1c-0.1-0.4-0.2-0.7-0.4-1.1
	c-0.2-0.3-0.4-0.6-0.6-0.9C41.6,6.7,41.3,6.4,41,6.2L41,6.2"/>
</svg>
