<?xml version="1.0" encoding="utf-8"?>
<!-- Generator: Adobe Illustrator 21.1.0, SVG Export Plug-In . SVG Version: 6.00 Build 0)  -->
<svg version="1.1" id="Layer_1" xmlns="http://www.w3.org/2000/svg" xmlns:xlink="http://www.w3.org/1999/xlink" x="0px" y="0px"
	 viewBox="0 0 151.9 20" style="enable-background:new 0 0 151.9 20;" xml:space="preserve">
<style type="text/css">
	.st0{fill:none;stroke:#000000;stroke-width:0.144;stroke-linecap:round;stroke-linejoin:round;}
</style>
<line class="st0" x1="36.1" y1="14.2" x2="40.7" y2="14.2"/>
<path class="st0" d="M149.6,7.9c0.2,0,0.4,0,0.6,0.1c0.2,0,0.3,0.1,0.5,0.2c0.2,0.1,0.4,0.2,0.5,0.3c0.1,0.2,0.2,0.3,0.4,0.5
	c0.1,0.2,0.1,0.3,0.2,0.5c0.1,0.2,0.1,0.4,0.1,0.6c0,0.2,0,0.4-0.1,0.5c0,0.2-0.1,0.4-0.2,0.5c-0.1,0.2-0.2,0.3-0.4,0.4
	c-0.1,0.2-0.3,0.3-0.5,0.4c-0.2,0.1-0.3,0.2-0.5,0.2c-0.2,0-0.4,0.1-0.6,0.1l0,0L20.3,17.3c-0.5,0-1,0-1.5,0.1
	c-0.5,0.1-1,0.2-1.5,0.3c-0.5,0.1-0.9,0.3-1.4,0.5c-0.5,0.2-0.9,0.4-1.4,0.6l0,0c-1,0.5-2.1,0.8-3.2,1C10.2,20,9,19.9,8,19.7
	c-1.1-0.2-2.2-0.7-3.1-1.2c-1-0.6-1.8-1.4-2.5-2.2c-0.7-0.9-1.3-1.9-1.6-2.9c-0.4-1.1-0.6-2.2-0.6-3.3s0.2-2.2,0.6-3.3
	C1,5.6,1.6,4.6,2.3,3.8C3,2.9,3.9,2.1,4.8,1.5c0.9-0.6,2-1,3.1-1.2C9,0,10.2,0,11.3,0.2c1.1,0.1,2.2,0.4,3.2,0.9l0,0
	c0.5,0.2,0.9,0.5,1.4,0.6c0.5,0.2,0.9,0.3,1.4,0.4c0.5,0.2,1,0.3,1.5,0.4c0.5,0,1,0.1,1.5,0.1l0,0L149.6,7.9"/>
<path class="st0" d="M122.4,10.5c0,0,0-0.1,0-0.1l0,0c0,0,0,0,0-0.1l0,0c0,0,0.1-0.1,0.1-0.1l0,0c0,0,0-0.1,0-0.1l0,0c0,0,0,0,0-0.1
	l0,0c0,0,0-0.1,0-0.1l0,0l0,0c0,0,0-0.1,0-0.1l0,0c0,0,0,0,0-0.1l0,0c0,0,0-0.1,0-0.1l0,0c0,0,0-0.1-0.1-0.1l0,0c0,0,0,0,0-0.1l0,0
	c0,0,0-0.1-0.1-0.1l0,0c0,0,0-0.1,0-0.1l0,0c0,0-0.1-0.1-0.1-0.1l0,0c0,0,0-0.1-0.1-0.1l0,0c0,0,0-0.1-0.1-0.1l0,0c0,0,0,0-0.1-0.1
	l0,0l0,0c0,0-0.1-0.1-0.1-0.1l0,0c0,0-0.1,0-0.1,0l0,0c0,0-0.1,0-0.1,0l0,0c0,0,0,0-0.1,0l0,0L52.8,6.2c-0.1,0-0.2,0-0.3,0l0,0
	c-0.1,0-0.2,0-0.2,0.1l0,0c-0.1,0-0.2,0.1-0.3,0.1l0,0c-0.1,0-0.2,0-0.3,0.1l0,0c-0.1,0-0.2,0.1-0.2,0.1l0,0
	c-0.1,0.1-0.2,0.2-0.2,0.2l0,0C51.2,6.9,51.1,7,51,7.1l0,0c-0.1,0.1-0.2,0.2-0.2,0.2l0,0c0,0.1-0.1,0.2-0.2,0.3l0,0
	c0,0.1-0.1,0.2-0.2,0.3l0,0c0,0.1-0.1,0.2-0.1,0.3l0,0c0,0.1-0.1,0.2-0.1,0.4l0,0c0,0.1-0.1,0.2-0.1,0.4l0,0c0,0.1,0,0.2-0.1,0.4
	l0,0c0,0.1,0,0.3,0,0.4l0,0c0,0.1,0,0.2,0,0.3l0,0c0,0,0,0,0,0.1l0,0c0,0.1,0,0.2,0,0.4l0,0c0,0.1,0,0.2,0.1,0.4l0,0
	c0,0.2,0,0.3,0.1,0.4l0,0c0,0.1,0.1,0.2,0.1,0.4l0,0c0,0.1,0.1,0.2,0.1,0.3l0,0c0,0.1,0.1,0.2,0.1,0.4l0,0c0.1,0.1,0.1,0.2,0.2,0.3
	l0,0c0.1,0.1,0.2,0.2,0.2,0.2l0,0c0,0.1,0.1,0.2,0.2,0.2l0,0c0.1,0.1,0.2,0.2,0.2,0.2l0,0c0.1,0.1,0.2,0.1,0.2,0.2l0,0
	c0.1,0.1,0.2,0.1,0.3,0.2l0,0c0.1,0,0.2,0.1,0.2,0.1l0,0c0.1,0,0.2,0.1,0.3,0.1l0,0c0.1,0,0.2,0.1,0.3,0.1l0,0c0.1,0,0.2,0,0.3,0
	l0,0l68.9-2.9c0,0,0,0,0.1,0l0,0c0,0,0,0,0.1,0l0,0c0,0,0,0,0.1-0.1l0,0c0,0,0,0,0.1,0l0,0c0,0,0,0,0.1-0.1l0,0c0,0,0,0,0.1-0.1l0,0
	l0,0c0,0,0.1-0.1,0.1-0.1l0,0C122.3,10.5,122.3,10.5,122.4,10.5L122.4,10.5C122.3,10.5,122.3,10.5,122.4,10.5L122.4,10.5"/>
<path class="st0" d="M40.7,14.2c0.4-0.2,0.7-0.5,1.1-0.8c0.3-0.3,0.5-0.6,0.8-1c0.2-0.4,0.4-0.7,0.5-1.2c0.1-0.4,0.2-0.8,0.2-1.2
	l0,0c0-0.4-0.1-0.9-0.2-1.3c-0.1-0.4-0.3-0.8-0.5-1.1c-0.2-0.4-0.5-0.7-0.8-1c-0.3-0.3-0.7-0.6-1.1-0.8l0,0h-4.6
	C35.7,6,35.3,6.3,35,6.6c-0.3,0.3-0.5,0.6-0.8,1c-0.2,0.4-0.4,0.7-0.5,1.1c-0.1,0.4-0.2,0.9-0.2,1.3l0,0c0,0.4,0.1,0.8,0.2,1.2
	c0.1,0.4,0.3,0.8,0.5,1.2c0.2,0.4,0.5,0.7,0.8,1c0.3,0.3,0.7,0.6,1.1,0.8l0,0H40.7"/>
</svg>
