<?xml version="1.0" encoding="utf-8"?>
<!-- Generator: Adobe Illustrator 21.1.0, SVG Export Plug-In . SVG Version: 6.00 Build 0)  -->
<svg version="1.1" id="Layer_1" xmlns="http://www.w3.org/2000/svg" xmlns:xlink="http://www.w3.org/1999/xlink" x="0px" y="0px"
	 viewBox="0 0 208.5 20" style="enable-background:new 0 0 208.5 20;" xml:space="preserve">
<style type="text/css">
	.st0{fill:none;stroke:#000000;stroke-width:0.144;stroke-linecap:round;stroke-linejoin:round;}
</style>
<path class="st0" d="M206.3,12.1L14.2,19.4c-0.2,0-0.4,0.1-0.6,0.1s-0.4,0-0.5,0.1c-0.2,0-0.4,0-0.6,0.1c-0.2,0-0.3,0.1-0.5,0.1l0,0
	c-1,0.2-2,0.2-2.9,0.1c-0.9-0.1-1.9-0.3-2.8-0.7c-0.9-0.4-1.7-0.8-2.5-1.5s-1.4-1.4-1.9-2.2s-1-1.7-1.2-2.6
	c-0.3-0.9-0.5-1.9-0.5-2.9S0.2,8,0.5,7.1c0.3-0.9,0.7-1.8,1.2-2.6C2.3,3.7,3,2.9,3.7,2.3s1.6-1.1,2.5-1.5C7.1,0.5,8.1,0.2,9,0.1
	C10,0,11,0.1,12,0.3l0,0c0.2,0,0.4,0.1,0.5,0.1c0.2,0,0.4,0,0.6,0.1c0.2,0,0.3,0,0.5,0.1c0.2,0,0.4,0,0.6,0l0,0l192.1,7.4
	c0.2,0,0.4,0,0.6,0.1c0.2,0.1,0.3,0.2,0.5,0.2c0.2,0.1,0.3,0.2,0.5,0.4c0.1,0.1,0.2,0.3,0.3,0.4c0.1,0.2,0.2,0.3,0.2,0.5
	c0,0.2,0.1,0.4,0.1,0.5c0,0.2,0,0.4-0.1,0.6c0,0.2-0.1,0.3-0.2,0.5c-0.1,0.2-0.2,0.4-0.3,0.5c-0.2,0.1-0.3,0.2-0.5,0.4
	c-0.2,0.1-0.3,0.1-0.5,0.2C206.7,12.1,206.5,12.1,206.3,12.1L206.3,12.1"/>
</svg>
