<?xml version="1.0" encoding="utf-8"?>
<!-- Generator: Adobe Illustrator 21.1.0, SVG Export Plug-In . SVG Version: 6.00 Build 0)  -->
<svg version="1.1" id="Layer_1" xmlns="http://www.w3.org/2000/svg" xmlns:xlink="http://www.w3.org/1999/xlink" x="0px" y="0px"
	 viewBox="0 0 208.5 20" style="enable-background:new 0 0 208.5 20;" xml:space="preserve">
<path d="M14.2,10c0-0.6-0.1-1.1-0.4-1.6c-0.2-0.5-0.5-1-0.9-1.4c-0.4-0.4-0.8-0.7-1.4-0.9c-0.5-0.2-1.1-0.3-1.6-0.3
	c-0.5,0-1.1,0.1-1.6,0.3C7.8,6.3,7.3,6.6,7,7C6.6,7.4,6.3,7.9,6.1,8.4C5.8,8.9,5.7,9.4,5.7,10l0,0c0,0.5,0.1,1.1,0.4,1.6
	c0.2,0.5,0.5,1,0.9,1.4c0.4,0.4,0.9,0.7,1.4,0.9c0.5,0.2,1,0.3,1.6,0.3c0.6,0,1.1-0.1,1.6-0.3c0.5-0.2,1-0.6,1.4-0.9
	c0.4-0.4,0.7-0.9,0.9-1.4C14.1,11.1,14.2,10.6,14.2,10L14.2,10"/>
<path d="M38.3,17.4c1,0,1.9-0.2,2.8-0.5c0.9-0.4,1.7-0.9,2.4-1.6c0.7-0.7,1.2-1.5,1.6-2.4c0.3-0.9,0.5-1.9,0.5-2.8l0,0
	c0-1-0.2-1.9-0.5-2.8c-0.4-0.9-0.9-1.7-1.6-2.4c-0.7-0.7-1.5-1.2-2.4-1.6c-0.9-0.4-1.9-0.5-2.8-0.5l0,0c-1,0-1.9,0.2-2.8,0.5
	c-0.9,0.4-1.7,0.9-2.4,1.6c-0.7,0.7-1.3,1.5-1.6,2.4C31.1,8.1,31,9,31,10s0.2,1.9,0.5,2.8c0.4,0.9,0.9,1.7,1.6,2.4
	c0.7,0.7,1.5,1.3,2.4,1.6C36.4,17.2,37.3,17.4,38.3,17.4L38.3,17.4"/>
<path d="M157,10.9c0.1,0,0.2,0,0.4-0.1c0.1,0,0.2-0.1,0.3-0.2c0.1-0.1,0.1-0.2,0.2-0.3c0-0.1,0.1-0.2,0.1-0.3l0,0
	c0-0.1,0-0.1-0.1-0.2c0-0.1,0-0.2,0-0.2c0,0-0.1-0.1-0.1-0.2c0,0-0.1-0.1-0.1-0.1c0,0-0.1-0.1-0.1-0.1c-0.1,0-0.1-0.1-0.2-0.1
	c-0.1,0-0.1-0.1-0.2-0.1c-0.1,0-0.1,0-0.2,0l0,0L54.2,5.7c-0.3,0-0.5,0-0.8,0.1c-0.3,0-0.5,0.1-0.8,0.2c-0.3,0.1-0.5,0.3-0.7,0.4
	c-0.2,0.2-0.5,0.3-0.6,0.5c-0.2,0.2-0.4,0.4-0.5,0.6c-0.2,0.2-0.3,0.5-0.4,0.8c-0.1,0.2-0.2,0.5-0.2,0.8C50,9.5,50,9.7,50,10l0,0
	c0,0.3,0,0.6,0.1,0.8c0.1,0.3,0.2,0.5,0.3,0.8c0.1,0.2,0.3,0.5,0.4,0.7c0.2,0.2,0.3,0.5,0.5,0.6c0.2,0.2,0.4,0.4,0.6,0.5
	c0.2,0.2,0.5,0.3,0.8,0.4c0.3,0.1,0.5,0.2,0.8,0.2c0.3,0,0.5,0.1,0.8,0.1l0,0L157,10.9"/>
</svg>
