<?xml version="1.0" encoding="utf-8"?>
<!-- Generator: Adobe Illustrator 21.1.0, SVG Export Plug-In . SVG Version: 6.00 Build 0)  -->
<svg version="1.1" id="Layer_1" xmlns="http://www.w3.org/2000/svg" xmlns:xlink="http://www.w3.org/1999/xlink" x="0px" y="0px"
	 viewBox="0 0 208.5 20" style="enable-background:new 0 0 208.5 20;" xml:space="preserve">
<style type="text/css">
	.st0{fill:none;stroke:#000000;stroke-width:0.144;stroke-linecap:round;stroke-linejoin:round;}
</style>
<path class="st0" d="M38.3,1.5l167.9,6.4c0.3,0,0.6,0,0.8,0.1c0.3,0.1,0.5,0.3,0.7,0.5s0.4,0.4,0.5,0.7c0.1,0.3,0.2,0.6,0.2,0.8l0,0
	c0,0.3-0.1,0.6-0.2,0.8c-0.1,0.2-0.3,0.5-0.5,0.6s-0.4,0.4-0.7,0.5c-0.2,0.1-0.5,0.2-0.8,0.2l0,0L12.8,19.5c-1,0.3-2,0.4-3.1,0.4
	c-1,0-2-0.2-3-0.5c-1-0.3-1.9-0.8-2.7-1.4c-0.8-0.6-1.5-1.4-2.1-2.2c-0.6-0.9-1-1.8-1.4-2.8c-0.3-1-0.5-2-0.5-3c0-1,0.2-2,0.5-3.1
	c0.3-1,0.8-1.9,1.4-2.7C2.5,3.4,3.2,2.7,4,2.1C4.8,1.4,5.7,1,6.7,0.6c1-0.3,2-0.5,3-0.5c1,0,2,0.1,3.1,0.4l0,0L38.3,1.5"/>
</svg>
