<?xml version="1.0" encoding="utf-8"?>
<!-- Generator: Adobe Illustrator 21.1.0, SVG Export Plug-In . SVG Version: 6.00 Build 0)  -->
<svg version="1.1" id="Layer_1" xmlns="http://www.w3.org/2000/svg" xmlns:xlink="http://www.w3.org/1999/xlink" x="0px" y="0px"
	 viewBox="0 0 236.9 20" style="enable-background:new 0 0 236.9 20;" xml:space="preserve">
<style type="text/css">
	.st0{fill:none;stroke:#000000;stroke-width:0.144;stroke-linecap:round;stroke-linejoin:round;}
</style>
<path class="st0" d="M234.7,12.1l-210.5,3c-0.7,0-1.5,0.1-2.2,0.2c-0.7,0.1-1.4,0.3-2.1,0.5c-0.7,0.2-1.4,0.5-2.1,0.9
	c-0.6,0.4-1.2,0.7-1.8,1.2l0,0c-1,0.7-2.1,1.2-3.2,1.6c-1.2,0.3-2.4,0.4-3.6,0.3c-1.2-0.1-2.4-0.4-3.5-0.9c-1.1-0.5-2.1-1.3-2.9-2.2
	c-0.8-0.9-1.5-1.9-1.9-3.1c-0.4-1.1-0.7-2.3-0.7-3.5c0-1.2,0.2-2.4,0.6-3.6c0.4-1.1,1-2.2,1.8-3.1c0.8-0.9,1.7-1.7,2.8-2.3
	c1.1-0.5,2.2-0.9,3.4-1.1C10,0,11.2,0.1,12.4,0.4c1.2,0.3,2.3,0.8,3.3,1.5l0,0c0.5,0.4,1.1,0.7,1.8,1.1c0.6,0.3,1.3,0.6,1.9,0.8
	c0.7,0.2,1.4,0.4,2.1,0.5c0.7,0.1,1.4,0.2,2.1,0.2l0,0l211.1,3.5c0.2,0,0.4,0,0.5,0.1c0.2,0.1,0.4,0.2,0.5,0.2
	c0.2,0.1,0.3,0.2,0.5,0.4c0.1,0.1,0.2,0.3,0.3,0.4c0.1,0.2,0.2,0.3,0.2,0.5s0.1,0.4,0.1,0.5c0,0.2,0,0.4-0.1,0.6
	c0,0.2-0.1,0.3-0.2,0.5c-0.1,0.2-0.2,0.4-0.3,0.5c-0.2,0.1-0.3,0.2-0.5,0.4c-0.2,0.1-0.3,0.1-0.5,0.2
	C235,12.1,234.9,12.1,234.7,12.1L234.7,12.1"/>
<path class="st0" d="M38.4,5.9c-0.4,0-0.7,0-1.1,0.1c-0.4,0.1-0.7,0.2-1,0.4c-0.3,0.2-0.6,0.4-0.8,0.6c-0.3,0.3-0.5,0.6-0.7,0.8
	c-0.2,0.3-0.3,0.6-0.4,1c-0.1,0.4-0.1,0.7-0.1,1.1c0,0.4,0,0.7,0.1,1.1c0.1,0.4,0.3,0.7,0.4,1c0.2,0.3,0.4,0.6,0.7,0.9
	c0.2,0.2,0.5,0.5,0.8,0.6c0.3,0.2,0.6,0.3,1,0.4c0.4,0.1,0.7,0.1,1.1,0.1l0,0c0.5,0,1.1-0.1,1.6-0.3c0.5-0.2,0.9-0.5,1.3-0.9
	c0.4-0.4,0.7-0.8,0.9-1.4c0.2-0.5,0.3-1,0.3-1.6l0,0c0-0.5-0.1-1-0.3-1.5c-0.2-0.5-0.6-1-0.9-1.4c-0.4-0.4-0.8-0.7-1.3-0.9
	C39.5,6,38.9,5.9,38.4,5.9L38.4,5.9"/>
</svg>
