<?xml version="1.0" encoding="utf-8"?>
<!-- Generator: Adobe Illustrator 21.1.0, SVG Export Plug-In . SVG Version: 6.00 Build 0)  -->
<svg version="1.1" id="Layer_1" xmlns="http://www.w3.org/2000/svg" xmlns:xlink="http://www.w3.org/1999/xlink" x="0px" y="0px"
	 viewBox="0 0 236.3 20" style="enable-background:new 0 0 236.3 20;" xml:space="preserve">
<style type="text/css">
	.st0{fill:none;stroke:#000000;stroke-width:0.144;stroke-linecap:round;stroke-linejoin:round;}
</style>
<path class="st0" d="M35,3.8c0.5-0.3,1.1-0.5,1.7-0.6c0.6-0.2,1.2-0.2,1.8-0.2c0.6,0,1.2,0.1,1.8,0.3c0.6,0.2,1.2,0.4,1.7,0.7l0,0
	c0.5,0.3,1,0.6,1.6,0.8c0.6,0.2,1.2,0.4,1.8,0.6c0.6,0.2,1.2,0.3,1.8,0.4c0.6,0.1,1.2,0.1,1.8,0.1l0,0L235.2,9c0.2,0,0.3,0,0.4,0.1
	c0.1,0,0.2,0.1,0.3,0.2c0.1,0.1,0.1,0.2,0.2,0.3c0,0.1,0.1,0.2,0.1,0.4c0,0.2,0,0.3-0.1,0.4c0,0.1-0.1,0.2-0.2,0.3
	c-0.1,0.1-0.2,0.1-0.3,0.2c-0.1,0.1-0.2,0.1-0.4,0.1l0,0L49.1,14c-0.6,0-1.3,0.1-1.9,0.2c-0.6,0.1-1.2,0.2-1.8,0.4
	c-0.6,0.2-1.2,0.4-1.8,0.6c-0.5,0.3-1.1,0.6-1.6,0.9l0,0c-0.5,0.3-1.1,0.6-1.7,0.8c-0.6,0.2-1.2,0.2-1.8,0.2c-0.6,0-1.3,0-1.9-0.2
	c-0.6-0.2-1.2-0.4-1.7-0.7l0,0c-0.5-0.3-1.1-0.6-1.7-0.8c-0.6-0.2-1.2-0.4-1.8-0.6c-0.6-0.1-1.2-0.2-1.8-0.3
	c-0.6-0.1-1.3-0.1-1.9-0.1l0,0l-2.6,0.1c-0.8,0-1.6,0.1-2.4,0.2c-0.8,0.2-1.5,0.4-2.3,0.6c-0.7,0.3-1.5,0.6-2.2,1
	c-0.7,0.4-1.3,0.8-1.9,1.4l0,0c-1,0.8-2.1,1.4-3.2,1.8c-1.2,0.4-2.5,0.5-3.7,0.5c-1.2-0.1-2.5-0.4-3.6-0.9c-1.1-0.5-2.1-1.3-3-2.2
	c-0.9-0.9-1.5-2-2-3.2c-0.5-1.1-0.7-2.3-0.7-3.6c0-1.3,0.2-2.5,0.7-3.6c0.4-1.2,1.1-2.2,1.9-3.2c0.9-0.9,1.9-1.6,3-2.2
	s2.3-0.9,3.6-0.9c1.2-0.1,2.5,0,3.6,0.4c1.2,0.4,2.3,1,3.3,1.8l0,0c0.6,0.5,1.2,0.9,1.9,1.3c0.7,0.4,1.4,0.7,2.1,1
	c0.7,0.3,1.5,0.5,2.3,0.6c0.7,0.2,1.5,0.2,2.3,0.2l0,0L28,5.5c0.6,0,1.2,0,1.8-0.1c0.6-0.1,1.2-0.2,1.8-0.4c0.6-0.1,1.2-0.3,1.8-0.5
	C33.9,4.3,34.4,4,35,3.8L35,3.8"/>
<path d="M14.2,10c0-0.6-0.1-1.1-0.3-1.6c-0.2-0.5-0.6-1-0.9-1.4c-0.4-0.4-0.9-0.7-1.4-0.9c-0.5-0.2-1-0.3-1.6-0.3
	c-0.6,0-1.1,0.1-1.6,0.3C7.9,6.3,7.4,6.6,7,7C6.6,7.4,6.3,7.8,6.1,8.3C5.8,8.9,5.7,9.4,5.7,10l0,0c0,0.5,0.1,1.1,0.4,1.6
	c0.2,0.5,0.5,1,0.9,1.4c0.4,0.4,0.8,0.7,1.4,0.9c0.5,0.2,1.1,0.3,1.6,0.3c0.5,0,1.1-0.1,1.6-0.3c0.5-0.2,1-0.6,1.4-0.9
	c0.4-0.4,0.7-0.9,0.9-1.4C14.1,11.1,14.2,10.5,14.2,10L14.2,10"/>
<path d="M38.4,6.6c-0.2,0-0.5,0-0.7,0.1c-0.2,0-0.4,0.1-0.6,0.2c-0.2,0.1-0.4,0.2-0.6,0.4c-0.2,0.1-0.3,0.3-0.5,0.4
	c-0.2,0.2-0.3,0.3-0.4,0.5c-0.2,0.2-0.3,0.4-0.4,0.6c-0.1,0.2-0.1,0.4-0.2,0.6C35,9.5,35,9.8,35,10l0,0c0,0.4,0.1,0.9,0.2,1.3
	c0.2,0.4,0.5,0.8,0.8,1.1c0.3,0.3,0.7,0.6,1.1,0.7c0.4,0.2,0.9,0.3,1.4,0.3c0.4,0,0.9-0.1,1.3-0.3c0.4-0.2,0.8-0.4,1.1-0.7
	c0.3-0.3,0.5-0.7,0.7-1.1c0.2-0.4,0.2-0.9,0.2-1.3l0,0c0-0.5-0.1-0.9-0.2-1.3c-0.2-0.4-0.4-0.8-0.7-1.1C40.4,7.3,40,7,39.7,6.8
	C39.2,6.7,38.8,6.6,38.4,6.6L38.4,6.6"/>
</svg>
