<?xml version="1.0" encoding="utf-8"?>
<!-- Generator: Adobe Illustrator 21.1.0, SVG Export Plug-In . SVG Version: 6.00 Build 0)  -->
<svg version="1.1" id="Layer_1" xmlns="http://www.w3.org/2000/svg" xmlns:xlink="http://www.w3.org/1999/xlink" x="0px" y="0px"
	 viewBox="0 0 236.9 20" style="enable-background:new 0 0 236.9 20;" xml:space="preserve">
<path d="M38.4,5.9c-0.4,0-0.7,0-1.1,0.1c-0.4,0.1-0.7,0.2-1,0.4C36,6.6,35.7,6.8,35.5,7c-0.3,0.3-0.5,0.6-0.7,0.8
	c-0.2,0.3-0.3,0.6-0.4,1c-0.1,0.4-0.1,0.7-0.1,1.1c0,0.4,0,0.7,0.1,1.1c0.1,0.4,0.3,0.7,0.4,1c0.2,0.3,0.4,0.6,0.7,0.9
	c0.2,0.2,0.5,0.5,0.8,0.6c0.3,0.2,0.6,0.3,1,0.4C37.7,14,38,14,38.4,14l0,0c0.5,0,1.1-0.1,1.6-0.3s0.9-0.5,1.3-0.9
	c0.4-0.4,0.7-0.8,0.9-1.4c0.2-0.5,0.3-1,0.3-1.6l0,0c0-0.5-0.1-1-0.3-1.5s-0.6-1-0.9-1.4C40.9,6.5,40.5,6.2,40,6
	C39.5,6,38.9,5.9,38.4,5.9L38.4,5.9"/>
</svg>
